<svg width="19" height="19" viewBox="0 0 19 19" fill="none" xmlns="http://www.w3.org/2000/svg">
<path d="M8.61689 1.66277C8.99289 0.954858 10.0073 0.954858 10.3833 1.66277L12.3393 5.34562C12.4838 5.61777 12.7458 5.80807 13.0493 5.86144L17.1563 6.58368C17.9458 6.7225 18.2592 7.68721 17.7021 8.26354L14.804 11.2619C14.5898 11.4834 14.4898 11.7914 14.5328 12.0965L15.1151 16.2257C15.227 17.0194 14.4063 17.6156 13.6861 17.2639L9.93889 15.4342C9.66199 15.2989 9.33819 15.2989 9.06129 15.4342L5.31412 17.2639C4.59384 17.6156 3.77321 17.0194 3.88513 16.2257L4.46739 12.0965C4.51042 11.7914 4.41037 11.4834 4.19621 11.2619L1.29806 8.26354C0.740976 7.68721 1.05444 6.7225 1.84389 6.58368L5.95093 5.86144C6.25442 5.80807 6.51636 5.61776 6.6609 5.34562L8.61689 1.66277Z" fill="#E0B004" stroke="#E0B004" stroke-width="1.5"/>
</svg>
