<svg width="907" height="961" viewBox="0 0 907 961" fill="none" xmlns="http://www.w3.org/2000/svg">
<path d="M-32.6289 27.8388C17.606 39.8996 68.3925 -14.9625 117.588 4.04069C156.94 19.2197 181.464 76.5528 217.952 102.793C281.021 148.153 363.056 91.0259 424.938 139.652C455.083 163.332 474.154 207.722 498.063 243.346C551.968 323.624 629.59 358.277 703.839 389.635C722.274 397.43 741.049 405.432 756.874 420.964C772.7 436.496 785.725 461.059 786.723 488.828C787.465 509.773 781.525 530.011 781.249 551.044C780.677 598.935 808.382 635.706 829.342 672.712C861.143 729.428 929.114 757.326 899.849 869.274C870.584 981.223 701.679 818.181 575.679 895.143C458.571 1029.48 272.755 916.686 189.687 916.686C12.7777 916.686 -21.1521 869.274 -21.1521 869.274L-32.6289 27.8388Z" fill="#FCEDC0"/>
</svg>
