<svg width="25" height="24" viewBox="0 0 25 24" fill="none" xmlns="http://www.w3.org/2000/svg">
<path d="M9.40039 18C10.2288 18 10.9004 18.6716 10.9004 19.5C10.9004 20.3284 10.2288 21 9.40039 21C8.57196 21 7.90039 20.3284 7.90039 19.5C7.90039 18.6716 8.57196 18 9.40039 18Z" stroke="#323133" stroke-width="1.5"/>
<path d="M16.4004 18C17.2288 18 17.9004 18.6716 17.9004 19.5C17.9004 20.3284 17.2288 21 16.4004 21C15.572 21 14.9004 20.3284 14.9004 19.5C14.9004 18.6716 15.572 18 16.4004 18Z" stroke="#323133" stroke-width="1.5"/>
<path d="M6.15039 12C6.15039 10.5646 6.15198 9.56347 6.25354 8.80812C6.35219 8.07434 6.53264 7.68577 6.8094 7.40901C7.08616 7.13225 7.47473 6.9518 8.20851 6.85315C8.96386 6.75159 9.96497 6.75 11.4004 6.75H14.3176C15.9845 6.75 17.1541 6.75179 18.0234 6.87517C18.8719 6.9956 19.2958 7.21511 19.5758 7.54566C19.8558 7.8762 20.0027 8.33044 19.982 9.18719C19.9608 10.0649 19.7702 11.2189 19.4962 12.8631C19.2935 14.0793 19.1515 14.9228 18.9633 15.5551C18.7811 16.1672 18.5798 16.4911 18.3134 16.7168C18.0469 16.9425 17.6944 17.0878 17.0606 17.1669C16.406 17.2486 15.5507 17.25 14.3176 17.25H11.4004C9.96497 17.25 8.96386 17.2484 8.20851 17.1469C7.47473 17.0482 7.08616 16.8678 6.8094 16.591C6.53264 16.3142 6.35219 15.9257 6.25354 15.1919C6.15198 14.4365 6.15039 13.4354 6.15039 12Z" stroke="#323133" stroke-width="1.5"/>
<path d="M6.15039 11.5V5C6.15039 3.89543 5.25496 3 4.15039 3H2.90039" stroke="#323133" stroke-width="1.5" stroke-linecap="round"/>
</svg>
