<svg width="274" height="227" viewBox="0 0 274 227" fill="none" xmlns="http://www.w3.org/2000/svg">
<path opacity="0.5" d="M119.821 103.626C117.888 96.667 113.382 89.5295 106.24 87.0612C98.7995 84.4467 90.4049 86.4391 84.0563 90.7902C76.4775 95.9913 70.5538 104.197 66.0129 112.095C65.0367 113.834 64.508 115.866 64.2768 117.994C63.989 119.183 63.8495 120.372 63.8091 121.559C63.622 129.523 70.1072 136.695 76.5673 140.554C84.4688 145.291 92.1773 144.145 100.467 141.362C108.066 138.832 114.21 133.592 117.618 126.295C119.176 123.019 120.435 119.449 120.952 115.884C121.613 111.724 120.939 107.624 119.821 103.626ZM115.16 121.912C112.587 128.361 108.321 133.29 102.012 136.305C95.2098 139.572 87.6054 141.41 80.4584 138.299C77.2817 136.888 73.999 134.539 71.5032 131.59C71.4527 131.442 71.402 131.294 71.2528 131.197C71.1531 131.098 71.0539 131.05 71.0037 130.951C69.1056 128.542 67.6996 125.783 67.3316 122.917C66.3858 115.604 71.8706 108.243 76.432 103.064C78.8843 100.276 81.1378 97.3409 84.0885 95.0435C86.3018 93.3451 88.6664 92.0412 91.1307 90.8355C94.4359 89.6235 97.9446 89.1518 101.559 89.619C108.69 90.5542 113.632 96.4025 115.71 103.064C116.622 105.926 117.44 109.332 117.463 112.398C117.487 115.613 116.325 118.886 115.16 121.912Z" fill="#E0B004"/>
<path opacity="0.5" d="M101.67 97.7291C101.669 97.5808 101.372 97.583 101.373 97.7314C100.858 101.544 101.038 105.697 97.4938 108.048C94.7866 109.849 91.5774 110.665 88.82 112.368C86.6533 113.67 84.144 115.469 82.8252 117.705C83.0164 116.813 83.2569 115.921 83.6466 115.127C85.2543 111.85 88.1094 109.999 91.3128 108.392C95.2554 106.433 100.035 103.973 100.592 99.1222C100.639 98.7756 100.044 98.6317 99.8982 98.9296C96.8844 105.976 87.0977 107.039 82.6914 113.106C81.0264 115.345 80.4033 117.971 80.078 120.743C79.707 124.01 80.8559 125.485 83.3434 127.346C83.8909 127.787 84.4283 126.892 84.0786 126.45C84.1277 126.4 84.1274 126.351 84.1765 126.301C84.5134 125.062 84.555 124.023 84.4464 122.738C84.1713 119.08 85.5447 117.536 88.2994 115.487C90.956 113.538 94.0635 112.328 97.0202 110.822C99.1885 109.717 100.91 108.369 101.931 106.086C103.097 103.307 102.086 100.446 101.67 97.7291Z" fill="#E0B004"/>
<path opacity="0.5" d="M101.518 97.237C101.468 97.2374 101.468 97.2869 101.518 97.2865C101.567 97.2861 101.567 97.2366 101.518 97.237Z" fill="#E0B004"/>
<path opacity="0.5" d="M114.393 111.977C113.725 115.148 113.01 118.714 111.151 121.449C109.439 123.984 106.441 126.628 104.031 128.427C101.768 130.126 99.355 131.578 96.7427 132.835C94.1794 134.041 91.4565 133.765 88.8415 134.675C88.496 134.776 88.5492 135.271 88.9449 135.268C91.7645 135.246 94.3874 135.375 97.0507 134.316C100.404 132.955 103.507 131.102 106.409 128.953C108.623 127.304 111.225 124.762 112.642 122.377C114.4 119.347 114.817 115.585 115.186 112.169C115.232 111.625 114.489 111.532 114.393 111.977Z" fill="#E0B004"/>
<path opacity="0.5" d="M39.2863 204.658C39.6218 206.775 40.4215 208.83 41.3362 210.74C43.4013 214.992 47.0834 218.013 51.5375 219.431C56.4283 220.991 60.9634 221.596 65.5594 218.744C69.3172 216.422 73.0604 212.155 72.8798 207.481C72.8455 206.785 72.7531 206.088 72.5735 205.393C72.4191 204.175 72.0904 202.957 71.5019 201.946C68.7662 197.35 65.2162 192.586 60.7212 189.6C56.9559 187.102 52.0108 186.036 47.6664 187.608C43.4961 189.149 40.9142 193.35 39.8707 197.452C39.2496 199.809 38.8903 202.222 39.2863 204.658ZM41.3323 202.552C41.3187 200.751 41.7972 198.744 42.2781 197.057C43.4103 193.157 46.2591 189.68 50.4652 189.039C52.583 188.732 54.6468 188.978 56.5978 189.66C58.055 190.346 59.4837 191.09 60.7689 192.068C62.5214 193.39 63.8702 195.093 65.3345 196.708C68.0871 199.707 71.3431 203.979 70.8529 208.28C70.6626 209.995 69.8906 211.598 68.7688 213.029C68.7111 213.088 68.6533 213.117 68.6247 213.175C68.538 213.234 68.4806 213.322 68.4813 213.409C67.0425 215.162 65.1363 216.57 63.2842 217.426C59.1167 219.345 54.6365 218.305 50.6147 216.448C46.8844 214.734 44.3361 211.878 42.7684 208.116C42.0292 206.379 41.347 204.497 41.3323 202.552Z" fill="#C3B486"/>
<path opacity="0.5" d="M50.472 193.83C50.4713 193.743 50.6456 193.742 50.6462 193.829C50.9826 196.062 50.914 198.502 53.0152 199.851C54.6203 200.884 56.5114 201.334 58.1452 202.309C59.4286 203.054 60.9176 204.088 61.7116 205.389C61.5914 204.867 61.4422 204.346 61.2064 203.883C60.2336 201.974 58.5411 200.912 56.6465 199.997C54.3147 198.883 51.4871 197.481 51.117 194.639C51.0865 194.436 51.4343 194.346 51.5228 194.519C53.3544 198.629 59.1088 199.166 61.7492 202.688C62.7174 203.988 63.1356 205.523 63.3512 207.148C63.598 209.062 62.9366 209.938 61.493 211.053C61.1755 211.316 60.8521 210.796 61.0534 210.533C61.0242 210.504 61.024 210.475 60.9947 210.447C60.786 209.722 60.7523 209.113 60.8047 208.357C60.9336 206.208 60.1136 205.314 58.4784 204.136C56.9017 203.015 55.0669 202.332 53.3179 201.474C52.0353 200.845 51.013 200.069 50.3931 198.738C49.6838 197.118 50.2518 195.429 50.472 193.83Z" fill="#C3B486"/>
<path opacity="0.5" d="M50.5576 193.54C50.5861 193.54 50.5864 193.568 50.5578 193.568C50.5292 193.569 50.529 193.54 50.5576 193.54Z" fill="#C3B486"/>
<path opacity="0.5" d="M43.1313 202.306C43.552 204.161 44.0034 206.248 45.119 207.836C46.1466 209.309 47.9297 210.835 49.3605 211.869C50.7039 212.846 52.1332 213.678 53.6778 214.392C55.1932 215.077 56.7891 214.891 58.3321 215.402C58.5359 215.458 58.509 215.749 58.2766 215.751C56.6214 215.763 55.083 215.862 53.5102 215.264C51.5295 214.495 49.6919 213.435 47.9691 212.199C46.6551 211.251 45.1047 209.782 44.252 208.395C43.1931 206.631 42.9151 204.427 42.6676 202.425C42.6361 202.106 43.0713 202.045 43.1313 202.306Z" fill="#C3B486"/>
<path opacity="0.5" d="M216.507 29.465C217.058 32.943 218.372 36.3199 219.875 39.4568C223.267 46.4432 229.316 51.4061 236.634 53.7358C244.668 56.2986 252.119 57.2916 259.669 52.6074C265.843 48.7923 271.992 41.7813 271.695 34.1036C271.639 32.9592 271.487 31.8155 271.192 30.6729C270.939 28.6714 270.399 26.672 269.432 25.0098C264.938 17.4593 259.105 9.63271 251.721 4.72767C245.535 0.62447 237.411 -1.12672 230.275 1.50318C223.423 4.03551 219.182 10.9367 217.42 17.6759C216.447 21.5471 215.857 25.463 216.507 29.465ZM219.868 26.0051C219.846 23.0478 220.632 19.7504 221.422 16.9777C223.282 10.5717 227.962 4.85981 234.872 3.80577C238.351 3.30242 241.742 3.70605 244.947 4.82662C247.341 5.95333 249.688 7.17578 251.799 8.78165C254.678 10.9541 256.894 13.7517 259.3 16.4048C263.822 21.3315 269.171 28.3508 268.366 35.4167C268.053 38.2335 266.785 40.8667 264.942 43.218C264.847 43.3141 264.752 43.3626 264.705 43.4583C264.563 43.5548 264.468 43.6986 264.469 43.8417C262.106 46.7217 258.974 49.035 255.931 50.4414C249.085 53.5938 241.725 51.8846 235.118 48.834C228.989 46.0183 224.803 41.3276 222.228 35.1459C221.013 32.293 219.892 29.2009 219.868 26.0051Z" fill="#C3B486"/>
<path opacity="0.5" d="M234.884 11.676C234.883 11.5329 235.17 11.5307 235.171 11.6738C235.723 15.3426 235.611 19.3504 239.062 21.5662C241.699 23.2635 244.806 24.0032 247.49 25.6048C249.599 26.829 252.045 28.5278 253.349 30.6645C253.152 29.8074 252.907 28.9506 252.519 28.1903C250.921 25.0541 248.141 23.3102 245.028 21.8073C241.197 19.9759 236.552 17.6737 235.944 13.0036C235.894 12.6701 236.465 12.5227 236.611 12.8078C239.62 19.5586 249.073 20.441 253.411 26.2278C255.001 28.3623 255.688 30.8853 256.043 33.5539C256.448 36.6991 255.362 38.1384 252.99 39.969C252.468 40.4022 251.937 39.5476 252.268 39.1158C252.22 39.0684 252.219 39.0208 252.171 38.9734C251.828 37.7835 251.773 36.7822 251.859 35.5413C252.071 32.0098 250.724 30.5413 248.038 28.6058C245.447 26.7651 242.433 25.643 239.56 24.2337C237.453 23.2003 235.773 21.9251 234.755 19.7385C233.589 17.076 234.523 14.3023 234.884 11.676Z" fill="#C3B486"/>
<path opacity="0.5" d="M235.024 11.197C235.072 11.1966 235.072 11.2443 235.024 11.2447C234.977 11.245 234.976 11.1974 235.024 11.197Z" fill="#C3B486"/>
<path opacity="0.5" d="M222.823 25.6005C223.514 28.6482 224.256 32.077 226.089 34.6867C227.777 37.1067 230.706 39.6127 233.057 41.3122C235.264 42.9173 237.612 44.2828 240.149 45.4562C242.639 46.5822 245.261 46.2761 247.796 47.1155C248.13 47.2084 248.086 47.6858 247.704 47.6887C244.985 47.7093 242.458 47.8715 239.874 46.8893C236.62 45.626 233.601 43.8839 230.771 41.8542C228.612 40.2964 226.065 37.8829 224.664 35.6038C222.925 32.7072 222.468 29.0854 222.061 25.797C222.01 25.2727 222.725 25.1719 222.823 25.6005Z" fill="#C3B486"/>
<path opacity="0.5" d="M1.59805 119.536C1.83543 121.034 2.40125 122.489 3.04848 123.84C4.50967 126.849 7.11498 128.986 10.2665 129.99C13.7271 131.093 16.9359 131.521 20.1879 129.504C22.8468 127.861 25.4952 124.841 25.3675 121.534C25.3432 121.041 25.2778 120.549 25.1508 120.057C25.0415 119.195 24.809 118.333 24.3926 117.618C22.4569 114.366 19.945 110.995 16.7645 108.882C14.1004 107.115 10.6014 106.361 7.52765 107.493C4.57689 108.584 2.75001 111.556 1.99114 114.459C1.57208 116.106 1.31787 117.813 1.59805 119.536ZM3.02517 118.046C3.01553 116.773 3.35411 115.353 3.6944 114.158C4.49546 111.399 6.51116 108.939 9.48728 108.485C10.9857 108.268 12.446 108.442 13.8264 108.925C14.8575 109.41 15.8684 109.937 16.7777 110.628C18.0178 111.564 18.9721 112.769 20.0082 113.912C21.9558 116.033 24.2596 119.057 23.9128 122.1C23.7781 123.313 23.2319 124.447 22.4382 125.46C22.3974 125.501 22.3564 125.522 22.3362 125.563C22.2749 125.605 22.2342 125.667 22.2347 125.729C21.2167 126.969 19.868 127.965 18.5575 128.571C15.6087 129.929 12.4387 129.193 9.59299 127.879C6.95358 126.666 5.15055 124.646 4.04131 121.983C3.53884 120.754 3.03559 119.423 3.02517 118.046Z" fill="#C3B486"/>
<path opacity="0.5" d="M9.51273 111.876C9.51226 111.814 9.63555 111.813 9.63602 111.875C9.87401 113.455 9.82543 115.181 11.3122 116.136C12.4479 116.867 13.786 117.185 14.9419 117.875C15.85 118.402 16.9036 119.134 17.4653 120.054C17.3803 119.685 17.2748 119.316 17.1079 118.988C16.4196 117.638 15.2221 116.887 13.8815 116.239C12.2317 115.451 10.2309 114.459 9.96913 112.448C9.9475 112.304 10.1936 112.24 10.2562 112.363C11.5522 115.271 15.6237 115.651 17.492 118.143C18.1976 119.062 18.4729 120.149 18.6255 121.299C18.8001 122.653 18.3322 123.273 17.3107 124.062C17.0861 124.248 16.8573 123.88 16.9997 123.694C16.979 123.674 16.9789 123.653 16.9582 123.633C16.8104 123.12 16.7866 122.689 16.8237 122.155C16.9149 120.634 16.3348 120.001 15.1777 119.167C14.0621 118.375 12.7639 117.891 11.5264 117.284C10.6188 116.839 9.89548 116.29 9.45683 115.348C8.95498 114.202 9.3569 113.007 9.51273 111.876Z" fill="#C3B486"/>
<path opacity="0.5" d="M9.57297 111.669C9.59345 111.669 9.5936 111.689 9.57313 111.689C9.55265 111.689 9.5525 111.669 9.57297 111.669Z" fill="#C3B486"/>
<path opacity="0.5" d="M4.3189 117.872C4.61652 119.184 4.93594 120.661 5.72529 121.785C6.45239 122.827 7.71402 123.907 8.72645 124.639C9.67692 125.33 10.6883 125.918 11.7812 126.424C12.8534 126.909 13.9826 126.777 15.0744 127.138C15.2185 127.178 15.1995 127.384 15.0351 127.385C13.8639 127.394 12.7754 127.464 11.6626 127.041C10.2611 126.497 8.96087 125.746 7.74188 124.872C6.81211 124.201 5.71516 123.162 5.11182 122.18C4.36262 120.933 4.16588 119.373 3.99077 117.956C3.96851 117.731 4.27641 117.687 4.3189 117.872Z" fill="#C3B486"/>
<path opacity="0.5" d="M169.888 109.483C168.249 110.643 166.807 112.103 165.522 113.58C162.667 116.89 161.334 120.8 161.563 124.555C161.812 128.679 162.736 132.135 166.525 134.127C169.616 135.759 174.304 136.532 178.096 134.365C178.658 134.037 179.203 133.668 179.719 133.238C180.674 132.598 181.573 131.835 182.222 130.979C185.149 127.048 187.959 122.469 189.009 118.002C189.885 114.261 189.212 110.314 186.532 107.955C183.955 105.692 179.686 105.707 175.971 106.742C173.869 107.341 171.77 108.141 169.888 109.483ZM172.254 109.984C173.732 109.189 175.535 108.65 177.076 108.252C180.642 107.347 184.399 107.835 186.246 110.516C187.162 111.873 187.607 113.434 187.657 115.105C187.549 116.43 187.384 117.76 186.982 119.092C186.443 120.903 185.463 122.595 184.592 124.331C182.986 127.578 180.488 131.735 176.793 133.266C175.321 133.881 173.759 134.037 172.229 133.872C172.162 133.857 172.12 133.829 172.063 133.834C171.987 133.799 171.897 133.796 171.826 133.835C169.931 133.587 168.174 132.86 166.888 131.929C164.001 129.833 163.453 126.225 163.721 122.583C163.963 119.209 165.515 116.169 168.123 113.423C169.33 112.165 170.657 110.843 172.254 109.984Z" fill="#C3B486"/>
<path opacity="0.5" d="M182.213 112.89C182.283 112.852 182.338 112.973 182.268 113.011C180.556 114.204 178.551 115.204 178.105 117.241C177.762 118.798 177.981 120.302 177.694 121.854C177.486 123.064 177.106 124.54 176.294 125.65C176.681 125.342 177.059 125.015 177.363 124.652C178.613 123.158 178.953 121.528 179.11 119.821C179.294 117.726 179.559 115.163 181.755 113.685C181.911 113.576 182.091 113.779 181.978 113.915C179.204 116.951 180.548 121.171 178.502 124.515C177.754 125.765 176.626 126.695 175.372 127.543C173.892 128.536 172.975 128.454 171.622 127.933C171.309 127.826 171.632 127.378 171.908 127.405C171.923 127.372 171.946 127.359 171.961 127.327C172.485 126.871 172.97 126.585 173.6 126.297C175.388 125.463 175.861 124.51 176.312 122.87C176.735 121.295 176.723 119.73 176.879 118.149C176.993 116.989 177.308 115.947 178.198 114.945C179.296 113.757 180.845 113.425 182.213 112.89Z" fill="#C3B486"/>
<path opacity="0.5" d="M181.675 112.881C181.684 112.902 181.66 112.915 181.651 112.894C181.642 112.874 181.666 112.861 181.675 112.881Z" fill="#C3B486"/>
<path opacity="0.5" d="M173.027 110.435C171.621 111.55 170.032 112.788 169.066 114.278C168.169 115.654 167.467 117.59 167.061 119.06C166.674 120.442 166.436 121.822 166.332 123.232C166.242 124.608 166.9 125.658 166.964 126.977C166.981 127.147 166.732 127.255 166.657 127.091C166.124 125.923 165.556 124.875 165.555 123.496C165.567 121.753 165.867 119.983 166.347 118.218C166.719 116.869 167.448 115.123 168.329 113.908C169.458 112.382 171.199 111.215 172.781 110.159C173.036 109.996 173.224 110.278 173.027 110.435Z" fill="#C3B486"/>
<path opacity="0.5" d="M147.031 207.566C148.078 204.646 146.916 201.89 145.567 199.703C143.443 196.265 139.089 194.999 134.549 195.458C131.858 195.39 128.869 195.823 126.292 197.291C120.387 200.65 117.843 207.496 121.807 211.616C123.797 213.696 127.077 215.198 130.318 215.37C133.423 215.558 136.674 215.605 139.879 214.301C142.777 213.164 146.01 210.403 147.031 207.566ZM140.539 211.946C135.798 214.617 129.198 213.726 125.401 211.744C123.36 210.674 121.377 209.072 121.191 206.655C120.99 203.812 122.912 201.036 125.505 199.151C125.659 199.031 125.821 198.931 125.983 198.832C126.037 198.903 126.157 198.919 126.278 198.862C128.526 197.885 130.623 196.882 132.893 196.424C135.343 196.146 137.8 196.347 139.93 196.966C140.993 197.385 141.941 197.953 142.718 198.674C144.343 200.227 145.483 202.848 145.374 205.234C145.212 207.862 143.165 210.455 140.539 211.946Z" fill="#C3B486"/>
<path opacity="0.5" d="M142.322 204.147C142.629 204.005 142.63 203.563 142.311 203.524C140.776 203.348 139.416 203.046 138.084 202.451C136.753 201.855 135.547 201.225 133.924 201.184C131.435 201.124 128.505 202.851 126.721 204.676C126.546 204.874 126.596 205.083 126.743 205.179C126.654 205.313 126.589 205.436 126.563 205.588C126.504 205.801 126.744 205.923 126.948 205.875C128.258 205.526 129.362 204.55 130.695 204.26C132.365 203.907 133.787 204.67 135.135 205.164C137.159 205.905 139.651 206.197 141.85 204.738C142.071 204.589 141.982 204.351 141.771 204.379C141.984 204.28 142.156 204.224 142.322 204.147ZM141.709 204.361C138.031 206.014 135.461 203.291 132.21 203.047C131.009 202.95 129.965 203.27 128.806 203.876C128.758 203.898 128.687 203.931 128.64 203.952C129.597 203.324 130.637 202.843 131.736 202.521C133.66 201.958 135.175 202.305 136.699 203.045C138.021 203.69 139.889 204.83 141.709 204.361Z" fill="#C3B486"/>
<path opacity="0.5" d="M214.75 179.42C216.155 175.501 214.595 171.803 212.786 168.868C209.935 164.254 204.092 162.556 198 163.171C194.388 163.081 190.377 163.661 186.919 165.631C178.994 170.139 175.58 179.326 180.901 184.854C183.571 187.646 187.972 189.662 192.321 189.893C196.488 190.145 200.851 190.208 205.152 188.458C209.042 186.932 213.38 183.226 214.75 179.42ZM206.038 185.298C199.675 188.883 190.819 187.687 185.723 185.026C182.984 183.591 180.323 181.441 180.074 178.197C179.803 174.382 182.383 170.657 185.863 168.127C186.07 167.966 186.287 167.832 186.504 167.699C186.577 167.794 186.738 167.816 186.9 167.74C189.917 166.428 192.73 165.082 195.777 164.468C199.065 164.095 202.363 164.365 205.221 165.195C206.647 165.757 207.919 166.52 208.962 167.487C211.142 169.571 212.673 173.088 212.526 176.291C212.308 179.817 209.561 183.297 206.038 185.298Z" fill="#C3B486"/>
<path opacity="0.5" d="M208.43 174.833C208.842 174.642 208.843 174.048 208.415 173.996C206.356 173.761 204.53 173.355 202.743 172.556C200.957 171.757 199.339 170.912 197.161 170.856C193.82 170.775 189.889 173.093 187.495 175.543C187.259 175.808 187.327 176.089 187.523 176.217C187.405 176.397 187.318 176.562 187.282 176.766C187.203 177.052 187.525 177.216 187.799 177.152C189.557 176.683 191.039 175.373 192.828 174.984C195.068 174.51 196.976 175.534 198.786 176.197C201.501 177.192 204.846 177.583 207.797 175.625C208.094 175.426 207.974 175.106 207.691 175.143C207.976 175.011 208.208 174.935 208.43 174.833ZM207.607 175.119C202.672 177.338 199.222 173.684 194.86 173.357C193.249 173.227 191.847 173.656 190.292 174.469C190.228 174.498 190.133 174.542 190.07 174.571C191.354 173.728 192.749 173.083 194.224 172.651C196.806 171.895 198.839 172.361 200.884 173.353C202.659 174.22 205.165 175.749 207.607 175.119Z" fill="#C3B486"/>
</svg>
