<svg width="25" height="24" viewBox="0 0 25 24" fill="none" xmlns="http://www.w3.org/2000/svg">
<path d="M18.2012 4.75H6.20117C4.40625 4.75 2.95117 6.20507 2.95117 8V18C2.95117 19.7949 4.40625 21.25 6.20117 21.25H18.2012C19.9961 21.25 21.4512 19.7949 21.4512 18V8C21.4512 6.20507 19.9961 4.75 18.2012 4.75Z" stroke="#323133" stroke-width="1.5"/>
<path d="M6.95117 2.75V6.25" stroke="#323133" stroke-width="1.5" stroke-linecap="round"/>
<path d="M3.95117 9.25H20.4512" stroke="#323133" stroke-width="1.5" stroke-linecap="round"/>
<path d="M17.9512 2.75V6.25" stroke="#323133" stroke-width="1.5" stroke-linecap="round"/>
<path d="M8.45117 14C8.86539 14 9.20117 13.6642 9.20117 13.25C9.20117 12.8358 8.86539 12.5 8.45117 12.5C8.03696 12.5 7.70117 12.8358 7.70117 13.25C7.70117 13.6642 8.03696 14 8.45117 14Z" fill="#323133"/>
<path d="M12.4512 14C12.8654 14 13.2012 13.6642 13.2012 13.25C13.2012 12.8358 12.8654 12.5 12.4512 12.5C12.037 12.5 11.7012 12.8358 11.7012 13.25C11.7012 13.6642 12.037 14 12.4512 14Z" fill="#323133"/>
<path d="M16.4512 14C16.8654 14 17.2012 13.6642 17.2012 13.25C17.2012 12.8358 16.8654 12.5 16.4512 12.5C16.037 12.5 15.7012 12.8358 15.7012 13.25C15.7012 13.6642 16.037 14 16.4512 14Z" fill="#323133"/>
<path d="M8.45117 18C8.86539 18 9.20117 17.6642 9.20117 17.25C9.20117 16.8358 8.86539 16.5 8.45117 16.5C8.03696 16.5 7.70117 16.8358 7.70117 17.25C7.70117 17.6642 8.03696 18 8.45117 18Z" fill="#323133"/>
<path d="M12.4512 18C12.8654 18 13.2012 17.6642 13.2012 17.25C13.2012 16.8358 12.8654 16.5 12.4512 16.5C12.037 16.5 11.7012 16.8358 11.7012 17.25C11.7012 17.6642 12.037 18 12.4512 18Z" fill="#323133"/>
<path d="M16.4512 18C16.8654 18 17.2012 17.6642 17.2012 17.25C17.2012 16.8358 16.8654 16.5 16.4512 16.5C16.037 16.5 15.7012 16.8358 15.7012 17.25C15.7012 17.6642 16.037 18 16.4512 18Z" fill="#323133"/>
</svg>
