<svg width="24" height="24" viewBox="0 0 24 24" fill="none" xmlns="http://www.w3.org/2000/svg">
<path fill-rule="evenodd" clip-rule="evenodd" d="M8 5.75195C5.82497 5.76406 4.64706 5.86051 3.87868 6.62889C3 7.50757 3 8.92178 3 11.7502V16.0002C3 18.8286 3 20.2428 3.87868 21.1215C4.75736 22.0002 6.17157 22.0002 9 22.0002H10C12.8284 22.0002 14.2426 22.0002 15.1213 21.1215C15.7275 20.5154 15.9155 19.6544 15.9738 18.2502H14.4726C14.4583 18.5698 14.4366 18.8465 14.4035 19.0921C14.3161 19.7427 14.1748 19.9466 14.0607 20.0608C13.9465 20.175 13.7426 20.3162 13.0919 20.4037C12.3982 20.497 11.4566 20.5002 10 20.5002H9C7.54338 20.5002 6.60182 20.497 5.90806 20.4037C5.25745 20.3162 5.05353 20.175 4.93934 20.0608C4.82515 19.9466 4.68393 19.7427 4.59646 19.0921C4.50319 18.3984 4.5 17.4568 4.5 16.0002V11.7502C4.5 10.2936 4.50319 9.35203 4.59646 8.65827C4.68393 8.00766 4.82515 7.80374 4.93934 7.68955C5.05353 7.57536 5.25745 7.43414 5.90806 7.34667C6.42839 7.27671 7.08812 7.25743 8 7.25217V5.75195Z" fill="#323133"/>
<mask id="mask0_1579_4690" style="mask-type:alpha" maskUnits="userSpaceOnUse" x="8" y="2" width="13" height="17">
<path fill-rule="evenodd" clip-rule="evenodd" d="M17.317 3.17157C16.5669 2.42143 15.5495 2 14.4886 2H11C9.34315 2 8 3.34315 8 5V15.25C8 16.9069 9.34315 18.25 11 18.25H18C19.6569 18.25 21 16.9069 21 15.25V8.51141C21 7.45054 20.5786 6.43312 19.8284 5.68298L17.317 3.17157Z" fill="white"/>
</mask>
<g mask="url(#mask0_1579_4690)">
<path d="M17.317 3.17157L16.2564 4.23223L17.317 3.17157ZM11 3.5H14.4886V0.5H11V3.5ZM9.5 5C9.5 4.17157 10.1716 3.5 11 3.5V0.5C8.51472 0.5 6.5 2.51472 6.5 5H9.5ZM9.5 15.25V5H6.5V15.25H9.5ZM11 16.75C10.1716 16.75 9.5 16.0784 9.5 15.25H6.5C6.5 17.7353 8.51472 19.75 11 19.75V16.75ZM18 16.75H11V19.75H18V16.75ZM19.5 15.25C19.5 16.0784 18.8284 16.75 18 16.75V19.75C20.4853 19.75 22.5 17.7353 22.5 15.25H19.5ZM19.5 8.51141V15.25H22.5V8.51141H19.5ZM20.8891 4.62232L18.3777 2.11091L16.2564 4.23223L18.7678 6.74364L20.8891 4.62232ZM22.5 8.51141C22.5 7.05272 21.9205 5.65377 20.8891 4.62232L18.7678 6.74364C19.2366 7.21248 19.5 7.84836 19.5 8.51141H22.5ZM14.4886 3.5C15.1516 3.5 15.7875 3.76339 16.2564 4.23223L18.3777 2.11091C17.3462 1.07946 15.9473 0.5 14.4886 0.5V3.5Z" fill="#323133"/>
</g>
</svg>
