<svg width="19" height="19" viewBox="0 0 19 19" fill="none" xmlns="http://www.w3.org/2000/svg">
<path d="M8.5207 1.66277C8.8967 0.954858 9.91109 0.954858 10.2871 1.66277L12.2431 5.34562C12.3876 5.61777 12.6496 5.80807 12.9531 5.86144L17.0601 6.58368C17.8496 6.7225 18.163 7.68721 17.6059 8.26354L14.7078 11.2619C14.4936 11.4834 14.3936 11.7914 14.4366 12.0965L15.0189 16.2257C15.1308 17.0194 14.3101 17.6156 13.5899 17.2639L9.84269 15.4342C9.56579 15.2989 9.24199 15.2989 8.96509 15.4342L5.21793 17.2639C4.49765 17.6156 3.67701 17.0194 3.78893 16.2257L4.37119 12.0965C4.41422 11.7914 4.31417 11.4834 4.10001 11.2619L1.20186 8.26354C0.644785 7.68721 0.958245 6.7225 1.74769 6.58368L5.85473 5.86144C6.15822 5.80807 6.42017 5.61776 6.56471 5.34562L8.5207 1.66277Z" stroke="#E0B004" stroke-width="1.5"/>
</svg>
