<svg width="25" height="24" viewBox="0 0 25 24" fill="none" xmlns="http://www.w3.org/2000/svg">
<path d="M15.6504 6.5C15.6504 8.29493 14.1953 9.75 12.4004 9.75C10.6055 9.75 9.15039 8.29493 9.15039 6.5C9.15039 4.70507 10.6055 3.25 12.4004 3.25C14.1953 3.25 15.6504 4.70507 15.6504 6.5Z" stroke="#323133" stroke-width="1.5"/>
<path d="M18.6504 16.5C18.6504 17.5756 18.0413 18.6202 16.9142 19.4252C15.7886 20.2293 14.1951 20.75 12.4004 20.75C10.6057 20.75 9.0122 20.2293 7.88657 19.4252C6.7595 18.6202 6.15039 17.5756 6.15039 16.5C6.15039 15.4244 6.7595 14.3798 7.88657 13.5748C9.0122 12.7707 10.6057 12.25 12.4004 12.25C14.1951 12.25 15.7886 12.7707 16.9142 13.5748C18.0413 14.3798 18.6504 15.4244 18.6504 16.5Z" stroke="#323133" stroke-width="1.5"/>
</svg>
