<svg width="23" height="22" viewBox="0 0 23 22" fill="none" xmlns="http://www.w3.org/2000/svg">
<path d="M9.4139 1.75163C10.8481 1.75034 12.2504 2.17443 13.4435 2.97025C14.6366 3.7661 15.5669 4.89793 16.1166 6.22258C16.6664 7.54723 16.8109 9.00517 16.5319 10.412C16.2529 11.8188 15.5629 13.1112 14.5493 14.1258C13.5356 15.1404 12.2438 15.8316 10.8372 16.1118C9.43071 16.3921 7.97263 16.2489 6.64748 15.7004C5.32233 15.1518 4.18965 14.2226 3.39271 13.0302C2.5958 11.8378 2.17043 10.4359 2.17041 9.00175C2.17913 7.08273 2.94487 5.2447 4.30122 3.88711C5.65756 2.52953 7.49489 1.7621 9.4139 1.75163ZM9.41374 0.284961C7.68975 0.284961 6.00447 0.796185 4.57102 1.75398C3.13757 2.71178 2.02034 4.07314 1.36059 5.6659C0.700847 7.25867 0.528228 9.0113 0.864562 10.7022C1.2009 12.393 2.03108 13.9462 3.25013 15.1652C4.46917 16.3843 6.02234 17.2145 7.7132 17.5508C9.40407 17.8871 11.1567 17.7145 12.7495 17.0548C14.3422 16.395 15.7036 15.2778 16.6614 13.8443C17.6192 12.4109 18.1304 10.7256 18.1304 9.00163C18.1304 6.68982 17.212 4.47271 15.5774 2.83801C13.9427 1.20332 11.7255 0.284961 9.41374 0.284961Z" fill="#323133" stroke="#323133" stroke-width="0.1"/>
<path d="M20.8779 21.5039C20.9442 21.5707 21.0231 21.6238 21.1099 21.6602C21.1968 21.6965 21.29 21.7154 21.3841 21.7157C21.4783 21.7161 21.5716 21.6979 21.6587 21.6621C21.7458 21.6264 21.8251 21.5739 21.8919 21.5075C21.9587 21.4412 22.0118 21.3623 22.0482 21.2754C22.0845 21.1886 22.1034 21.0954 22.1037 21.0012C22.104 20.9071 22.0858 20.8138 22.0501 20.7266C22.0144 20.6395 21.9618 20.5603 21.8955 20.4935L21.8955 20.4935L16.9821 15.5468L16.9469 15.5113L16.9114 15.5466L15.9648 16.4866L15.9293 16.5218L15.9645 16.5573L20.8779 21.5039ZM20.8779 21.5039L20.9133 21.4687M20.8779 21.5039L20.8779 21.5039L20.9133 21.4687M20.9133 21.4687L16.0352 16.5575L16.0352 16.5575L16 16.522L16.0355 16.4868L16.0355 16.4868L16.9467 15.582L21.86 20.5287C21.9217 20.5909 21.9706 20.6646 22.0038 20.7456C22.0371 20.8267 22.054 20.9135 22.0537 21.0011C22.0534 21.0887 22.0358 21.1753 22.002 21.2561C21.9682 21.337 21.9188 21.4103 21.8567 21.472C21.7945 21.5338 21.7208 21.5826 21.6398 21.6159C21.5587 21.6491 21.4719 21.666 21.3843 21.6657C21.2967 21.6654 21.21 21.6479 21.1292 21.6141C21.0484 21.5803 20.9751 21.5309 20.9133 21.4687Z" fill="#323133" stroke="#323133" stroke-width="0.1"/>
</svg>
