<svg width="40" height="41" viewBox="0 0 40 41" fill="none" xmlns="http://www.w3.org/2000/svg">
<path d="M20 40.9961C31.0483 40.9961 40 32.0444 40 20.9961C40 9.94776 31.0483 0.996094 20 0.996094C8.95167 0.996094 0 9.94776 0 20.9961C0 32.0444 8.95167 40.9961 20 40.9961ZM9.15167 20.5628L28.435 13.1278C29.33 12.8044 30.1117 13.3461 29.8217 14.6994L29.8233 14.6978L26.54 30.1661C26.2967 31.2628 25.645 31.5294 24.7333 31.0128L19.7333 27.3278L17.3217 29.6511C17.055 29.9178 16.83 30.1428 16.3133 30.1428L16.6683 25.0544L25.935 16.6828C26.3383 16.3278 25.845 16.1278 25.3133 16.4811L13.8617 23.6911L8.925 22.1511C7.85333 21.8111 7.83 21.0794 9.15167 20.5628Z" fill="#323133"/>
</svg>
