<svg width="597" height="553" viewBox="0 0 597 553" fill="none" xmlns="http://www.w3.org/2000/svg">
<path d="M-343.398 16.117C-293.163 23.0445 -242.377 -8.46722 -193.182 2.44785C-153.829 11.1664 -129.306 44.0974 -92.8177 59.169C-29.7482 85.2232 52.2866 52.4104 114.168 80.3401C144.313 93.9417 163.385 119.438 187.293 139.9C241.198 186.01 318.82 205.914 393.07 223.926C411.505 228.403 430.279 232.999 446.105 241.92C461.93 250.842 474.956 264.95 475.953 280.9C476.695 292.93 470.756 304.555 470.48 316.636C469.907 344.143 497.613 365.264 518.572 386.519C550.373 419.096 618.344 435.12 589.08 499.421C559.815 563.722 390.91 470.074 264.91 514.279C147.802 591.441 -38.0146 526.653 -121.082 526.653C-297.992 526.653 -331.922 499.421 -331.922 499.421L-343.398 16.117Z" fill="#FCEDC0"/>
</svg>
