<svg width="829" height="553" viewBox="0 0 829 553" fill="none" xmlns="http://www.w3.org/2000/svg">
<path d="M-111.413 16.3787C-61.1781 23.3062 -10.3916 -8.2055 38.8038 2.70956C78.1559 11.4281 102.679 44.3591 139.168 59.4307C202.237 85.4849 284.272 52.6721 346.153 80.6019C376.299 94.2034 395.37 119.7 419.278 140.162C473.183 186.272 550.806 206.176 625.055 224.187C643.49 228.665 662.264 233.261 678.09 242.182C693.916 251.103 706.941 265.212 707.938 281.162C708.681 293.192 702.741 304.817 702.465 316.898C701.892 344.405 729.598 365.526 750.557 386.781C782.359 419.358 850.33 435.382 821.065 499.683C791.8 563.984 622.895 470.336 496.895 514.541C379.787 591.703 193.971 526.915 110.903 526.915C-66.0065 526.915 -99.9363 499.683 -99.9363 499.683L-111.413 16.3787Z" fill="#FCEDC0"/>
</svg>
