<svg width="195" height="424" viewBox="0 0 195 424" fill="none" xmlns="http://www.w3.org/2000/svg">
<path d="M824.41 -57.562C780.356 -51.3382 735.819 -79.6489 692.677 -69.8426C658.167 -62.0097 636.661 -32.424 604.663 -18.8834C549.354 4.52412 477.413 -24.9554 423.146 0.137108C396.71 12.357 379.985 35.2636 359.019 53.6466C311.747 95.0727 243.675 112.955 178.562 129.137C162.396 133.159 145.931 137.288 132.053 145.303C118.174 153.318 106.752 165.994 105.877 180.324C105.226 191.132 110.435 201.575 110.677 212.429C111.179 237.142 86.883 256.117 68.5024 275.214C40.6143 304.481 -18.9932 318.877 6.67078 376.646C32.3348 434.415 180.456 350.281 290.953 389.995C393.651 459.318 556.603 401.112 629.449 401.112C784.591 401.112 814.346 376.646 814.346 376.646L824.41 -57.562Z" fill="#FCEDC0"/>
</svg>
