<svg width="24" height="24" viewBox="0 0 24 24" fill="none" xmlns="http://www.w3.org/2000/svg">
<path fill-rule="evenodd" clip-rule="evenodd" d="M15.3346 3.45833V4.5H19.7096C19.8754 4.5 20.0344 4.56585 20.1516 4.68306C20.2688 4.80027 20.3346 4.95924 20.3346 5.125C20.3346 5.29076 20.2688 5.44973 20.1516 5.56694C20.0344 5.68415 19.8754 5.75 19.7096 5.75H4.29297C4.12721 5.75 3.96824 5.68415 3.85103 5.56694C3.73382 5.44973 3.66797 5.29076 3.66797 5.125C3.66797 4.95924 3.73382 4.80027 3.85103 4.68306C3.96824 4.56585 4.12721 4.5 4.29297 4.5H8.66797V3.45833C8.66797 2.65333 9.3213 2 10.1263 2H13.8763C14.6813 2 15.3346 2.65333 15.3346 3.45833ZM9.91797 3.45833C9.91797 3.40308 9.93992 3.35009 9.97899 3.31102C10.0181 3.27195 10.071 3.25 10.1263 3.25H13.8763C13.9316 3.25 13.9845 3.27195 14.0236 3.31102C14.0627 3.35009 14.0846 3.40308 14.0846 3.45833V4.5H9.91797V3.45833Z" fill="#9C614B"/>
<path d="M6.16564 7.14823C6.15851 7.06595 6.13515 6.98589 6.0969 6.91269C6.05865 6.83949 6.00627 6.7746 5.94279 6.72177C5.87931 6.66893 5.80599 6.6292 5.72707 6.60488C5.64814 6.58055 5.56517 6.57211 5.48297 6.58004C5.40076 6.58796 5.32093 6.61211 5.24811 6.65107C5.17529 6.69004 5.11091 6.74305 5.0587 6.80704C5.00649 6.87103 4.96748 6.94474 4.94393 7.0239C4.92037 7.10306 4.91274 7.1861 4.92147 7.26823L6.09814 19.4332C6.13333 19.7938 6.30148 20.1284 6.56983 20.3718C6.83818 20.6152 7.18752 20.75 7.5498 20.7499H16.4531C16.8156 20.7499 17.165 20.615 17.4334 20.3715C17.7017 20.1279 17.8698 19.7931 17.9048 19.4324L19.0823 7.26823C19.0982 7.10313 19.0479 6.93848 18.9424 6.81048C18.8369 6.68249 18.6849 6.60164 18.5198 6.58573C18.3547 6.56982 18.19 6.62014 18.0621 6.72563C17.9341 6.83112 17.8532 6.98313 17.8373 7.14823L16.6606 19.3116C16.6557 19.3631 16.6316 19.411 16.5933 19.4458C16.5549 19.4807 16.5049 19.4999 16.4531 19.4999H7.5498C7.49799 19.4999 7.44803 19.4807 7.40966 19.4458C7.37129 19.411 7.34728 19.3631 7.3423 19.3116L6.16564 7.14823Z" fill="#9C614B"/>
<path d="M9.67146 8.25052C9.75343 8.24567 9.83555 8.25702 9.91314 8.28393C9.99072 8.31084 10.0622 8.35277 10.1236 8.40733C10.185 8.46189 10.235 8.52801 10.2708 8.60191C10.3066 8.67581 10.3275 8.75604 10.3323 8.83802L10.749 15.9213C10.7587 16.087 10.7022 16.2497 10.5919 16.3737C10.4817 16.4977 10.3267 16.5729 10.161 16.5826C9.99539 16.5923 9.83266 16.5358 9.70865 16.4256C9.58464 16.3153 9.50951 16.1603 9.49979 15.9947L9.08312 8.91135C9.07827 8.82938 9.08963 8.74725 9.11653 8.66967C9.14344 8.59208 9.18537 8.52056 9.23993 8.45919C9.29449 8.39782 9.36061 8.3478 9.43451 8.312C9.50841 8.27619 9.58864 8.2553 9.67062 8.25052H9.67146ZM14.9156 8.91135C14.9253 8.7457 14.8689 8.58297 14.7586 8.45896C14.6484 8.33495 14.4934 8.25982 14.3277 8.2501C14.1621 8.24038 13.9993 8.29685 13.8753 8.40711C13.7513 8.51736 13.6762 8.67237 13.6665 8.83802L13.2498 15.9213C13.2401 16.0869 13.2965 16.2495 13.4067 16.3734C13.5169 16.4974 13.6718 16.5725 13.8373 16.5822C14.0028 16.5919 14.1655 16.5355 14.2894 16.4253C14.4133 16.3151 14.4884 16.1602 14.4981 15.9947L14.9148 8.91135H14.9156Z" fill="#9C614B"/>
</svg>
