<svg width="24" height="24" viewBox="0 0 24 24" fill="none" xmlns="http://www.w3.org/2000/svg">
<g clip-path="url(#clip0_1579_5691)">
<path fill-rule="evenodd" clip-rule="evenodd" d="M22.567 5.12558C22.6868 4.57386 22.7372 4.14698 22.3088 3.83647C22.5978 2.66532 23.3903 0.938752 21.1892 1.00064C20.1772 1.58251 20.4354 1.7703 19.8109 2.63358C19.5241 2.88802 19.0947 2.78857 18.8636 3.10596L13.4813 15.6955C12.6999 17.4999 11.8448 18.5668 12.2334 21.1514C11.3672 20.4108 10.9987 19.2867 9.56369 19.0884C7.78672 18.8434 7.51954 21.7332 5.98962 21.4513L5.08523 21.0218L5.04229 20.9355C5.85444 20.0892 8.68846 18.6975 7.6261 16.8095C7.34884 16.3176 6.95178 15.9161 6.37713 15.7352C4.59911 15.175 2.66629 17.1698 2.84653 18.7429C2.95256 19.6718 3.40846 20.1437 3.62157 20.8483C3.07077 21.072 1.77304 21.7475 1.51169 22.2659L1.46875 22.5669L1.72639 22.7843C2.12663 22.9261 3.91897 21.7195 4.22379 21.4523C4.74118 21.7512 5.17217 22.1739 5.86133 22.3114C7.86995 22.7124 8.23998 19.8755 9.47834 19.9485C10.774 20.0246 11.7404 22.3082 12.6649 22.9991C13.2088 22.9435 15.6431 21.0107 15.9373 20.5928L16.6265 18.8741C18.4784 14.5499 20.3299 10.2249 22.1811 5.89894H22.224C22.3389 6.04211 22.4537 6.18529 22.5686 6.32846C22.5193 7.3113 20.0579 10.3434 20.9326 11.742C21.0387 11.9192 21.1887 11.9678 21.406 11.9139L21.6647 11.6991C21.88 10.629 21.9022 9.70384 22.2675 8.8633L23.43 6.80031C23.6278 5.97088 23.0478 5.31654 22.567 5.12558ZM4.35366 20.3352C3.26851 18.4346 3.66981 17.4475 5.47275 16.554C6.36123 16.5281 6.71376 16.8281 6.97988 17.4136C6.96716 18.5033 5.24003 19.9083 4.43954 20.2495L4.35366 20.3352ZM14.2139 20.5928L13.2666 21.3661C13.238 20.9511 13.2091 20.5358 13.1802 20.1204L14.2139 20.5499V20.5928ZM15.1183 19.8194C14.2017 19.8062 13.7209 19.4232 13.1802 19.046C14.5871 15.7527 15.9937 12.4587 17.3999 9.16429L19.2946 10.0233L15.1183 19.8194ZM19.6821 9.16429L17.7445 8.38881L19.6821 3.79151L21.5338 4.56487C21.6324 5.30754 19.9503 8.1476 19.6821 9.16429ZM21.3615 3.32072L20.8017 3.15198C20.9169 2.83671 21.0318 2.52162 21.1463 2.2067L21.4045 2.03479L21.5767 2.12048C21.6685 2.18131 21.6796 2.21834 21.749 2.2924C21.6183 2.63446 21.4891 2.97724 21.3615 3.32072Z" fill="#9C614B"/>
</g>
<defs>
<clipPath id="clip0_1579_5691">
<rect width="22" height="22" fill="white" transform="translate(1.46875 1)"/>
</clipPath>
</defs>
</svg>
