<svg width="24" height="24" viewBox="0 0 24 24" fill="none" xmlns="http://www.w3.org/2000/svg">
<path d="M15.25 6.5C15.25 8.29493 13.7949 9.75 12 9.75C10.2051 9.75 8.75 8.29493 8.75 6.5C8.75 4.70507 10.2051 3.25 12 3.25C13.7949 3.25 15.25 4.70507 15.25 6.5Z" stroke="#9C614B" stroke-width="1.5"/>
<path d="M18.25 16.5C18.25 17.5756 17.6409 18.6202 16.5138 19.4252C15.3882 20.2293 13.7947 20.75 12 20.75C10.2053 20.75 8.61181 20.2293 7.48618 19.4252C6.35911 18.6202 5.75 17.5756 5.75 16.5C5.75 15.4244 6.35911 14.3798 7.48618 13.5748C8.61181 12.7707 10.2053 12.25 12 12.25C13.7947 12.25 15.3882 12.7707 16.5138 13.5748C17.6409 14.3798 18.25 15.4244 18.25 16.5Z" stroke="#9C614B" stroke-width="1.5"/>
</svg>
