<svg width="1440" height="620" viewBox="0 0 1440 620" fill="none" xmlns="http://www.w3.org/2000/svg">
<g clip-path="url(#clip0_2037_8769)">
<path fill-rule="evenodd" clip-rule="evenodd" d="M4.92614e-06 0.5H0.0357669C0.0357669 0.5 0.0356582 100.144 0.0356781 193.174C0.0356722 225.45 0.035677 259.143 0.0357029 289.678C0.0349054 292.667 0.0267811 295.728 0.0184847 298.854C0.000416364 305.662 -0.0184681 312.777 0.0357379 320.129C0.0357466 325.866 0.0357562 331.402 0.035767 336.695C0.0357735 339.83 0.0272246 343.046 0.0184848 346.333C-0.25272 448.337 -0.707794 619.5 248.585 619.5H4.92614e-06V0.5ZM248.585 619.5C323.183 619.5 375.354 602.458 428.943 584.954C475.969 569.593 524.086 553.876 589.408 549.005C692.254 541.337 806.604 561.187 912.643 579.595C1009.88 596.474 1100.12 612.141 1168.1 604.263C1310.21 587.795 1440 543.529 1440 527.061V619.5H248.585Z" fill="#FFFEFC"/>
<path fill-rule="evenodd" clip-rule="evenodd" d="M0.0356731 193.184C0.0356805 227.965 0.035706 261.821 0.0357618 289.199C0.0357622 289.359 0.0357405 289.518 0.0356978 289.678C0.0356719 259.146 0.0356671 225.456 0.0356731 193.184ZM1440 479.899C1440 496.396 1310.21 540.739 1168.1 557.236C1100.12 565.128 1009.88 549.434 912.643 532.525C806.604 514.085 692.254 494.2 589.408 501.882C524.086 506.761 475.969 522.506 428.943 537.894C375.354 555.429 323.183 572.5 248.585 572.5C15.9007 572.5 0.795158 423.123 0.0357329 320.129C0.0357415 325.866 0.0357512 331.402 0.035762 336.695C0.0357684 339.83 0.0272195 343.046 0.0184797 346.333C-0.252726 448.337 -0.707794 619.5 248.585 619.5C323.183 619.5 375.354 602.459 428.943 584.954C475.969 569.593 524.086 553.876 589.408 549.005C692.254 541.337 806.604 561.187 912.643 579.595C1009.88 596.474 1100.12 612.141 1168.1 604.263C1310.21 587.795 1440 543.529 1440 527.061V479.899Z" fill="#FCEDC0"/>
</g>
<defs>
<clipPath id="clip0_2037_8769">
<rect width="1440" height="619" fill="white" transform="translate(0 0.5)"/>
</clipPath>
</defs>
</svg>
