<svg width="60" height="60" viewBox="0 0 60 60" fill="none" xmlns="http://www.w3.org/2000/svg">
<path d="M30 60C13.4571 60 0 46.5429 0 30C0 13.4571 13.4571 0 30 0C46.5429 0 60 13.4571 60 30C60 46.5429 46.5429 60 30 60ZM30 5.00036C16.215 5.00036 5.00036 16.215 5.00036 30C5.00036 43.785 16.215 54.9996 30 54.9996C43.785 54.9996 54.9996 43.785 54.9996 30C54.9996 16.215 43.785 5.00036 30 5.00036ZM39.9999 37.5C39.3599 37.5 38.72 37.2552 38.2324 36.7676L30 28.5352L21.7676 36.7676C20.7899 37.7453 19.21 37.7453 18.2327 36.7676C17.255 35.7899 17.255 34.21 18.2327 33.2327L28.2326 23.2329C29.2103 22.2552 30.7902 22.2552 31.7674 23.2329L41.7673 33.2327C42.745 34.2104 42.745 35.7903 41.7673 36.7676C41.2797 37.2552 40.6398 37.5 39.9999 37.5ZM42.5001 20.0004H17.5005C16.1206 20.0004 15.0006 18.8804 15.0006 17.5005C15.0006 16.1206 16.1206 15.0006 17.5005 15.0006H42.5001C43.8825 15.0006 45 16.1206 45 17.5005C45 18.8804 43.8825 20.0004 42.5001 20.0004ZM29.9998 47.4996C28.6199 47.4996 27.4999 46.3821 27.4999 44.9998V24.9994C27.4999 23.6195 28.6199 22.4996 29.9998 22.4996C31.3797 22.4996 32.4996 23.6195 32.4996 24.9994V44.9998C32.4996 46.3821 31.3797 47.4996 29.9998 47.4996Z" fill="#9C614B"/>
</svg>
