<svg width="855" height="697" viewBox="0 0 855 697" fill="none" xmlns="http://www.w3.org/2000/svg">
<path d="M-32.4316 20.1766C14.9947 28.9178 62.9417 -10.8443 109.387 2.92855C146.539 13.9298 169.691 55.4827 204.139 74.5003C263.682 107.376 341.131 65.9723 399.552 101.215C428.012 118.377 446.017 150.549 468.589 176.368C519.48 234.551 592.763 259.666 662.86 282.393C680.265 288.043 697.99 293.842 712.931 305.099C727.871 316.356 740.169 334.159 741.11 354.285C741.811 369.465 736.203 384.133 735.943 399.377C735.402 434.086 761.559 460.737 781.346 487.557C811.369 528.663 875.54 548.883 847.912 630.019C820.283 711.155 660.821 592.988 541.866 648.767C431.306 746.131 255.878 664.381 177.455 664.381C10.4363 664.381 -21.5965 630.019 -21.5965 630.019L-32.4316 20.1766Z" fill="#FCEDC0"/>
</svg>
