<svg width="18" height="22" viewBox="0 0 18 22" fill="none" xmlns="http://www.w3.org/2000/svg">
<path d="M18 5.59926V19.8838C18 21.0506 17.0528 22 15.8886 22H6.25552C5.09133 22 4.14416 21.0506 4.14416 19.8838V10.5957C4.44533 10.6459 4.75257 10.6785 5.06787 10.6785C5.29147 10.6785 5.51093 10.6618 5.72769 10.6361V19.8838C5.72769 20.1754 5.96442 20.4128 6.25552 20.4128H15.8886C16.1796 20.4128 16.4164 20.1754 16.4164 19.8838V5.59926C16.4164 5.30749 16.1796 5.07022 15.8886 5.07022H10.6633C10.6633 4.51845 10.5806 3.98665 10.4323 3.48309H15.8886C17.0528 3.48304 18 4.43239 18 5.59926ZM4.9797 9.98218C2.23381 9.98218 0 7.74324 0 4.99116C4.36043e-05 2.23895 2.23381 0 4.9797 0C7.72551 0 9.9594 2.23895 9.9594 4.99116C9.9594 7.74324 7.72551 9.98218 4.9797 9.98218ZM4.9797 8.92405C7.14326 8.92405 8.90361 7.15996 8.90361 4.99116C8.90361 2.82223 7.14352 1.05813 4.9797 1.05813C2.81579 1.05813 1.0557 2.82223 1.0557 4.99116C1.0557 7.15996 2.81606 8.92405 4.9797 8.92405ZM7.96621 5.52025C8.25757 5.52025 8.49404 5.28324 8.49404 4.9912C8.49404 4.69917 8.25757 4.46216 7.96621 4.46216H5.50753V2.38531C5.50753 2.09328 5.27107 1.85627 4.9797 1.85627C4.68834 1.85627 4.45187 2.09328 4.45187 2.38531V4.9912C4.45187 5.28324 4.68834 5.52025 4.9797 5.52025H7.96621ZM14.0584 9.80977H8.34016C8.04879 9.80977 7.81233 10.0468 7.81233 10.3388C7.81233 10.6309 8.04879 10.8679 8.34016 10.8679H14.0584C14.3499 10.8679 14.5863 10.6308 14.5863 10.3388C14.5863 10.0468 14.3499 9.80977 14.0584 9.80977ZM14.0677 13.019H8.34945C8.05808 13.019 7.82161 13.2558 7.82161 13.548C7.82161 13.8402 8.05808 14.077 8.34945 14.077H14.0677C14.3592 14.077 14.5955 13.8402 14.5955 13.548C14.5955 13.2558 14.3595 13.019 14.0677 13.019ZM14.0677 16.361H8.34945C8.05808 16.361 7.82161 16.5981 7.82161 16.89C7.82161 17.1822 8.05808 17.419 8.34945 17.419H14.0677C14.3592 17.419 14.5955 17.1821 14.5955 16.89C14.5955 16.5981 14.3595 16.361 14.0677 16.361Z" fill="#9C614B"/>
</svg>
