<svg width="24" height="24" viewBox="0 0 24 24" fill="none" xmlns="http://www.w3.org/2000/svg">
<path d="M12 2.75C7.85786 2.75 4.5 6.33172 4.5 10.75V11.0774C4.5 12.763 4.99882 14.396 5.91223 15.75H5.90625L5.9278 15.773C6.11448 16.0476 6.31828 16.3107 6.5385 16.5603C6.87035 16.9364 12 21.25 12 21.25C12.7486 20.8433 16.8506 17.2526 17.4615 16.5603C17.6841 16.3081 17.8897 16.0421 18.0781 15.7643L18.0938 15.75H18.0878C19.0012 14.396 19.5 12.763 19.5 11.0774V10.75C19.5 6.33172 16.1422 2.75 12 2.75Z" stroke="#9C614B" stroke-width="1.5" stroke-linejoin="round"/>
<path d="M15.25 11C15.25 9.20507 13.7949 7.75 12 7.75C10.2051 7.75 8.75 9.20507 8.75 11C8.75 12.7949 10.2051 14.25 12 14.25C13.7949 14.25 15.25 12.7949 15.25 11Z" stroke="#9C614B" stroke-width="1.5"/>
</svg>
