<svg width="24" height="24" viewBox="0 0 24 24" fill="none" xmlns="http://www.w3.org/2000/svg">
<g clip-path="url(#clip0_2584_5565)">
<path d="M11.93 20.5299C9.60003 20.5299 7.27003 20.1599 5.06003 19.4199C4.22003 19.1299 3.58003 18.5399 3.30003 17.7699C3.01003 16.9999 3.11003 16.1499 3.57003 15.3899L4.72003 13.4799C4.96003 13.0799 5.18003 12.2799 5.18003 11.8099V8.91992C5.18003 5.19992 8.21003 2.16992 11.93 2.16992C15.65 2.16992 18.68 5.19992 18.68 8.91992V11.8099C18.68 12.2699 18.9 13.0799 19.14 13.4899L20.28 15.3899C20.71 16.1099 20.79 16.9799 20.5 17.7699C20.21 18.5599 19.58 19.1599 18.79 19.4199C16.59 20.1599 14.26 20.5299 11.93 20.5299ZM11.93 3.66992C9.04003 3.66992 6.68003 6.01992 6.68003 8.91992V11.8099C6.68003 12.5399 6.38003 13.6199 6.01003 14.2499L4.86003 16.1599C4.64003 16.5299 4.58003 16.9199 4.71003 17.2499C4.83003 17.5899 5.13003 17.8499 5.54003 17.9899C9.72003 19.3899 14.15 19.3899 18.33 17.9899C18.69 17.8699 18.97 17.5999 19.1 17.2399C19.23 16.8799 19.2 16.4899 19 16.1599L17.85 14.2499C17.47 13.5999 17.18 12.5299 17.18 11.7999V8.91992C17.18 6.01992 14.83 3.66992 11.93 3.66992Z" fill="#9C614B"/>
<path d="M13.7908 3.93969C13.7208 3.93969 13.6508 3.92969 13.5808 3.90969C13.2908 3.82969 13.0108 3.76969 12.7408 3.72969C11.8908 3.61969 11.0708 3.67969 10.3008 3.90969C10.0208 3.99969 9.72076 3.90969 9.53076 3.69969C9.34076 3.48969 9.28076 3.18969 9.39076 2.91969C9.80076 1.86969 10.8008 1.17969 11.9408 1.17969C13.0808 1.17969 14.0808 1.85969 14.4908 2.91969C14.5908 3.18969 14.5408 3.48969 14.3508 3.69969C14.2008 3.85969 13.9908 3.93969 13.7908 3.93969Z" fill="#9C614B"/>
<path d="M11.9297 22.8096C10.9397 22.8096 9.97969 22.4096 9.27969 21.7096C8.57969 21.0096 8.17969 20.0496 8.17969 19.0596H9.67969C9.67969 19.6496 9.91969 20.2296 10.3397 20.6496C10.7597 21.0696 11.3397 21.3096 11.9297 21.3096C13.1697 21.3096 14.1797 20.2996 14.1797 19.0596H15.6797C15.6797 21.1296 13.9997 22.8096 11.9297 22.8096Z" fill="#9C614B"/>
</g>
<defs>
<clipPath id="clip0_2584_5565">
<rect width="24" height="24" fill="white"/>
</clipPath>
</defs>
</svg>
