<svg width="24" height="24" viewBox="0 0 24 24" fill="none" xmlns="http://www.w3.org/2000/svg">
<path d="M3.5 6.75C3.5 6.28587 3.67911 5.84075 3.99792 5.51256C4.31673 5.18437 4.74913 5 5.2 5H18.8C19.2509 5 19.6833 5.18437 20.0021 5.51256C20.3209 5.84075 20.5 6.28587 20.5 6.75V17.25C20.5 17.7141 20.3209 18.1592 20.0021 18.4874C19.6833 18.8156 19.2509 19 18.8 19H5.2C4.74913 19 4.31673 18.8156 3.99792 18.4874C3.67911 18.1592 3.5 17.7141 3.5 17.25V6.75Z" stroke="#9C614B" stroke-width="1.5" stroke-linecap="round" stroke-linejoin="round"/>
<path d="M4.35156 5.875L9.74311 10.8082C10.3655 11.3778 11.1693 11.6924 12.002 11.6924C12.8347 11.6924 13.6385 11.3778 14.2609 10.8082L19.6516 5.875" stroke="#9C614B" stroke-width="1.5" stroke-linejoin="round"/>
<path d="M10.0185 8.5C8.92329 8.5 8.03516 9.36982 8.03516 10.443C8.03516 11.3093 8.38224 13.3653 11.7987 15.4437C11.8599 15.4805 11.9302 15.5 12.0018 15.5C12.0735 15.5 12.1437 15.4805 12.2049 15.4437C15.6214 13.3653 15.9685 11.3093 15.9685 10.443C15.9685 9.36982 15.0804 8.5 13.9852 8.5C12.89 8.5 12.0018 9.67756 12.0018 9.67756C12.0018 9.67756 11.1137 8.5 10.0185 8.5Z" fill="#F9F9F9" stroke="#9C614B" stroke-linecap="round" stroke-linejoin="round"/>
</svg>
