<svg width="33" height="32" viewBox="0 0 33 32" fill="none" xmlns="http://www.w3.org/2000/svg">
<rect x="0.203125" width="32" height="32" rx="16" fill="#E0B004"/>
<path d="M23.5878 15.3846H16.8187V8.61538C16.8187 8.45217 16.7539 8.29565 16.6385 8.18024C16.5231 8.06484 16.3665 8 16.2033 8C16.0401 8 15.8836 8.06484 15.7682 8.18024C15.6528 8.29565 15.588 8.45217 15.588 8.61538V15.3846H8.8189C8.65569 15.3846 8.49917 15.4495 8.38377 15.5649C8.26836 15.6803 8.20353 15.8368 8.20353 16C8.20049 16.08 8.21463 16.1597 8.245 16.2337C8.27537 16.3078 8.32126 16.3745 8.37957 16.4293C8.43789 16.4841 8.50727 16.5258 8.58306 16.5515C8.65884 16.5772 8.73926 16.5864 8.8189 16.5785H15.588V23.3846C15.588 23.5478 15.6528 23.7044 15.7682 23.8198C15.8836 23.9352 16.0401 24 16.2033 24C16.3665 24 16.5231 23.9352 16.6385 23.8198C16.7539 23.7044 16.8187 23.5478 16.8187 23.3846V16.6154H23.5878C23.751 16.6154 23.9075 16.5506 24.0229 16.4351C24.1383 16.3197 24.2031 16.1632 24.2031 16C24.2031 15.8368 24.1383 15.6803 24.0229 15.5649C23.9075 15.4495 23.751 15.3846 23.5878 15.3846Z" fill="#323133"/>
</svg>
