<svg width="25" height="25" viewBox="0 0 25 25" fill="none" xmlns="http://www.w3.org/2000/svg">
<path d="M9.71289 18.5586C10.5413 18.5586 11.2129 19.2302 11.2129 20.0586C11.2129 20.887 10.5413 21.5586 9.71289 21.5586C8.88446 21.5586 8.21289 20.887 8.21289 20.0586C8.21289 19.2302 8.88446 18.5586 9.71289 18.5586Z" stroke="#9C614B" stroke-width="1.6"/>
<path d="M16.7129 18.5586C17.5413 18.5586 18.2129 19.2302 18.2129 20.0586C18.2129 20.887 17.5413 21.5586 16.7129 21.5586C15.8845 21.5586 15.2129 20.887 15.2129 20.0586C15.2129 19.2302 15.8845 18.5586 16.7129 18.5586Z" stroke="#9C614B" stroke-width="1.5"/>
<path d="M6.46289 12.5586C6.46289 11.1232 6.46448 10.1221 6.56604 9.36671C6.66469 8.63293 6.84514 8.24436 7.1219 7.9676C7.39866 7.69084 7.78723 7.51039 8.52101 7.41174C9.27636 7.31018 10.2775 7.30859 11.7129 7.30859H14.6301C16.297 7.30859 17.4666 7.31038 18.3359 7.43376C19.1844 7.55419 19.6083 7.7737 19.8883 8.10425C20.1683 8.43479 20.3152 8.88903 20.2945 9.74578C20.2733 10.6235 20.0827 11.7775 19.8087 13.4217C19.606 14.6379 19.464 15.4814 19.2758 16.1137C19.0936 16.7258 18.8923 17.0497 18.6259 17.2754C18.3594 17.5011 18.0069 17.6464 17.3731 17.7255C16.7185 17.8072 15.8632 17.8086 14.6301 17.8086H11.7129C10.2775 17.8086 9.27636 17.807 8.52101 17.7055C7.78723 17.6068 7.39866 17.4264 7.1219 17.1496C6.84514 16.8728 6.66469 16.4843 6.56604 15.7505C6.46448 14.9951 6.46289 13.994 6.46289 12.5586Z" stroke="#9C614B" stroke-width="1.5"/>
<path d="M6.46289 12.0586V5.55859C6.46289 4.45402 5.56746 3.55859 4.46289 3.55859H3.21289" stroke="#9C614B" stroke-width="1.5" stroke-linecap="round"/>
</svg>
