<svg width="24" height="24" viewBox="0 0 24 24" fill="none" xmlns="http://www.w3.org/2000/svg">
<path d="M3.375 5.25V6.375L4.5 22.875H13.5L14.625 6.375V5.25H3.375Z" fill="#FAE8D8"/>
<path d="M14.3437 10.5L13.8834 17.25H4.11656L3.65625 10.5H14.3437Z" fill="#93573D"/>
<path d="M4.125 1.125H13.875C14.0739 1.125 14.2647 1.20402 14.4053 1.34467C14.546 1.48532 14.625 1.67609 14.625 1.875V4.5H3.375V1.875C3.375 1.67609 3.45402 1.48532 3.59467 1.34467C3.73532 1.20402 3.92609 1.125 4.125 1.125Z" fill="#93573D"/>
<path d="M3.375 4.125H14.625C14.8239 4.125 15.0147 4.20402 15.1553 4.34467C15.296 4.48532 15.375 4.67609 15.375 4.875V6.375H2.625V4.875C2.625 4.67609 2.70402 4.48532 2.84467 4.34467C2.98532 4.20402 3.17609 4.125 3.375 4.125Z" fill="#794832"/>
<path d="M4.28589 18.4094L4.125 18.375L4.28589 18.4094Z" fill="#F5CBAA"/>
<path d="M5.625 10.5H4.125C3.50368 10.5 3 11.0037 3 11.625C3 12.2463 3.50368 12.75 4.125 12.75H5.625C6.24632 12.75 6.75 12.2463 6.75 11.625C6.75 11.0037 6.24632 10.5 5.625 10.5Z" fill="#F5CBAA"/>
<path d="M5.625 12.75H4.125C3.50368 12.75 3 13.2537 3 13.875C3 14.4963 3.50368 15 4.125 15H5.625C6.24632 15 6.75 14.4963 6.75 13.875C6.75 13.2537 6.24632 12.75 5.625 12.75Z" fill="#F5CBAA"/>
<path d="M5.625 15H4.125C3.50368 15 3 15.5037 3 16.125C3 16.7463 3.50368 17.25 4.125 17.25H5.625C6.24632 17.25 6.75 16.7463 6.75 16.125C6.75 15.5037 6.24632 15 5.625 15Z" fill="#F5CBAA"/>
<path d="M4.875 17.25H4.125C3.50368 17.25 3 17.7537 3 18.375C3 18.9963 3.50368 19.5 4.125 19.5H4.875C5.49632 19.5 6 18.9963 6 18.375C6 17.7537 5.49632 17.25 4.875 17.25Z" fill="#F5CBAA"/>
<path d="M5.625 13.125H4.125C4.02554 13.125 3.93016 13.0855 3.85983 13.0152C3.78951 12.9448 3.75 12.8495 3.75 12.75C3.75 12.6505 3.78951 12.5552 3.85983 12.4848C3.93016 12.4145 4.02554 12.375 4.125 12.375H5.625C5.72446 12.375 5.81984 12.4145 5.89016 12.4848C5.96049 12.5552 6 12.6505 6 12.75C6 12.8495 5.96049 12.9448 5.89016 13.0152C5.81984 13.0855 5.72446 13.125 5.625 13.125Z" fill="#DEB89A"/>
<path d="M5.625 15.375H4.125C4.02554 15.375 3.93016 15.3355 3.85983 15.2652C3.78951 15.1948 3.75 15.0995 3.75 15C3.75 14.9005 3.78951 14.8052 3.85983 14.7348C3.93016 14.6645 4.02554 14.625 4.125 14.625H5.625C5.72446 14.625 5.81984 14.6645 5.89016 14.7348C5.96049 14.8052 6 14.9005 6 15C6 15.0995 5.96049 15.1948 5.89016 15.2652C5.81984 15.3355 5.72446 15.375 5.625 15.375Z" fill="#DEB89A"/>
<path d="M5.25 17.625H4.125C4.02554 17.625 3.93016 17.5855 3.85984 17.5152C3.78951 17.4448 3.75 17.3495 3.75 17.25C3.75 17.1505 3.78951 17.0552 3.85984 16.9848C3.93016 16.9145 4.02554 16.875 4.125 16.875H5.25C5.34946 16.875 5.44484 16.9145 5.51517 16.9848C5.58549 17.0552 5.625 17.1505 5.625 17.25C5.625 17.3495 5.58549 17.4448 5.51517 17.5152C5.44484 17.5855 5.34946 17.625 5.25 17.625Z" fill="#DEB89A"/>
<path d="M21 14.0625V20.4375C21 20.4872 20.9802 20.5349 20.9451 20.5701C20.9099 20.6052 20.8622 20.625 20.8125 20.625H19.1769C19.143 20.625 19.1096 20.6342 19.0805 20.6517L17.8936 21.3638C17.691 21.4854 17.4652 21.5631 17.2306 21.5918C16.9961 21.6205 16.7582 21.5997 16.5322 21.5306L13.7942 20.6938C13.7537 20.6814 13.7186 20.6557 13.6946 20.6208C13.6706 20.5859 13.6591 20.5439 13.662 20.5016L13.897 17.0511L14.122 13.7529C14.1248 13.7116 14.1139 13.6706 14.091 13.6361L12.8058 11.7083C12.7886 11.6827 12.7654 11.6616 12.7382 11.6471C12.7109 11.6325 12.6805 11.625 12.6496 11.625H10.6875C10.3394 11.625 10.0056 11.4867 9.75942 11.2406C9.51328 10.9944 9.375 10.6606 9.375 10.3125C9.375 9.9644 9.51328 9.63056 9.75942 9.38442C10.0056 9.13828 10.3394 9 10.6875 9H13.091C13.1134 9.00002 13.1356 9.00407 13.1566 9.01195L14.4128 9.48328L14.4578 9.50016L16.0764 10.1069C16.108 10.1187 16.1359 10.1389 16.157 10.1653L19.0687 13.8047C19.0863 13.8266 19.1086 13.8443 19.1339 13.8565C19.1593 13.8687 19.187 13.875 19.2151 13.875H20.8125C20.8622 13.875 20.9099 13.8948 20.9451 13.9299C20.9802 13.9651 21 14.0128 21 14.0625Z" fill="#F5CBAA"/>
</svg>
