<svg width="32" height="32" viewBox="0 0 32 32" fill="none" xmlns="http://www.w3.org/2000/svg">
<g clip-path="url(#clip0_2134_7043)">
<path d="M27.5525 16.947C27.3884 15.2666 27.0219 11.5104 26.8196 9.4375H27.6697C28.1874 9.4375 28.6072 9.01775 28.6072 8.5C28.6072 7.98225 28.1874 7.5625 27.6697 7.5625H26.6112C26.1719 5.39725 24.2673 3.8125 22.0186 3.8125C21.5469 3.8125 18.6391 3.8125 17.875 3.8125C17.3573 3.8125 16.9375 4.23225 16.9375 4.75C16.9375 5.26775 17.3573 5.6875 17.875 5.6875H20.7743L22.0503 18.8125H13.125V13.1875H14.0625C14.5802 13.1875 15 12.7677 15 12.25C15 11.7323 14.5802 11.3125 14.0625 11.3125C12.0517 11.3125 11.5723 11.3125 9.375 11.3125V4.75C9.375 4.23225 8.95525 3.8125 8.4375 3.8125H0.9375C0.41975 3.8125 0 4.23225 0 4.75V12.25C0 12.7677 0.41975 13.1875 0.9375 13.1875L2.70738 13.1869C2.39406 13.5186 2.09431 13.8923 1.8115 14.3054C0.677187 15.962 0 17.9974 0 19.75V23.5C0 24.0177 0.41975 24.4375 0.9375 24.4375H2.19619C2.97925 26.6499 5.09863 28.1875 7.5 28.1875C9.90137 28.1875 12.0207 26.6499 12.8038 24.4375H19.1338C19.9168 26.6499 22.0362 28.1875 24.4376 28.1875C26.8389 28.1875 28.9583 26.6499 29.7414 24.4375H31.0625C31.5802 24.4375 32 24.0177 32 23.5V21.625C32 19.1026 29.9709 17.0989 27.5525 16.947ZM1.875 11.3125V5.6875H3.75V6.625C3.75 7.14275 4.16975 7.5625 4.6875 7.5625C5.20525 7.5625 5.625 7.14275 5.625 6.625V5.6875H7.5V11.3125C6.6335 11.3125 2.55944 11.3125 1.875 11.3125ZM7.5 26.3125C6.13619 26.3125 4.90931 25.5682 4.25287 24.4369H10.7472C10.0907 25.5682 8.86381 26.3125 7.5 26.3125ZM24.4375 26.3125C23.0737 26.3125 21.8468 25.5682 21.1904 24.4369H27.6847C27.0282 25.5682 25.8013 26.3125 24.4375 26.3125ZM30.125 22.5625C17.253 22.5625 14.8197 22.5625 1.875 22.5625V19.75C1.875 16.9452 4.1925 13.1875 6.5625 13.1875H11.25V19.75C11.25 20.2677 11.6698 20.6875 12.1875 20.6875H23.0833C23.6369 20.6875 24.0699 20.2098 24.0164 19.6593L22.6653 5.76225C23.7989 6.02863 24.6771 6.98088 24.8132 8.18363C24.8321 8.37669 25.7266 17.5417 25.7681 17.9663C25.8151 18.4464 26.2188 18.8125 26.7012 18.8125H27.25C28.8084 18.8125 30.125 20.1004 30.125 21.625V22.5625Z" fill="#7D7B7B"/>
</g>
<defs>
<clipPath id="clip0_2134_7043">
<rect width="32" height="32" fill="white"/>
</clipPath>
</defs>
</svg>
