<svg width="32" height="32" viewBox="0 0 32 32" fill="none" xmlns="http://www.w3.org/2000/svg">
<path d="M5.5 2.1H18.5C18.6061 2.1 18.7078 2.14214 18.7828 2.21716C18.8579 2.29217 18.9 2.39391 18.9 2.5V5.4H5.1V2.5C5.1 2.39391 5.14214 2.29217 5.21716 2.21716C5.29217 2.14214 5.39391 2.1 5.5 2.1Z" fill="#7D7B7B" stroke="#7D7B7B" stroke-width="1.2"/>
<path d="M4.6 7.4V6.6H19.4V7.4H4.6Z" stroke="#7D7B7B" stroke-width="2.2"/>
<mask id="path-3-inside-1_2134_6930" fill="white">
<path d="M5.71187 24.5444L5.5 24.5L5.71187 24.5444Z"/>
</mask>
<path d="M5.91687 23.5656L5.705 23.5212L5.295 25.4788L5.50688 25.5231L5.91687 23.5656Z" fill="#7D7B7B" mask="url(#path-3-inside-1_2134_6930)"/>
<path d="M5.5 14.5H7.5C8.05229 14.5 8.5 14.9477 8.5 15.5C8.5 16.0523 8.05229 16.5 7.5 16.5H5.5C4.94772 16.5 4.5 16.0523 4.5 15.5C4.5 14.9477 4.94772 14.5 5.5 14.5Z" stroke="#7D7B7B"/>
<path d="M5.5 17.5H7.5C8.05228 17.5 8.5 17.9477 8.5 18.5C8.5 19.0523 8.05228 19.5 7.5 19.5H5.5C4.94772 19.5 4.5 19.0523 4.5 18.5C4.5 17.9477 4.94772 17.5 5.5 17.5Z" stroke="#7D7B7B"/>
<path d="M5.5 20.5H7.5C8.05228 20.5 8.5 20.9477 8.5 21.5C8.5 22.0523 8.05228 22.5 7.5 22.5H5.5C4.94772 22.5 4.5 22.0523 4.5 21.5C4.5 20.9477 4.94772 20.5 5.5 20.5Z" stroke="#7D7B7B"/>
<path d="M5.5 23.5H6.5C7.05228 23.5 7.5 23.9477 7.5 24.5C7.5 25.0523 7.05228 25.5 6.5 25.5H5.5C4.94772 25.5 4.5 25.0523 4.5 24.5C4.5 23.9477 4.94772 23.5 5.5 23.5Z" stroke="#7D7B7B"/>
<path d="M7.5 17.5H5.5C5.36739 17.5 5.24021 17.4473 5.14645 17.3536C5.05268 17.2598 5 17.1326 5 17C5 16.8674 5.05268 16.7402 5.14645 16.6464C5.24021 16.5527 5.36739 16.5 5.5 16.5H7.5C7.63261 16.5 7.75979 16.5527 7.85355 16.6464C7.94732 16.7402 8 16.8674 8 17C8 17.1326 7.94732 17.2598 7.85355 17.3536C7.75979 17.4473 7.63261 17.5 7.5 17.5Z" fill="white"/>
<mask id="path-10-inside-2_2134_6930" fill="white">
<path d="M28 18.75V27.25C28 27.3163 27.9737 27.3799 27.9268 27.4268C27.8799 27.4737 27.8163 27.5 27.75 27.5H25.5693C25.5239 27.5 25.4795 27.5123 25.4406 27.5356L23.8582 28.4851C23.588 28.6472 23.2869 28.7508 22.9742 28.7891C22.6615 28.8274 22.3442 28.7996 22.0429 28.7075L18.3923 27.5917C18.3383 27.5752 18.2915 27.5409 18.2595 27.4944C18.2274 27.4479 18.2121 27.3918 18.216 27.3355L18.5294 22.7348L18.8294 18.3372C18.8331 18.2822 18.8186 18.2274 18.788 18.1815L17.0744 15.6111C17.0515 15.5769 17.0205 15.5488 16.9842 15.5295C16.9479 15.5101 16.9074 15.4999 16.8662 15.5H14.25C13.7859 15.5 13.3408 15.3156 13.0126 14.9874C12.6844 14.6592 12.5 14.2141 12.5 13.75C12.5 13.2859 12.6844 12.8408 13.0126 12.5126C13.3408 12.1844 13.7859 12 14.25 12H17.4546C17.4845 12 17.5142 12.0054 17.5421 12.0159L19.2171 12.6444L19.2771 12.6669L21.4352 13.4758C21.4774 13.4916 21.5145 13.5186 21.5426 13.5538L25.425 18.4062C25.4484 18.4355 25.4781 18.4591 25.5119 18.4754C25.5457 18.4916 25.5827 18.5 25.6202 18.5H27.75C27.8163 18.5 27.8799 18.5263 27.9268 18.5732C27.9737 18.6201 28 18.6837 28 18.75Z"/>
</mask>
<path d="M25.5693 27.5L25.5692 28.9H25.5693V27.5ZM25.4406 27.5356L24.7203 26.3351L24.7203 26.3351L25.4406 27.5356ZM23.8582 28.4851L24.5785 29.6856L24.5785 29.6856L23.8582 28.4851ZM22.0429 28.7075L22.4521 27.3686L22.4521 27.3686L22.0429 28.7075ZM18.3923 27.5917L17.983 28.9306L17.9831 28.9306L18.3923 27.5917ZM18.216 27.3355L19.6127 27.4317L19.6128 27.4306L18.216 27.3355ZM18.5294 22.7348L17.1326 22.6395L17.1326 22.6397L18.5294 22.7348ZM18.8294 18.3372L20.2261 18.4325L20.2262 18.432L18.8294 18.3372ZM18.788 18.1815L19.9534 17.4058L19.9529 17.4049L18.788 18.1815ZM17.0744 15.6111L18.2392 14.8345L18.2385 14.8334L17.0744 15.6111ZM16.8662 15.5V16.9L16.8679 16.9L16.8662 15.5ZM12.5 13.75H13.9H12.5ZM17.4546 12L17.4557 10.6H17.4546V12ZM17.5421 12.0159L17.0495 13.3264L17.0503 13.3267L17.5421 12.0159ZM19.2171 12.6444L18.7253 13.9552L18.7255 13.9552L19.2171 12.6444ZM19.2771 12.6669L18.7855 13.9777L18.7857 13.9778L19.2771 12.6669ZM21.4352 13.4758L21.9269 12.165L21.9266 12.1649L21.4352 13.4758ZM21.5426 13.5538L20.4492 14.4281L20.4495 14.4284L21.5426 13.5538ZM25.425 18.4062L24.3318 19.2809L24.3321 19.2812L25.425 18.4062ZM25.6202 18.5V17.1H25.62L25.6202 18.5ZM26.6 18.75V27.25H29.4V18.75H26.6ZM26.6 27.25C26.6 26.945 26.7212 26.6525 26.9368 26.4368L28.9167 28.4167C29.2262 28.1073 29.4 27.6876 29.4 27.25H26.6ZM26.9368 26.4368C27.1525 26.2212 27.445 26.1 27.75 26.1V28.9C28.1876 28.9 28.6073 28.7262 28.9167 28.4167L26.9368 26.4368ZM27.75 26.1H25.5693V28.9H27.75V26.1ZM25.5693 26.1C25.2702 26.1 24.9768 26.1813 24.7203 26.3351L26.1609 28.7361C25.9822 28.8434 25.7777 28.9 25.5692 28.9L25.5693 26.1ZM24.7203 26.3351L23.1379 27.2846L24.5785 29.6856L26.1609 28.7361L24.7203 26.3351ZM23.1379 27.2846C23.0358 27.3459 22.9221 27.385 22.8039 27.3995L23.1444 30.1787C23.6517 30.1165 24.1402 29.9486 24.5785 29.6856L23.1379 27.2846ZM22.8039 27.3995C22.6858 27.4139 22.566 27.4034 22.4521 27.3686L21.6337 30.0464C22.1225 30.1957 22.6371 30.2408 23.1444 30.1787L22.8039 27.3995ZM22.4521 27.3686L18.8015 26.2529L17.9831 28.9306L21.6337 30.0464L22.4521 27.3686ZM18.8017 26.2529C19.0501 26.3289 19.2655 26.4867 19.4128 26.7008L17.1061 28.288C17.3174 28.5951 17.6265 28.8216 17.983 28.9306L18.8017 26.2529ZM19.4128 26.7008C19.5601 26.9149 19.6305 27.1725 19.6127 27.4317L16.8193 27.2393C16.7937 27.6112 16.8948 27.9808 17.1061 28.288L19.4128 26.7008ZM19.6128 27.4306L19.9261 22.83L17.1326 22.6397L16.8192 27.2404L19.6128 27.4306ZM19.9261 22.8301L20.2261 18.4325L17.4326 18.2419L17.1326 22.6395L19.9261 22.8301ZM20.2262 18.432C20.2508 18.0692 20.1549 17.7085 19.9534 17.4058L17.6226 18.9572C17.4822 18.7464 17.4154 18.4951 17.4326 18.2424L20.2262 18.432ZM19.9529 17.4049L18.2392 14.8345L15.9095 16.3877L17.6231 18.9581L19.9529 17.4049ZM18.2385 14.8334C18.0876 14.6075 17.8832 14.4223 17.6435 14.2944L16.325 16.7645C16.1579 16.6753 16.0155 16.5463 15.9103 16.3888L18.2385 14.8334ZM17.6435 14.2944C17.4038 14.1664 17.1362 14.0997 16.8645 14.1L16.8679 16.9C16.6785 16.9002 16.492 16.8537 16.325 16.7645L17.6435 14.2944ZM16.8662 14.1H14.25V16.9H16.8662V14.1ZM14.25 14.1C14.1572 14.1 14.0681 14.0631 14.0025 13.9975L12.0226 15.9774C12.6134 16.5681 13.4146 16.9 14.25 16.9V14.1ZM14.0025 13.9975C13.9369 13.9319 13.9 13.8428 13.9 13.75H11.1C11.1 14.5854 11.4319 15.3866 12.0226 15.9774L14.0025 13.9975ZM13.9 13.75C13.9 13.6572 13.9369 13.5681 14.0025 13.5025L12.0226 11.5226C11.4319 12.1134 11.1 12.9146 11.1 13.75H13.9ZM14.0025 13.5025C14.0681 13.4369 14.1572 13.4 14.25 13.4V10.6C13.4146 10.6 12.6134 10.9319 12.0226 11.5226L14.0025 13.5025ZM14.25 13.4H17.4546V10.6H14.25V13.4ZM17.4535 13.4C17.3155 13.3999 17.1787 13.375 17.0495 13.3264L18.0347 10.7055C17.8496 10.6359 17.6535 10.6002 17.4557 10.6L17.4535 13.4ZM17.0503 13.3267L18.7253 13.9552L19.7089 11.3336L18.0339 10.7052L17.0503 13.3267ZM18.7255 13.9552L18.7855 13.9777L19.7687 11.356L19.7087 11.3335L18.7255 13.9552ZM18.7857 13.9778L20.9438 14.7867L21.9266 12.1649L19.7685 11.3559L18.7857 13.9778ZM20.9434 14.7866C20.7494 14.7138 20.5787 14.5899 20.4492 14.4281L22.636 12.6794C22.4503 12.4472 22.2053 12.2695 21.9269 12.165L20.9434 14.7866ZM20.4495 14.4284L24.3318 19.2809L26.5182 17.5316L22.6358 12.6791L20.4495 14.4284ZM24.3321 19.2812C24.4868 19.4744 24.6828 19.6302 24.9058 19.7373L26.1181 17.2134C26.2735 17.288 26.4101 17.3966 26.5179 17.5312L24.3321 19.2812ZM24.9058 19.7373C25.1288 19.8444 25.373 19.9 25.6204 19.9L25.62 17.1C25.7924 17.1 25.9627 17.1387 26.1181 17.2134L24.9058 19.7373ZM25.6202 19.9H27.75V17.1H25.6202V19.9ZM27.75 19.9C27.445 19.9 27.1525 19.7788 26.9368 19.5632L28.9167 17.5833C28.6073 17.2738 28.1876 17.1 27.75 17.1V19.9ZM26.9368 19.5632C26.7212 19.3475 26.6 19.055 26.6 18.75H29.4C29.4 18.3124 29.2262 17.8927 28.9167 17.5833L26.9368 19.5632Z" fill="#7D7B7B" mask="url(#path-10-inside-2_2134_6930)"/>
<path d="M6.6539 29.8L5.2 8.47616V7.7H18.8V8.47616L17.3461 29.8H6.6539Z" fill="#F9F9F9" stroke="#7D7B7B" stroke-width="1.4"/>
<path d="M6.14264 22.3L5.62436 14.7H18.3756L17.8574 22.3H6.14264Z" fill="#F9F9F9" stroke="#7D7B7B" stroke-width="1.4"/>
</svg>
