<svg width="32" height="32" viewBox="0 0 32 32" fill="none" xmlns="http://www.w3.org/2000/svg">
<path d="M27.5525 16.947C27.3884 15.2666 27.0219 11.5104 26.8196 9.4375H27.6697C28.1874 9.4375 28.6072 9.01775 28.6072 8.5C28.6072 7.98225 28.1874 7.5625 27.6697 7.5625H26.6112C26.1719 5.39725 24.2673 3.8125 22.0186 3.8125C21.5469 3.8125 18.6391 3.8125 17.875 3.8125C17.3573 3.8125 16.9375 4.23225 16.9375 4.75C16.9375 5.26775 17.3573 5.6875 17.875 5.6875H20.7743L22.0503 18.8125H13.125V13.1875H14.0625C14.5802 13.1875 15 12.7677 15 12.25C15 11.7323 14.5802 11.3125 14.0625 11.3125C12.0517 11.3125 11.5723 11.3125 9.375 11.3125V4.75C9.375 4.23225 8.95525 3.8125 8.4375 3.8125H0.9375C0.41975 3.8125 0 4.23225 0 4.75V12.25C0 12.7677 0.41975 13.1875 0.9375 13.1875L2.70738 13.1869C2.39406 13.5186 2.09431 13.8923 1.8115 14.3054C0.677187 15.962 0 17.9974 0 19.75V23.5C0 24.0177 0.41975 24.4375 0.9375 24.4375H2.19619C2.97925 26.6499 5.09863 28.1875 7.5 28.1875C9.90137 28.1875 12.0207 26.6499 12.8038 24.4375H19.1338C19.9168 26.6499 22.0362 28.1875 24.4376 28.1875C26.8389 28.1875 28.9583 26.6499 29.7414 24.4375H31.0625C31.5802 24.4375 32 24.0177 32 23.5V21.625C32 19.1026 29.9709 17.0989 27.5525 16.947ZM1.875 11.3125V5.6875H3.75V6.625C3.75 7.14275 4.16975 7.5625 4.6875 7.5625C5.20525 7.5625 5.625 7.14275 5.625 6.625V5.6875H7.5V11.3125C6.6335 11.3125 2.55944 11.3125 1.875 11.3125ZM7.5 26.3125C6.13619 26.3125 4.90931 25.5682 4.25287 24.4369H10.7472C10.0907 25.5682 8.86381 26.3125 7.5 26.3125ZM24.4375 26.3125C23.0737 26.3125 21.8468 25.5682 21.1904 24.4369H27.6847C27.0282 25.5682 25.8013 26.3125 24.4375 26.3125ZM30.125 22.5625C17.253 22.5625 14.8197 22.5625 1.875 22.5625V19.75C1.875 16.9452 4.1925 13.1875 6.5625 13.1875H11.25V19.75C11.25 20.2677 11.6698 20.6875 12.1875 20.6875H23.0833C23.6369 20.6875 24.0699 20.2098 24.0164 19.6593L22.6653 5.76225C23.7989 6.02863 24.6771 6.98088 24.8132 8.18363C24.8321 8.37669 25.7266 17.5417 25.7681 17.9663C25.8151 18.4464 26.2188 18.8125 26.7012 18.8125H27.25C28.8084 18.8125 30.125 20.1004 30.125 21.625V22.5625Z" fill="#997665"/>
<path d="M27.8588 24.4385H20.9648C20.9648 24.4385 22.1131 26.4103 24.4925 26.4569C26.8719 26.5036 27.8588 24.4385 27.8588 24.4385Z" fill="#E0B004"/>
<path d="M10.8823 24.4033H3.98828C3.98828 24.4033 5.13651 26.3751 7.51594 26.4218C9.89538 26.4684 10.8823 24.4033 10.8823 24.4033Z" fill="#E0B004"/>
<path d="M24.7266 12.3966C24.7266 13.2451 24.7266 14.0935 24.7266 14.942C24.7266 15.1495 24.7867 16.3376 24.6732 15.467C24.585 14.7912 24.6094 14.0226 24.4151 13.3667C24.2065 12.6629 23.997 11.922 23.9389 11.1863C23.8432 9.97415 23.9256 8.72732 23.9256 7.51066C23.9256 7.27926 23.9256 7.04787 23.9256 6.81647C23.9256 6.55743 24.004 7.60959 23.7476 7.57295C23.4698 7.53327 23 6.90519 23 7.18581C23 7.3332 23.171 7.5242 23.2136 7.66195C23.3135 7.98526 23.3274 8.34286 23.3649 8.67652C23.4606 9.52821 23.4185 10.3856 23.534 11.2352C23.6713 12.2452 24.0278 13.1899 24.2104 14.1855C24.4047 15.2454 24.805 16.2914 25.2872 17.2559C25.4302 17.5418 25.6877 17.7967 25.6877 18.1281C25.6877 18.4603 25.6877 18.7926 25.6877 19.1248" stroke="#997665" stroke-width="3" stroke-linecap="round"/>
<path d="M24.9375 16.7363V20.226" stroke="#997665" stroke-width="3" stroke-linecap="round"/>
<path d="M26.9101 19.0352C26.8377 19.3973 26.6817 20.1204 26.9375 20.4402C27.1013 20.6449 27.3204 20.4323 27.4712 20.3672C27.6971 20.2698 28.022 20.1893 28.1965 20.0023C28.409 19.7746 28.0328 19.3462 27.8589 19.2359C27.6785 19.1214 27.3062 19.0465 27.1929 19.3043C26.9406 19.8792 27.1587 20.4413 27.7175 20.7002C28.2412 20.9429 28.7889 21.0058 29.3552 21.0058C29.563 21.0058 29.762 20.988 29.8706 21.202C30.0128 21.4819 29.8361 21.8842 29.5559 21.9957C29.2186 22.1299 28.6565 22.022 28.306 21.9729C27.7288 21.8921 27.2055 21.521 26.6273 21.4985C26.0151 21.4746 25.3972 21.4985 24.7844 21.4985C23.6221 21.4985 22.4604 21.5396 21.2993 21.5396C20.8279 21.5396 20.3565 21.5396 19.8852 21.5396C19.5411 21.5396 19.1871 21.5186 18.8451 21.5669C18.5011 21.6156 18.2287 21.7601 17.9191 21.8999C17.7171 21.9911 17.5095 21.9889 17.2941 22.0185C16.9947 22.0597 16.6988 22.1289 16.4001 22.1759C15.5884 22.3037 14.8098 22.3607 13.9869 22.3607C13.1018 22.3607 12.217 22.3637 11.3321 22.3401C10.9452 22.3298 10.5326 22.3504 10.1506 22.274C9.8113 22.2061 10.205 22.0981 10.3125 22.0687C11.4814 21.749 12.7281 21.8269 13.9276 21.8269C14.5744 21.8269 15.2234 21.7017 15.8641 21.6171C16.1235 21.5828 16.3891 21.5399 16.6395 21.462C16.8707 21.3901 16.4869 21.4164 16.4845 21.4164C15.1171 21.4164 13.7542 21.5396 12.3858 21.5396C11.6632 21.5396 10.9338 21.5511 10.2145 21.4711C9.79723 21.4248 9.39127 21.3111 8.97368 21.2704C8.70129 21.2439 7.524 21.3411 7.46834 20.9329C7.36667 20.1873 8.29441 19.8961 8.78209 19.5826C9.02154 19.4287 9.33615 19.2627 9.37055 18.9531C9.46666 18.0881 9.37967 17.1679 9.37967 16.2982C9.37967 16.1659 9.47128 15.9344 9.57126 16.1887C9.72347 16.5759 9.76676 17.0112 9.84952 17.4158C9.97126 18.011 10.1196 18.5963 10.1985 19.1994C10.2606 19.6743 10.4882 20.1096 10.4882 20.5907C10.4882 21.4225 10.4882 18.9272 10.4882 18.0955C10.4882 16.7027 10.4882 15.3099 10.4882 13.917C10.4882 13.6463 10.5278 13.3369 10.479 13.0686C10.4511 12.9148 10.2533 12.9682 10.146 12.9887C9.52127 13.1082 8.93078 13.42 8.36242 13.6912C8.0488 13.8409 7.37045 14.0296 7.47974 14.5032C7.58737 14.9696 8.05635 15.2357 8.45822 15.4155C8.80764 15.5719 9.25085 15.7448 9.64197 15.6619C10.2102 15.5413 9.57514 14.9719 9.34546 14.8476C8.72036 14.5093 7.98883 14.3477 7.29043 14.25C6.84286 14.1875 6.43505 14.1896 6.00861 14.3504C5.51393 14.5368 4.55165 14.8509 4.43255 15.4634C4.27942 16.251 5.29912 15.7341 5.5935 15.5501C5.73959 15.4588 6.41566 15.0571 5.92878 14.8978C5.37581 14.7168 4.67299 15.0771 4.27061 15.4338C3.91994 15.7446 3.9347 16.1743 4.04481 16.6016C4.23064 17.3226 4.67824 17.9824 5.26049 18.4445C5.78888 18.8638 6.32743 18.947 6.95059 18.6999C7.59936 18.4427 8.391 17.9335 8.80946 17.3656C9.17697 16.8669 8.76146 16.5033 8.23469 16.4898C7.61922 16.474 6.70529 16.6868 6.27318 17.1695C5.7711 17.7303 5.94836 18.8825 6.87076 18.725C7.23005 18.6637 7.56886 18.359 7.66449 18.0043C7.78275 17.5656 7.25805 17.4257 6.93918 17.3656C5.89209 17.1684 5.244 17.9907 4.74047 18.8026C4.29371 19.5229 4.15108 20.3562 4.25693 21.1974C4.31135 21.63 5.80036 20.96 5.98124 20.7413C6.18392 20.4962 5.89657 20.0412 5.75315 19.8654C5.319 19.3332 4.66932 18.9085 4.0106 18.7159C3.63098 18.6049 3.21976 18.6158 2.85194 18.7615C2.60967 18.8575 2.15241 19.066 2.09927 19.3636C2.0463 19.6603 2.38813 19.608 2.55543 19.537C2.90437 19.389 3.16966 19.1159 3.25793 18.7433C3.35839 18.3191 3.38842 17.5812 3.21003 17.1649C3.12087 16.9569 2.90841 16.9779 2.72421 17.044C2.35674 17.176 2.22964 17.5069 2.17453 17.8697C2.0169 18.9075 2.5212 19.8183 2.86334 20.7618C3.00704 21.158 3.08722 21.578 3.19863 21.9843C3.2824 22.2899 3.18741 22.3947 3.54531 22.331C4.13114 22.2267 4.66363 21.8935 5.24681 21.754C5.557 21.6797 5.8577 21.6627 6.17511 21.6627C6.68093 21.6627 7.05933 21.8267 7.5322 21.9912" stroke="#997665" stroke-width="3" stroke-linecap="round"/>
<rect x="1.875" y="5.63965" width="5.68281" height="5.67287" fill="#E2A4A4"/>
</svg>
