<svg width="74" height="91" viewBox="0 0 74 91" fill="none" xmlns="http://www.w3.org/2000/svg">
<path d="M25.4219 43.9816H46.7885L73.5009 0H52.1343L25.4219 43.9816Z" fill="#56311F"/>
<path d="M38.7966 21.9873L28.1133 39.5814L30.7862 43.9781H46.807L49.4799 39.5814L38.7966 21.9873Z" fill="#2F2F2F"/>
<path d="M48.5093 54.6045H27.1427V43.9827H48.5093V54.6045ZM48.5093 39.4365H27.1427C25.7249 39.4365 24.3652 39.9162 23.3626 40.7701C22.3601 41.624 21.7969 42.7822 21.7969 43.9898V54.6045C21.7969 55.8121 22.3601 56.9703 23.3626 57.8242C24.3652 58.6781 25.7249 59.1578 27.1427 59.1578H48.5093C51.4579 59.1578 53.8468 57.1231 53.8468 54.6045V43.9827C53.8468 41.4713 51.4579 39.4365 48.5093 39.4365Z" fill="#F2C48F"/>
<path d="M64.5147 68.2481C64.5147 80.8123 52.5534 91.0002 37.8023 91.0002C23.0511 91.0002 11.0898 80.8194 11.0898 68.2481C11.0898 55.6769 23.0511 45.4961 37.8023 45.4961C52.5618 45.4961 64.5147 55.684 64.5147 68.2481Z" fill="#F2C48F"/>
<path d="M19.9136 62.7142C19.5627 62.7142 19.2119 62.6573 18.8778 62.5292C17.5915 62.0597 16.9734 60.7862 17.4745 59.6835C17.4829 59.6692 17.4912 59.6479 17.4912 59.6337C17.4996 59.5981 17.5079 59.6052 17.5246 59.5767C19.8885 54.7816 24.8417 51.2386 30.789 50.0647C31.0813 50.0078 31.3904 50.1287 31.524 50.3635C31.6577 50.5983 31.5825 50.8829 31.3403 51.0465C27.4395 53.686 24.3239 57.2432 22.3359 61.3411C22.3359 61.3482 22.3275 61.3554 22.3275 61.3554C22.3275 61.3554 22.3275 61.3625 22.3192 61.3625C22.0435 61.9103 21.534 62.3372 20.8825 62.5506C20.5734 62.6644 20.2393 62.7142 19.9136 62.7142Z" fill="white"/>
<path d="M48.5791 43.9816H27.2041L0.5 0H21.8666L48.5791 43.9816Z" fill="#56311F"/>
</svg>
