<svg width="41" height="41" viewBox="0 0 41 41" fill="none" xmlns="http://www.w3.org/2000/svg">
<g clip-path="url(#clip0_1333_2928)">
<path d="M24.4297 20.9961C24.4297 23.1104 22.7158 24.8242 20.6016 24.8242C18.4873 24.8242 16.7734 23.1104 16.7734 20.9961C16.7734 18.8818 18.4873 17.168 20.6016 17.168C22.7158 17.168 24.4297 18.8818 24.4297 20.9961Z" fill="#323133"/>
<path d="M29.5544 14.223C29.3704 13.7243 29.0768 13.2729 28.6954 12.9025C28.3249 12.521 27.8738 12.2274 27.3749 12.0434C26.9702 11.8862 26.3623 11.6992 25.2426 11.6482C24.0314 11.593 23.6682 11.5811 20.6018 11.5811C17.5351 11.5811 17.1719 11.5927 15.961 11.6479C14.8413 11.6992 14.2331 11.8862 13.8287 12.0434C13.3298 12.2274 12.8784 12.521 12.5082 12.9025C12.1268 13.2729 11.8332 13.724 11.6489 14.223C11.4917 14.6276 11.3046 15.2358 11.2537 16.3555C11.1984 17.5665 11.1865 17.9296 11.1865 20.9963C11.1865 24.0627 11.1984 24.4259 11.2537 25.6371C11.3046 26.7568 11.4917 27.3647 11.6489 27.7694C11.8332 28.2684 12.1265 28.7194 12.5079 29.0899C12.8784 29.4714 13.3295 29.765 13.8284 29.949C14.2331 30.1064 14.8413 30.2935 15.961 30.3445C17.1719 30.3997 17.5348 30.4113 20.6015 30.4113C23.6685 30.4113 24.0317 30.3997 25.2423 30.3445C26.362 30.2935 26.9702 30.1064 27.3749 29.949C28.3765 29.5626 29.1681 28.771 29.5544 27.7694C29.7116 27.3647 29.8987 26.7568 29.95 25.6371C30.0052 24.4259 30.0168 24.0627 30.0168 20.9963C30.0168 17.9296 30.0052 17.5665 29.95 16.3555C29.899 15.2358 29.7119 14.6276 29.5544 14.223ZM20.6018 26.8932C17.3447 26.8932 14.7043 24.2532 14.7043 20.996C14.7043 17.7389 17.3447 15.0988 20.6018 15.0988C23.8586 15.0988 26.499 17.7389 26.499 20.996C26.499 24.2532 23.8586 26.8932 20.6018 26.8932ZM26.7322 16.2438C25.9711 16.2438 25.354 15.6268 25.354 14.8657C25.354 14.1046 25.9711 13.4875 26.7322 13.4875C27.4933 13.4875 28.1104 14.1046 28.1104 14.8657C28.11 15.6268 27.4933 16.2438 26.7322 16.2438Z" fill="#323133"/>
<path d="M20.6016 0.996094C9.55756 0.996094 0.601562 9.95209 0.601562 20.9961C0.601562 32.0401 9.55756 40.9961 20.6016 40.9961C31.6456 40.9961 40.6016 32.0401 40.6016 20.9961C40.6016 9.95209 31.6456 0.996094 20.6016 0.996094ZM32.0167 25.7309C31.9611 26.9534 31.7667 27.7881 31.4829 28.5187C30.8863 30.0613 29.6668 31.2808 28.1241 31.8774C27.3939 32.1613 26.5589 32.3553 25.3367 32.4112C24.112 32.467 23.7208 32.4805 20.6019 32.4805C17.4827 32.4805 17.0917 32.467 15.8668 32.4112C14.6445 32.3553 13.8096 32.1613 13.0793 31.8774C12.3127 31.5891 11.6187 31.1371 11.045 30.5527C10.4609 29.9792 10.0089 29.285 9.72052 28.5187C9.43671 27.7884 9.24231 26.9534 9.18677 25.7312C9.13031 24.5062 9.11719 24.115 9.11719 20.9961C9.11719 17.8772 9.13031 17.486 9.18646 16.2613C9.242 15.0388 9.4361 14.2041 9.71991 13.4735C10.0083 12.7072 10.4606 12.0129 11.045 11.4395C11.6184 10.8551 12.3127 10.4031 13.079 10.1147C13.8096 9.83093 14.6442 9.63684 15.8668 9.58099C17.0914 9.52515 17.4827 9.51172 20.6016 9.51172C23.7205 9.51172 24.1117 9.52515 25.3364 9.5813C26.5589 9.63684 27.3936 9.83093 28.1241 10.1144C28.8904 10.4028 29.5847 10.8551 30.1584 11.4395C30.7426 12.0132 31.1948 12.7072 31.4829 13.4735C31.767 14.2041 31.9611 15.0388 32.017 16.2613C32.0728 17.486 32.0859 17.8772 32.0859 20.9961C32.0859 24.115 32.0728 24.5062 32.0167 25.7309Z" fill="#323133"/>
</g>
<defs>
<clipPath id="clip0_1333_2928">
<rect width="40" height="40" fill="white" transform="translate(0.601562 0.996094)"/>
</clipPath>
</defs>
</svg>
