<svg width="20" height="19" viewBox="0 0 20 19" fill="none" xmlns="http://www.w3.org/2000/svg">
<path d="M9.1164 1.66277C9.4924 0.954858 10.5068 0.954858 10.8828 1.66277L12.8388 5.34562C12.9833 5.61777 13.2453 5.80807 13.5488 5.86144L17.6558 6.58368C18.4453 6.7225 18.7587 7.68721 18.2016 8.26354L15.3035 11.2619C15.0893 11.4834 14.9893 11.7914 15.0323 12.0965L15.6146 16.2257C15.7265 17.0194 14.9058 17.6156 14.1856 17.2639L10.4384 15.4342C10.1615 15.2989 9.8377 15.2989 9.5608 15.4342L5.81363 17.2639C5.09335 17.6156 4.27272 17.0194 4.38464 16.2257L4.9669 12.0965C5.00993 11.7914 4.90988 11.4834 4.69572 11.2619L1.79757 8.26354C1.24049 7.68721 1.55395 6.7225 2.3434 6.58368L6.45044 5.86144C6.75393 5.80807 7.01587 5.61776 7.16041 5.34562L9.1164 1.66277Z" fill="#E0B004" stroke="#E0B004" stroke-width="1.5"/>
</svg>
