<svg width="156" height="171" viewBox="0 0 156 171" fill="none" xmlns="http://www.w3.org/2000/svg">
<path opacity="0.5" d="M68.2396 100.475C67.1602 96.4704 64.6038 92.3525 60.5135 90.9041C56.2528 89.3706 51.424 90.4782 47.7597 92.9489C43.3854 95.9025 39.9483 100.588 37.3067 105.104C36.7386 106.098 36.4262 107.262 36.2841 108.483C36.1137 109.165 36.0285 109.847 36.0001 110.528C35.858 115.101 39.5506 119.247 43.2433 121.49C47.7596 124.245 52.1909 123.62 56.9629 122.058C61.3372 120.638 64.8878 117.656 66.8761 113.482C67.7851 111.607 68.5236 109.563 68.8361 107.518C69.2338 105.132 68.8645 102.775 68.2396 100.475ZM65.4843 110.954C63.9789 114.646 61.5077 117.458 57.8719 119.162C53.952 121.008 49.5776 122.03 45.4873 120.212C43.6694 119.389 41.7947 118.026 40.3744 116.322C40.346 116.237 40.3176 116.151 40.2324 116.095C40.1756 116.038 40.1188 116.009 40.0904 115.953C39.011 114.561 38.2156 112.971 38.0168 111.323C37.5055 107.12 40.6868 102.917 43.3285 99.9636C44.7487 98.3732 46.0554 96.6976 47.7597 95.3913C49.0379 94.4257 50.4014 93.6873 51.8216 93.0057C53.7247 92.3241 55.7414 92.0685 57.815 92.3525C61.9053 92.9205 64.7174 96.3 65.882 100.134C66.3932 101.781 66.8478 103.741 66.8478 105.501C66.8478 107.347 66.166 109.222 65.4843 110.954Z" fill="#E0B004"/>
<path opacity="0.5" d="M57.8431 97.0102C57.8431 96.925 57.6727 96.925 57.6727 97.0102C57.3603 99.197 57.4454 101.583 55.4003 102.917C53.838 103.94 51.9917 104.394 50.4011 105.36C49.1513 106.098 47.7026 107.12 46.9357 108.398C47.0493 107.887 47.1913 107.376 47.4185 106.922C48.3559 105.047 50.0033 103.996 51.8497 103.088C54.1221 101.98 56.8774 100.589 57.2182 97.8054C57.2466 97.6066 56.9057 97.5214 56.8205 97.6918C55.0594 101.725 49.4353 102.292 46.8788 105.757C45.913 107.035 45.5438 108.54 45.345 110.131C45.1178 112.005 45.7711 112.857 47.1913 113.936C47.5038 114.192 47.8162 113.681 47.6174 113.425C47.6458 113.397 47.6458 113.368 47.6742 113.34C47.8731 112.63 47.9015 112.034 47.8447 111.295C47.7026 109.194 48.4979 108.313 50.0886 107.149C51.6224 106.041 53.412 105.36 55.1163 104.508C56.3661 103.883 57.3603 103.116 57.9568 101.81C58.6385 100.219 58.0704 98.5722 57.8431 97.0102Z" fill="#E0B004"/>
<path opacity="0.5" d="M57.7599 96.7266C57.7311 96.7266 57.7311 96.7554 57.7599 96.7554C57.7888 96.7554 57.7888 96.7266 57.7599 96.7266Z" fill="#E0B004"/>
<path opacity="0.5" d="M65.0871 105.247C64.6894 107.064 64.2634 109.109 63.184 110.671C62.1898 112.12 60.4571 113.625 59.0652 114.647C57.7586 115.613 56.3668 116.436 54.8614 117.146C53.3843 117.828 51.822 117.657 50.3166 118.169C50.1177 118.225 50.1461 118.509 50.3734 118.509C51.9924 118.509 53.4979 118.595 55.0318 117.998C56.9633 117.232 58.7528 116.181 60.4287 114.96C61.7069 114.022 63.2123 112.574 64.0361 111.211C65.0587 109.478 65.3143 107.32 65.5415 105.361C65.5699 105.048 65.1439 104.991 65.0871 105.247Z" fill="#E0B004"/>
<path opacity="0.5" d="M21.559 158.136C21.7425 159.353 22.1927 160.537 22.7097 161.637C23.8769 164.088 25.9781 165.839 28.5294 166.673C31.3309 167.589 33.9323 167.956 36.5837 166.339C38.7516 165.022 40.9194 162.588 40.836 159.903C40.8194 159.503 40.7693 159.103 40.6693 158.703C40.5859 158.003 40.4024 157.303 40.0689 156.719C38.5181 154.068 36.5004 151.317 33.9323 149.583C31.7812 148.133 28.9463 147.499 26.445 148.383C24.0437 149.25 22.5429 151.651 21.9259 154.001C21.559 155.352 21.3422 156.736 21.559 158.136ZM22.743 156.936C22.743 155.902 23.0265 154.752 23.31 153.785C23.977 151.551 25.6279 149.567 28.0458 149.216C29.2632 149.05 30.4471 149.2 31.5644 149.6C32.3982 150 33.2153 150.434 33.949 151C34.9495 151.767 35.7166 152.751 36.5504 153.685C38.1179 155.419 39.9689 157.886 39.6687 160.354C39.552 161.337 39.1017 162.254 38.4514 163.071C38.418 163.105 38.3847 163.121 38.368 163.155C38.318 163.188 38.2847 163.238 38.2847 163.288C37.4509 164.288 36.3503 165.089 35.283 165.572C32.8817 166.656 30.3137 166.039 28.0125 164.955C25.878 163.955 24.4272 162.304 23.5434 160.137C23.1265 159.137 22.743 158.053 22.743 156.936Z" fill="#C3B486"/>
<path opacity="0.5" d="M28.0307 151.968C28.0307 151.918 28.1308 151.918 28.1308 151.968C28.3142 153.252 28.2642 154.652 29.4649 155.436C30.382 156.036 31.4659 156.303 32.3998 156.87C33.1335 157.303 33.984 157.904 34.4342 158.654C34.3675 158.354 34.2841 158.054 34.1507 157.787C33.6004 156.686 32.6332 156.07 31.5493 155.536C30.2153 154.886 28.5977 154.069 28.3976 152.435C28.3809 152.318 28.5811 152.268 28.6311 152.368C29.665 154.736 32.9667 155.069 34.4675 157.103C35.0178 157.854 35.2513 158.737 35.368 159.671C35.5014 160.771 35.1179 161.271 34.2841 161.905C34.1006 162.055 33.9172 161.755 34.034 161.605C34.0173 161.588 34.0173 161.572 34.0006 161.555C33.8839 161.138 33.8672 160.788 33.9006 160.354C33.984 159.121 33.517 158.604 32.5832 157.92C31.6827 157.27 30.6322 156.87 29.6316 156.37C28.8979 156.003 28.3143 155.553 27.9641 154.786C27.5639 153.852 27.8973 152.885 28.0307 151.968Z" fill="#C3B486"/>
<path opacity="0.5" d="M28.0793 151.802C28.0966 151.802 28.0966 151.819 28.0793 151.819C28.0621 151.819 28.0621 151.802 28.0793 151.802Z" fill="#C3B486"/>
<path opacity="0.5" d="M23.7754 156.803C24.0089 157.87 24.259 159.07 24.8927 159.987C25.4764 160.837 26.4935 161.721 27.3106 162.321C28.0777 162.888 28.8948 163.371 29.7786 163.788C30.6458 164.188 31.5629 164.088 32.4467 164.388C32.5635 164.422 32.5468 164.589 32.4134 164.589C31.4629 164.589 30.5791 164.639 29.6786 164.288C28.5447 163.838 27.4941 163.221 26.5102 162.504C25.7598 161.954 24.876 161.104 24.3924 160.304C23.7921 159.287 23.642 158.02 23.5086 156.869C23.4919 156.686 23.7421 156.652 23.7754 156.803Z" fill="#C3B486"/>
<path opacity="0.5" d="M124.08 58.312C124.381 60.3115 125.121 62.2562 125.97 64.0639C127.888 68.0903 131.34 70.9662 135.531 72.3357C140.134 73.8422 144.407 74.4447 148.763 71.7879C152.324 69.6241 155.886 65.6252 155.749 61.2154C155.721 60.558 155.639 59.9007 155.475 59.2433C155.338 58.0929 155.036 56.9425 154.489 55.9839C151.941 51.6289 148.626 47.1095 144.407 44.261C140.873 41.8781 136.216 40.8372 132.107 42.3163C128.162 43.7406 125.696 47.6847 124.655 51.5467C124.08 53.7653 123.724 56.0113 124.08 58.312ZM126.025 56.34C126.025 54.6418 126.491 52.7518 126.956 51.1632C128.052 47.493 130.764 44.2336 134.737 43.6584C136.737 43.3845 138.682 43.631 140.517 44.2884C141.887 44.9457 143.229 45.6578 144.435 46.5891C146.078 47.849 147.338 49.4651 148.708 50.9989C151.283 53.8474 154.324 57.9012 153.831 61.9549C153.639 63.5709 152.9 65.0774 151.831 66.4195C151.776 66.4742 151.722 66.5016 151.694 66.5564C151.612 66.6112 151.557 66.6934 151.557 66.7755C150.188 68.4189 148.379 69.7337 146.626 70.528C142.681 72.3083 138.462 71.2949 134.682 69.5145C131.175 67.8711 128.792 65.1595 127.34 61.5988C126.655 59.9554 126.025 58.1751 126.025 56.34Z" fill="#C3B486"/>
<path opacity="0.5" d="M134.708 48.1778C134.708 48.0957 134.872 48.0957 134.872 48.1778C135.174 50.2869 135.091 52.5876 137.064 53.875C138.571 54.861 140.351 55.2992 141.885 56.2305C143.091 56.9426 144.488 57.9287 145.228 59.1612C145.118 58.6682 144.981 58.1752 144.762 57.737C143.858 55.9292 142.269 54.9158 140.488 54.0393C138.297 52.9711 135.639 51.629 135.311 48.9448C135.283 48.753 135.612 48.6709 135.694 48.8352C137.393 52.7246 142.817 53.2724 145.282 56.614C146.186 57.8465 146.57 59.2982 146.762 60.832C146.981 62.6398 146.351 63.4615 144.981 64.5023C144.68 64.7488 144.378 64.2558 144.57 64.0092C144.543 63.9819 144.543 63.9545 144.515 63.9271C144.324 63.2423 144.296 62.6671 144.351 61.955C144.488 59.9281 143.721 59.0791 142.187 57.9561C140.707 56.8879 138.982 56.2305 137.338 55.4088C136.132 54.8062 135.174 54.0667 134.598 52.8068C133.941 51.2729 134.489 49.6843 134.708 48.1778Z" fill="#C3B486"/>
<path opacity="0.5" d="M134.79 47.9033C134.818 47.9033 134.818 47.9311 134.79 47.9311C134.763 47.9311 134.763 47.9033 134.79 47.9033Z" fill="#C3B486"/>
<path opacity="0.5" d="M127.725 56.1211C128.108 57.874 128.519 59.8461 129.56 61.3525C130.519 62.7494 132.19 64.2011 133.533 65.1871C134.793 66.1184 136.135 66.9127 137.587 67.5974C139.012 68.2548 140.518 68.0905 141.97 68.5835C142.162 68.6383 142.135 68.9122 141.915 68.9122C140.354 68.9122 138.902 68.9943 137.423 68.4191C135.56 67.6796 133.834 66.6662 132.218 65.4884C130.985 64.5846 129.533 63.1877 128.738 61.8729C127.752 60.2022 127.506 58.1205 127.286 56.2306C127.259 55.9293 127.67 55.8746 127.725 56.1211Z" fill="#C3B486"/>
<path opacity="0.5" d="M0.287926 109.096C0.417715 109.957 0.736286 110.795 1.10205 111.574C1.92798 113.308 3.41465 114.546 5.2199 115.136C7.20213 115.785 9.04278 116.044 10.9188 114.9C12.4527 113.968 13.9866 112.246 13.9276 110.347C13.9158 110.064 13.8804 109.78 13.8096 109.497C13.7506 109.002 13.6208 108.506 13.3848 108.093C12.2875 106.218 10.8598 104.271 9.04278 103.044C7.52071 102.018 5.51487 101.57 3.74503 102.207C2.04597 102.82 0.984065 104.519 0.535704 106.182C0.287925 107.126 0.134539 108.105 0.287926 109.096ZM1.11385 108.247C1.11385 107.515 1.31443 106.701 1.51502 106.017C1.98698 104.436 3.15508 103.033 4.86593 102.785C5.72726 102.667 6.56499 102.773 7.35552 103.056C7.94547 103.339 8.52362 103.646 9.04278 104.047C9.75072 104.59 10.2935 105.286 10.8834 105.946C11.9925 107.173 13.3022 108.919 13.0898 110.665C13.0072 111.361 12.6887 112.01 12.2285 112.588C12.2049 112.612 12.1813 112.623 12.1695 112.647C12.1341 112.671 12.1105 112.706 12.1105 112.741C11.5206 113.449 10.7418 114.015 9.98669 114.358C8.28764 115.124 6.47059 114.688 4.84233 113.921C3.33206 113.213 2.30555 112.045 1.6802 110.512C1.39703 109.804 1.11385 109.037 1.11385 108.247Z" fill="#C3B486"/>
<path opacity="0.5" d="M4.86566 104.732C4.86566 104.696 4.93646 104.696 4.93646 104.732C5.06625 105.64 5.03085 106.631 5.88038 107.185C6.52932 107.61 7.29626 107.799 7.957 108.2C8.47616 108.507 9.0779 108.931 9.39648 109.462C9.34928 109.25 9.29029 109.037 9.19589 108.849C8.80653 108.07 8.12218 107.634 7.35525 107.256C6.41133 106.796 5.26683 106.218 5.12524 105.062C5.11344 104.979 5.25503 104.944 5.29043 105.015C6.02196 106.69 8.35816 106.926 9.42007 108.365C9.82124 108.896 9.97463 109.521 10.0572 110.182C10.1516 110.96 9.88023 111.314 9.29028 111.762C9.1605 111.869 9.03071 111.656 9.1133 111.55C9.1015 111.538 9.1015 111.527 9.0897 111.515C9.00711 111.22 8.99531 110.972 9.01891 110.665C9.0779 109.792 8.74753 109.427 8.08679 108.943C7.44964 108.483 6.70631 108.2 5.99837 107.846C5.47921 107.586 5.06625 107.268 4.81847 106.725C4.53529 106.065 4.77127 105.38 4.86566 104.732Z" fill="#C3B486"/>
<path opacity="0.5" d="M4.89992 104.613C4.91232 104.613 4.91232 104.626 4.89992 104.626C4.88753 104.626 4.88753 104.613 4.89992 104.613Z" fill="#C3B486"/>
<path opacity="0.5" d="M1.85732 108.153C2.0225 108.908 2.19949 109.757 2.64785 110.406C3.06082 111.008 3.78055 111.633 4.3587 112.058C4.90145 112.459 5.4796 112.801 6.10495 113.096C6.7185 113.379 7.36745 113.308 7.99279 113.52C8.07539 113.544 8.06359 113.662 7.96919 113.662C7.29665 113.662 6.67131 113.697 6.03416 113.45C5.23183 113.131 4.48849 112.695 3.79235 112.187C3.2614 111.798 2.63605 111.196 2.29388 110.63C1.86911 109.911 1.76292 109.014 1.66853 108.2C1.65673 108.07 1.83372 108.047 1.85732 108.153Z" fill="#C3B486"/>
<path opacity="0.5" d="M96.9651 104.057C96.0194 104.716 95.1851 105.548 94.4404 106.391C92.7869 108.279 92.0044 110.518 92.1195 112.675C92.2444 115.044 92.7601 117.033 94.9271 118.193C96.6947 119.143 99.3832 119.607 101.57 118.38C101.895 118.194 102.209 117.984 102.507 117.74C103.058 117.376 103.578 116.942 103.954 116.454C105.652 114.209 107.285 111.592 107.907 109.032C108.427 106.887 108.058 104.618 106.529 103.252C105.059 101.941 102.608 101.931 100.47 102.51C99.2606 102.844 98.0516 103.295 96.9651 104.057ZM98.3219 104.355C99.1741 103.905 100.212 103.603 101.098 103.381C103.15 102.877 105.304 103.174 106.353 104.721C106.874 105.505 107.122 106.402 107.144 107.362C107.076 108.123 106.976 108.886 106.739 109.649C106.421 110.686 105.852 111.654 105.344 112.647C104.407 114.504 102.955 116.88 100.827 117.743C99.9788 118.09 99.0813 118.172 98.2033 118.071C98.1653 118.062 98.141 118.046 98.1083 118.049C98.0651 118.028 98.0134 118.026 97.9721 118.048C96.8852 117.898 95.8794 117.472 95.1451 116.933C93.4966 115.716 93.1976 113.642 93.3674 111.552C93.5209 109.616 94.4255 107.877 95.9345 106.312C96.6333 105.595 97.4009 104.841 98.3219 104.355Z" fill="#C3B486"/>
<path opacity="0.5" d="M104.026 106.066C104.067 106.045 104.098 106.114 104.057 106.136C103.069 106.813 101.914 107.379 101.649 108.546C101.445 109.439 101.564 110.304 101.393 111.193C101.268 111.887 101.043 112.734 100.572 113.367C100.796 113.192 101.014 113.006 101.19 112.799C101.915 111.946 102.117 111.012 102.214 110.033C102.329 108.83 102.492 107.36 103.76 106.521C103.85 106.459 103.953 106.576 103.887 106.654C102.281 108.385 103.034 110.814 101.845 112.725C101.41 113.44 100.758 113.969 100.034 114.45C99.1802 115.014 98.6541 114.963 97.8796 114.657C97.7005 114.595 97.8878 114.339 98.0462 114.356C98.0546 114.337 98.0681 114.33 98.0765 114.311C98.3795 114.051 98.6593 113.89 99.0225 113.727C100.053 113.256 100.328 112.711 100.595 111.771C100.844 110.869 100.844 109.97 100.94 109.062C101.011 108.397 101.196 107.8 101.712 107.229C102.348 106.551 103.238 106.367 104.026 106.066Z" fill="#C3B486"/>
<path opacity="0.5" d="M103.719 106.06C103.725 106.072 103.71 106.08 103.704 106.068C103.699 106.055 103.713 106.048 103.719 106.06Z" fill="#C3B486"/>
<path opacity="0.5" d="M98.7641 104.617C97.9519 105.25 97.0342 105.954 96.4734 106.806C95.9522 107.592 95.5405 108.701 95.3009 109.543C95.0731 110.335 94.9304 111.126 94.8642 111.935C94.8066 112.725 95.1802 113.331 95.2109 114.089C95.2202 114.186 95.0765 114.247 95.0342 114.153C94.7331 113.479 94.4116 112.875 94.4171 112.084C94.4318 111.083 94.6113 110.068 94.8951 109.056C95.1143 108.283 95.5405 107.284 96.0519 106.59C96.7063 105.719 97.7111 105.056 98.6242 104.457C98.7712 104.365 98.8782 104.527 98.7641 104.617Z" fill="#C3B486"/>
<path opacity="0.5" d="M83.414 160.275C84.0276 158.603 83.3724 157.015 82.6075 155.753C81.403 153.77 78.908 153.025 76.2995 153.268C74.7543 153.218 73.0363 153.453 71.5502 154.285C68.1448 156.188 66.6544 160.108 68.913 162.49C70.0466 163.694 71.9231 164.571 73.7832 164.683C75.5652 164.805 77.4318 164.846 79.2779 164.111C80.947 163.471 82.8154 161.899 83.414 160.275ZM79.6672 162.762C76.9331 164.275 73.1477 163.734 70.9757 162.58C69.8083 161.957 68.6766 161.028 68.5806 159.639C68.4773 158.006 69.5934 156.42 71.0905 155.349C71.1795 155.281 71.2728 155.225 71.366 155.168C71.3971 155.209 71.4657 155.219 71.5353 155.187C72.8304 154.636 74.0387 154.069 75.3441 153.816C76.7524 153.667 78.1624 153.793 79.3826 154.157C79.991 154.402 80.5329 154.733 80.9761 155.15C81.9021 156.049 82.5456 157.559 82.4724 158.929C82.3679 160.437 81.1812 161.917 79.6672 162.762Z" fill="#C3B486"/>
<path opacity="0.5" d="M80.7257 158.291C80.9027 158.211 80.9051 157.957 80.7219 157.933C79.8415 157.826 79.0617 157.646 78.2999 157.298C77.5381 156.951 76.8485 156.584 75.9167 156.553C74.4877 156.508 72.7979 157.486 71.7655 158.527C71.6639 158.64 71.692 158.76 71.7757 158.815C71.7243 158.892 71.6865 158.962 71.6708 159.05C71.6361 159.172 71.7732 159.243 71.8904 159.216C72.6445 159.021 73.2827 158.466 74.0492 158.305C75.0095 158.11 75.8225 158.554 76.5948 158.844C77.7534 159.278 79.1833 159.456 80.4521 158.628C80.5799 158.544 80.5298 158.406 80.4083 158.421C80.5309 158.366 80.6304 158.334 80.7257 158.291ZM80.3727 158.411C78.2537 159.344 76.7897 157.769 74.9241 157.615C74.2353 157.555 73.6342 157.734 72.9658 158.076C72.9386 158.089 72.8977 158.107 72.8705 158.12C73.4226 157.763 74.0218 157.491 74.6544 157.311C75.7613 156.996 76.6301 157.202 77.5017 157.633C78.2583 158.01 79.3255 158.672 80.3727 158.411Z" fill="#C3B486"/>
<path opacity="0.5" d="M122.417 144.409C123.241 142.165 122.362 140.035 121.335 138.342C119.719 135.68 116.371 134.68 112.87 135.006C110.796 134.939 108.491 135.255 106.497 136.371C101.927 138.925 99.9266 144.185 102.958 147.383C104.479 148.997 106.997 150.174 109.493 150.325C111.885 150.488 114.39 150.543 116.867 149.557C119.107 148.698 121.614 146.589 122.417 144.409ZM117.389 147.746C113.72 149.777 108.64 149.052 105.726 147.502C104.159 146.666 102.64 145.42 102.511 143.556C102.373 141.364 103.871 139.237 105.88 137.799C105.999 137.708 106.124 137.632 106.249 137.556C106.291 137.611 106.383 137.624 106.477 137.582C108.215 136.842 109.836 136.081 111.588 135.741C113.478 135.542 115.37 135.711 117.007 136.2C117.824 136.529 118.551 136.972 119.146 137.532C120.388 138.738 121.252 140.765 121.154 142.603C121.014 144.627 119.421 146.613 117.389 147.746Z" fill="#C3B486"/>
<path opacity="0.5" d="M118.809 141.747C119.047 141.64 119.05 141.299 118.804 141.267C117.623 141.123 116.576 140.882 115.554 140.416C114.531 139.949 113.606 139.456 112.356 139.415C110.438 139.354 108.17 140.668 106.785 142.064C106.648 142.215 106.686 142.377 106.799 142.451C106.73 142.554 106.679 142.649 106.658 142.766C106.611 142.93 106.795 143.025 106.952 142.989C107.964 142.728 108.821 141.982 109.849 141.766C111.138 141.504 112.229 142.101 113.266 142.489C114.82 143.072 116.739 143.311 118.442 142.2C118.613 142.086 118.546 141.902 118.383 141.923C118.548 141.848 118.681 141.805 118.809 141.747ZM118.335 141.908C115.492 143.161 113.527 141.048 111.024 140.841C110.099 140.759 109.293 141 108.396 141.46C108.359 141.476 108.304 141.501 108.268 141.518C109.009 141.039 109.813 140.675 110.662 140.433C112.147 140.01 113.313 140.287 114.483 140.865C115.498 141.37 116.93 142.259 118.335 141.908Z" fill="#C3B486"/>
<g opacity="0.5">
<path d="M80.8037 34.8017C80.463 27.3076 79.5114 19.837 79.5114 12.3194C79.5114 12.2255 79.4879 12.1315 79.4526 12.061C79.5584 11.967 79.6758 11.8848 79.7816 11.7908C80.4277 11.2035 81.2266 10.1111 80.7215 9.20668C80.4395 8.71334 79.9226 8.43143 79.6759 7.90285C79.4409 7.40951 79.3117 6.85744 79.0532 6.37585C78.5598 5.47139 77.5729 5.119 76.5978 4.97805C75.9516 4.88408 75.141 4.74312 74.4243 4.83709C74.3421 4.64915 74.2481 4.47296 74.1423 4.29677C73.4727 3.1339 72.5211 1.91229 71.2405 1.41895C69.5722 0.784654 67.6455 0.89037 65.895 1.00783C64.0857 1.12529 62.1942 1.37197 60.4437 1.85356C58.7167 2.32341 57.0014 2.84024 55.2979 3.36882C55.2626 3.38056 55.2274 3.38056 55.1921 3.39231C53.4299 3.85041 51.7264 4.48471 50.0228 5.13075C48.5778 5.67107 47.1445 6.18791 45.7347 6.8222C44.3719 7.43301 42.7741 8.05555 42.1044 9.50034C41.8107 10.1229 41.846 10.7454 41.8577 11.415C41.8577 11.5912 41.8459 11.7791 41.8342 11.967C41.2585 12.0845 40.6476 12.4604 40.2012 12.7305C39.461 13.1769 38.6269 13.9287 38.5094 14.8449C38.4624 15.2442 38.6034 15.6201 38.6739 16.0077C38.7679 16.5598 38.8149 16.9709 38.7209 17.523C38.5799 18.3217 38.3332 19.1205 38.8736 19.837C39.461 20.6005 40.6594 21.0234 41.5522 21.27C41.6227 21.2935 41.6932 21.3053 41.7637 21.317C41.9987 22.5739 42.7036 23.7602 43.0913 24.9818C43.5495 26.4149 43.9372 27.8714 44.3954 29.3044C45.4175 32.4524 46.7215 35.4712 47.9669 38.5252C49.13 41.3795 50.4223 44.1751 51.8321 46.9237C52.5253 48.2628 53.1714 49.6136 54.0995 50.8117C55.0159 52.0098 56.1203 52.7499 57.5183 53.3137C60.4672 54.4883 63.9212 54.1007 67.0111 53.7953C70.0892 53.4899 73.2847 52.7264 75.9869 51.1993C77.2204 50.4946 78.3013 49.6841 79.1707 48.5565C80.0635 47.4053 80.5335 45.9253 80.7332 44.4805C81.1679 41.2386 80.9564 38.0436 80.8037 34.8017ZM42.8093 10.5105C42.8328 10.2991 42.8798 10.1111 42.9621 9.9232C45.159 10.2756 47.5087 10.0642 49.7056 9.81748C52.255 9.53557 54.8397 9.18319 57.3539 8.66636C58.6462 8.39619 59.962 8.17302 61.2308 7.78539C62.4879 7.40951 63.7097 6.95141 64.9433 6.50506C66.0242 6.11743 67.058 5.63584 68.0802 5.119C69.0318 4.63741 70.2301 4.07359 70.9233 3.22786C71.0643 3.05167 70.888 2.805 70.6766 2.91072C69.6662 3.4158 68.7616 4.03835 67.7042 4.47296C66.5764 4.94281 65.4133 5.33043 64.2737 5.76504C61.924 6.6695 59.5626 7.2803 57.1306 7.87936C54.7692 8.45492 52.3255 8.90128 49.9289 9.26541C47.6732 9.6178 45.2765 9.97019 42.9855 9.84098C43.5025 8.71334 44.9828 8.13777 46.0519 7.64443C47.3794 7.02189 48.7423 6.50505 50.1051 5.96473C51.7029 5.33043 53.3007 4.68439 54.9572 4.19105C56.6842 3.68597 58.4465 3.2866 60.2087 2.89897C62.0767 2.47611 63.933 2.17071 65.8245 1.95928C66.1182 1.92404 66.4119 1.90054 66.7056 1.86531C66.8701 1.86531 67.0228 1.86531 67.1873 1.86531C68.5501 1.87705 70.1831 1.85356 71.3815 2.61706C71.9454 2.96945 72.3448 3.592 72.7325 4.13232C73.5549 5.24821 74.3303 6.86918 73.1085 7.93809C72.5563 8.41968 71.9101 8.84255 71.2992 9.23017C70.0656 10.0172 68.6206 10.487 67.2343 10.9451C64.3324 11.8966 61.4306 12.6601 58.423 13.2121C55.2744 13.7877 52.1376 14.1401 48.942 14.3163C47.3912 14.3985 45.8052 14.4102 44.2661 14.1283C43.4672 13.9874 42.8093 13.635 42.8093 12.754C42.7976 12.0258 42.7388 11.2388 42.8093 10.5105ZM39.8605 14.1636C40.1424 13.8347 40.4831 13.541 40.8356 13.2826C41.0471 13.1299 41.4348 12.8363 41.7872 12.6483C41.7755 12.9537 41.799 13.2474 41.8694 13.5293C42.2571 14.9388 44.0899 14.7744 45.2177 14.8918C47.0388 15.068 48.848 15.021 50.669 14.9506C52.4313 14.8801 54.2053 14.8096 55.9558 14.5512C59.3746 14.0344 62.8991 13.4588 66.1887 12.3664C67.7982 11.8378 69.5017 11.3445 71.0173 10.581C72.1804 9.99367 73.6254 9.1362 74.4243 8.07905C74.9647 7.35078 74.9647 6.48156 74.7298 5.64758C75.3524 5.62409 76.0573 5.7533 76.539 5.83552C77.009 5.91775 77.6081 6.03521 77.9723 6.35235C78.3483 6.68125 78.4893 7.22157 78.595 7.69142C78.6185 7.78539 78.642 7.87936 78.6655 7.96158C78.313 8.20825 78.1251 8.60762 77.8196 8.90128C77.3262 9.39462 76.586 9.80574 75.9986 10.1699C74.9647 10.8042 73.8956 11.415 72.8735 12.0728C71.7339 12.801 70.4651 13.2944 69.2315 13.8347C67.8922 14.422 66.5764 14.9976 65.1431 15.303C63.7567 15.6084 62.4174 15.949 61.0076 16.1722C59.5861 16.3954 58.1763 16.642 56.7664 16.8887C54.0056 17.3703 51.1742 17.6992 48.3781 17.6992C46.839 17.6992 45.3117 17.7462 43.7727 17.6874C42.4804 17.6405 41.1411 17.2998 39.8605 17.5347C39.8957 17.3468 39.9192 17.1589 39.931 16.9709C39.9662 15.9373 39.0616 15.1033 39.8605 14.1636ZM41.2115 20.4713C40.7416 20.3068 39.8487 20.0014 39.555 19.5786C39.2378 19.1205 39.5315 18.6154 39.696 18.1573C39.7312 18.0516 39.7665 17.9459 39.79 17.8401C42.3511 18.2395 44.8653 18.4509 47.4617 18.4509C48.848 18.4509 50.2696 18.5332 51.6441 18.3217C53.0304 18.0986 54.3933 17.7932 55.7796 17.5582C57.2011 17.3116 58.6227 16.9944 60.0325 16.7008C61.5011 16.4071 62.9579 16.1487 64.4029 15.7611C65.7657 15.3969 67.105 15.0798 68.4326 14.5747C69.7602 14.0696 71.076 13.5175 72.3918 12.9772C73.6489 12.4604 74.8707 11.8378 76.0456 11.1683C76.6917 10.7924 77.3497 10.4283 77.9606 10.0054C78.2425 9.80574 78.5128 9.58256 78.7477 9.3124C78.8417 9.20668 78.9357 9.04223 79.0414 8.91303C79.2294 9.14795 79.4879 9.33589 79.6289 9.57081C80.134 10.4635 78.407 11.5089 77.8196 11.8966C76.1983 12.989 74.624 14.0696 72.8383 14.8801C70.9938 15.7258 69.02 16.4188 67.0816 17.0179C63.1811 18.2278 59.1866 19.3084 55.1804 20.0954C53.1127 20.4948 51.045 20.9646 48.942 21.1056C46.8978 21.2465 44.8183 21.1878 42.7858 20.8354C42.2806 20.7532 41.7285 20.6475 41.2115 20.4713ZM80.0636 40.2754C79.9343 43.1297 79.7581 46.6066 77.4907 48.6622C76.3628 49.6841 75.0352 50.4476 73.6372 51.0467C72.2391 51.6575 70.7236 51.9159 69.2433 52.2448C67.669 52.5971 66.0829 52.7381 64.4734 52.8321C62.9226 52.926 61.3131 52.9965 59.774 52.7733C58.4112 52.5854 56.8017 51.9746 55.7678 51.0467C54.6752 50.0482 53.9351 48.6739 53.2419 47.3818C51.8674 44.7859 50.5633 42.1548 49.3767 39.4649C47.9551 36.2229 46.6041 32.9692 45.441 29.6216C44.924 28.1416 44.5011 26.6263 43.9724 25.158C43.714 24.4415 43.4202 23.7367 43.1148 23.032C42.8916 22.5151 42.5861 22.01 42.3981 21.4815C43.2675 21.6577 44.1486 21.7516 45.0415 21.8338C47.5439 22.0805 49.9289 21.8808 52.4078 21.5167C57.3774 20.8002 62.2764 19.5433 67.0933 18.1103C69.3842 17.429 71.7339 16.6185 73.8956 15.5731C75.047 15.0093 76.1396 14.375 77.1969 13.6467C77.5846 13.3766 77.9841 13.1182 78.3718 12.8597C78.3718 14.2341 78.3718 15.6319 78.4893 16.9827C78.548 17.7462 78.689 18.5097 78.7242 19.2732C78.7712 20.0484 78.7477 20.8119 78.8182 21.5872C79.0649 24.6764 79.4174 27.7422 79.6641 30.8314C79.7933 32.4524 79.8521 34.0734 79.9343 35.6944C80.0048 37.2449 80.134 38.7366 80.0636 40.2754Z" fill="#C3B486"/>
<path d="M66.269 3.29806C66.034 3.08659 65.9988 2.83987 65.6933 2.69889C65.3291 2.53442 64.8474 2.58141 64.4597 2.58141C63.6256 2.58141 62.6387 2.74589 62.0631 3.4038C61.9691 3.50953 61.9221 3.68576 62.0161 3.81499C62.0278 3.82674 62.0278 3.83849 62.0396 3.83849C62.1335 3.97947 62.298 4.02646 62.4508 3.94423C62.2628 4.03821 62.8972 3.92073 62.9912 3.89723C63.4964 3.77975 63.9663 3.72101 64.4715 3.72101C64.8122 3.72101 65.1412 3.67401 65.4819 3.66226C65.7286 3.65052 65.9518 3.70926 66.1985 3.66226C66.3277 3.62702 66.3865 3.4038 66.269 3.29806Z" fill="#C3B486"/>
<path d="M70.9223 28.7887C69.8297 27.1325 67.8324 26.1106 65.894 25.8874C63.8497 25.6525 61.5588 26.8271 60.2665 28.4011C59.5498 29.2821 59.0446 30.3392 58.6804 31.4081C58.4807 31.9837 58.3867 32.6297 58.3867 33.2405C58.3867 33.5812 58.469 33.8983 58.5512 34.2155C58.5864 35.0377 58.7274 35.8599 58.9272 36.6822C59.4088 38.7025 60.9244 40.4644 62.8159 41.2984C64.8718 42.2029 67.2098 42.0619 69.0895 40.7933C72.755 38.2914 73.2367 32.3008 70.9223 28.7887ZM69.63 39.0314C68.3729 40.5701 66.2817 41.2514 64.3549 40.8403C63.368 40.6289 62.4047 40.159 61.6058 39.513C61.594 39.4895 61.5823 39.4778 61.5588 39.4543C61.4531 39.372 61.3591 39.2898 61.2651 39.2193C60.7834 38.773 60.3722 38.2561 60.055 37.6923C59.7965 37.0228 59.6321 36.318 59.4911 35.6133C59.3736 34.979 59.1504 34.2859 59.0916 33.6281C59.1151 32.6532 59.3148 31.69 59.726 30.856C60.4427 29.376 61.4766 28.3189 62.7689 27.4849C63.1801 27.2617 63.6148 27.0973 64.0847 26.9915C65.0716 26.7684 65.9762 26.8036 66.9513 27.0855C67.809 27.3322 68.4786 27.8138 69.1835 28.3424C70.6991 29.4935 71.2747 31.7253 71.3335 33.5342C71.404 35.4371 70.8635 37.5279 69.63 39.0314Z" fill="#C3B486"/>
<path d="M66.1519 35.3062C66.5631 34.6014 66.7864 33.8614 66.6219 33.0392C66.3634 31.7588 65.4588 30.0439 64.1547 29.574C64.096 29.5505 64.0607 29.6445 64.1077 29.6798C64.9066 30.1261 65.2943 30.9953 65.682 31.7823C66.1989 32.8512 66.0814 33.9201 65.4705 34.9068C65.0593 35.5646 64.4719 36.1989 64.3662 36.9976C64.2722 37.7729 64.7186 38.4189 65.2591 38.9123C65.4353 39.065 65.6468 38.8418 65.5058 38.6656C64.9419 37.9608 64.8126 37.2678 65.3178 36.4925C65.588 36.0932 65.9052 35.729 66.1519 35.3062Z" fill="#C3B486"/>
<path d="M67.9755 32.723C67.9285 31.9712 67.7053 31.3017 67.1766 30.7496C66.7536 30.315 66.0957 29.716 65.4613 29.7277C65.3673 29.7277 65.3556 29.8569 65.4378 29.8804C66.4247 30.1623 66.8476 31.0785 67.1061 31.9712C67.3881 32.9462 67.2118 33.7332 66.7184 34.6024C66.3659 35.2132 66.0957 35.8475 65.8843 36.5288C65.6845 37.1631 65.755 37.5389 66.0252 38.138C66.037 38.1732 66.084 38.1497 66.084 38.1145C65.5788 36.0707 68.1047 34.7316 67.9755 32.723Z" fill="#C3B486"/>
</g>
</svg>
