<svg width="50" height="51" viewBox="0 0 50 51" fill="none" xmlns="http://www.w3.org/2000/svg">
<path d="M33.2506 39.7413L33.2506 39.7414C33.3319 40.2088 33.6439 40.5976 34.1413 40.9233C34.6401 41.2499 35.2976 41.4934 36.0032 41.672C37.4128 42.0286 38.9389 42.1081 39.5739 42.1243L39.5663 42.4242L39.574 42.1243C42.9609 42.211 46.3872 38.8717 47.2998 34.2541C48.1164 30.1198 47.0556 24.4204 44.8645 20.5702C43.7685 18.6443 42.4161 17.2277 40.9227 16.6712C39.4581 16.1256 37.792 16.3837 35.9821 17.9537L35.9821 17.9538C35.7749 18.1335 35.5227 18.1866 35.2878 18.0842C35.0803 17.9937 34.9416 17.8053 34.8623 17.6221C34.7148 17.281 34.6941 16.7526 35.0441 16.4037C35.1057 16.2398 35.1683 16.0768 35.2306 15.9144C35.8599 14.2742 36.4637 12.7005 35.7863 10.9744C35.2321 9.56331 34.276 8.54728 33.1763 8.12249C31.7357 7.56613 30.4458 7.74999 29.3482 8.48185C28.2448 9.21758 27.3132 10.5237 26.6467 12.2544C26.6428 12.2899 26.6388 12.3256 26.6349 12.3613C26.5979 12.6957 26.5594 13.0437 26.489 13.4089L26.489 13.409C26.4492 13.6149 26.3504 13.7875 26.2005 13.9012C26.0513 14.0145 25.869 14.0553 25.6956 14.026C25.3332 13.9649 25.0827 13.6274 25.1036 13.1936M33.2506 39.7413L13.8472 39.7497C13.8507 39.7783 13.8553 39.8054 13.8597 39.8292C13.4546 40.4212 13.1758 41.053 12.918 41.6372C12.8094 41.8833 12.7045 42.1209 12.5955 42.3435C12.2044 43.1426 11.7323 43.8324 10.7946 44.3278C9.02262 45.2633 7.24932 44.8177 5.76562 43.5304C4.27289 42.2352 3.1031 40.1037 2.62091 37.769L2.32712 37.8297L2.62091 37.769C1.98893 34.7092 2.11318 30.2589 3.1795 27.1538C3.71474 25.5952 4.46577 24.4388 5.41416 23.926C6.32879 23.4316 7.51822 23.4917 9.06574 24.5849L9.06582 24.5849C9.2758 24.7332 9.51406 24.7555 9.7243 24.6561C9.915 24.5659 10.0453 24.3941 10.1205 24.2223C10.2654 23.8907 10.2737 23.3731 9.87807 23.0613L9.87796 23.0612C9.7045 22.9247 9.53497 22.8026 9.36837 22.6893C7.65455 19.224 7.68048 15.1885 8.83273 11.6441C9.99414 8.07152 12.2847 5.04304 15.0212 3.61755C17.2947 2.43334 19.9432 2.81332 22.1394 4.24326L22.1394 4.24327C24.7847 5.96543 25.2843 9.43244 25.1036 13.1936M33.2506 39.7413C33.2133 39.5272 33.0578 39.3683 32.8662 39.3337C32.7644 39.2499 32.6438 39.199 32.5144 39.1864C32.338 39.1692 32.1694 39.225 32.0335 39.3224C31.7589 39.5191 31.6027 39.8876 31.6614 40.3137L31.6614 40.3138M33.2506 39.7413L31.6614 40.3138M25.1036 13.1936L25.4033 13.2081M25.1036 13.1936C25.1036 13.1936 25.1036 13.1937 25.1036 13.1937L25.4033 13.2081M25.4033 13.2081C25.5839 9.44849 25.1013 5.81358 22.3031 3.99185L26.3529 12.1829C26.3474 12.2317 26.342 12.2804 26.3366 12.3292C26.2995 12.6642 26.2624 12.9995 26.1944 13.3521C26.0819 13.9347 25.3735 13.8258 25.4033 13.2081ZM31.6614 40.3138C32.0781 43.3333 31.2297 45.2435 29.8725 46.3973M31.6614 40.3138L29.8725 46.3973M29.8725 46.3973C28.4979 47.5658 26.5485 48.0038 24.6918 47.9549M29.8725 46.3973L24.6918 47.9549M24.6918 47.9549C20.7425 47.8508 16.7661 45.1719 15.2039 40.1505M24.6918 47.9549L15.2039 40.1505M15.2039 40.1505C15.2638 39.9328 15.3242 39.709 15.3785 39.4715M15.2039 40.1505L15.3785 39.4715M15.3785 39.4715C15.3784 39.4718 15.3784 39.472 15.3783 39.4722L15.086 39.4047L15.3785 39.4715ZM15.3785 39.4715C15.407 39.3471 15.3812 39.2213 15.3299 39.1261M15.3785 39.4715L15.3299 39.1261M15.3299 39.1261C15.2857 39.0441 15.1566 38.8799 14.934 38.9099L15.3299 39.1261ZM14.5147 1.82569L14.6267 2.10308L14.5147 1.82569C11.4521 3.06259 8.89988 6.43008 7.54448 10.3374C6.26464 14.0269 6.02538 18.2708 7.4792 21.7899C6.28421 21.4829 5.22885 21.745 4.33724 22.4238C3.30382 23.2105 2.51298 24.5379 1.938 26.1024C0.786296 29.2361 0.447331 33.4681 0.88288 36.7599L1.18029 36.7205L0.882881 36.7599C1.50756 41.4802 4.0836 44.8974 6.98695 46.0212C8.44496 46.5856 9.98567 46.5685 11.3746 45.8339C12.5919 45.1901 13.6645 44.0104 14.4638 42.2503C16.1925 46.9545 20.8247 49.5911 25.0498 49.7881C27.2814 49.8921 29.4316 49.3179 30.9949 47.9754C32.4433 46.7317 33.3571 44.8546 33.3836 42.3326C34.0758 42.8079 34.9713 43.1424 35.7834 43.3754C36.8348 43.677 37.8047 43.824 38.1527 43.8734L38.1949 43.5764L38.1527 43.8734C40.4323 44.1969 42.5297 43.6255 44.2981 42.2791C46.0614 40.9366 47.4839 38.8349 48.4504 36.1133C50.1198 31.4132 49.1864 25.2563 46.8938 20.751C45.7462 18.4957 44.2425 16.6227 42.5183 15.552C40.9532 14.5801 39.2059 14.2717 37.4136 14.9406C37.7736 13.4261 37.67 11.8083 37.1995 10.3782C36.6649 8.75317 35.6452 7.33944 34.2509 6.60425C32.6854 5.77863 31.0861 5.73677 29.6605 6.34196C28.4862 6.8405 27.4469 7.77016 26.6403 9.02789C25.7073 2.51788 19.3222 -0.115911 14.5147 1.82569ZM13.8473 39.7502L13.9212 39.741L14.9336 38.91C14.8097 38.9266 14.7047 38.9484 14.6093 38.9896C14.5712 38.9743 14.5311 38.9634 14.4892 38.9575C14.3526 38.9381 14.2209 38.9751 14.1151 39.0486C13.9022 39.1964 13.812 39.4672 13.8473 39.7502Z" fill="#7D7B7B" stroke="#7D7B7B" stroke-width="0.6"/>
</svg>
