<svg width="48" height="49" viewBox="0 0 48 49" fill="none" xmlns="http://www.w3.org/2000/svg">
<path d="M25.2647 9.62225L24.8365 8.95583C21.7071 4.08588 16.5581 1 11.6666 1C10.5929 1 9.52978 1.14648 8.50715 1.43533L8.50713 1.43534C5.37998 2.31853 2.80105 4.78318 1.46 8.244L1.45998 8.24406C-0.0300158 12.088 0.232323 16.5862 2.12225 19.9669L2.12226 19.9669C4.75242 24.6722 9.2691 27.5604 13.7674 30.4251L13.7675 30.4252L13.8103 30.4524C16.092 31.9063 18.4845 33.4308 20.5432 35.182C21.1544 35.7012 21.9398 36.3924 22.6188 37.1525L22.9277 37.4981L22.6064 37.8322C22.2362 38.2171 21.6483 39.0984 21.1281 39.9344C20.8739 40.343 20.6445 40.7265 20.4777 41.01C20.3943 41.1517 20.3267 41.268 20.2798 41.3496C20.2563 41.3905 20.2381 41.4223 20.2258 41.4441C20.2221 41.4505 20.2193 41.4555 20.2173 41.4592C19.9779 41.9948 19.6913 42.8329 19.5369 43.7471C19.3797 44.6778 19.368 45.6374 19.6369 46.428C19.8606 47.0844 20.2479 47.5312 20.7852 47.7965C21.0622 47.933 21.3473 48 21.6352 48C22.2602 48 22.9114 47.6846 23.5534 47.157C24.1893 46.6344 24.7644 45.9459 25.2272 45.3007C26.8665 43.0127 27.1007 40.6563 25.9547 38.2259L25.8009 37.8999L26.0617 37.651C28.178 35.6311 30.4773 33.7557 32.6855 31.9547L32.7018 31.9414L32.7018 31.9414C36.5207 28.8272 40.4166 25.6466 43.5123 21.6581M25.2647 9.62225L36.0129 1.66891C36.3994 1.63208 36.7927 1.61359 37.1811 1.61359C41.2899 1.61359 44.7111 3.5727 46.3843 6.8063L46.3843 6.80633C47.9738 9.87745 47.6563 13.0782 46.725 15.7939C45.7929 18.5121 44.262 20.6919 43.5123 21.6581M25.2647 9.62225L25.6821 8.94897M25.2647 9.62225L25.6821 8.94897M43.5123 21.6581L43.9073 21.9647M43.5123 21.6581L43.9073 21.9647M43.9073 21.9647C45.4395 19.99 50.1766 13.0459 46.8284 6.57651L33.0088 32.3362L33.0178 32.3289C36.8297 29.2204 40.771 26.0054 43.9073 21.9647ZM25.6821 8.94897C28.3843 4.58993 32.0508 2.04712 36.0128 1.66891L25.6821 8.94897ZM21.9201 45.4774L22.0063 44.2575C22.0795 43.2209 22.4495 42.2294 22.6789 41.6985L21.9201 45.4774ZM21.9201 45.4774L22.8363 44.6673M21.9201 45.4774L22.8363 44.6673M22.8363 44.6673C23.2401 44.3102 23.596 43.782 23.9274 43.1138C24.3391 42.284 24.5006 41.4468 24.3957 40.5847L24.2311 39.2328M22.8363 44.6673L24.2311 39.2328M24.2311 39.2328L23.4818 40.37M24.2311 39.2328L23.4818 40.37M23.4818 40.37C23.3319 40.5975 23.1539 40.8794 23.0054 41.123M23.4818 40.37L23.0054 41.123M2.87039 11.541C2.30427 15.7814 3.82785 19.0442 6.24469 21.713C8.63351 24.3508 11.9187 26.434 14.9322 28.3449L14.9626 28.3642L14.9627 28.3643L14.9683 28.3678C16.2029 29.1509 17.3572 29.8829 18.4235 30.6301L18.4236 30.6302C20.2379 31.9009 22.4849 33.5824 24.1883 35.5745L24.5266 35.9702L24.9083 35.6162C26.8375 33.8269 28.9001 32.145 30.9106 30.5065L30.9107 30.5064L30.9365 30.4854C33.484 28.408 36.1412 26.2411 38.5406 23.8286C44.1089 18.2311 46.3845 13.4254 44.9781 9.24027L44.9781 9.24018C43.9156 6.08067 40.8985 3.97137 37.4857 3.97137C37.2271 3.97137 36.9642 3.98294 36.7035 4.00819C32.286 4.42904 28.6307 7.46215 26.3695 12.4028L26.3694 12.403C26.0504 13.101 25.7412 13.251 25.5239 13.251C25.2458 13.251 24.8754 13.0338 24.4039 12.4663C23.9529 11.9235 23.5079 11.1819 23.0591 10.3929L23.0586 10.3921C23.0482 10.3739 23.0378 10.3557 23.0274 10.3375C22.89 10.0968 22.7552 9.86048 22.6592 9.72263L22.6589 9.72225C21.9054 8.64274 21.0103 7.64868 19.9987 6.7692L19.6706 7.14653L19.9987 6.76919C17.8867 4.93315 15.3196 3.77151 12.7591 3.51436C12.4082 3.47866 12.0566 3.46148 11.7131 3.46148C6.99206 3.46148 3.52079 6.66805 2.87039 11.541ZM2.87039 11.541L3.36599 11.6071M2.87039 11.541L3.36599 11.6071M3.36599 11.6071C2.28151 19.7303 9.16049 24.0929 15.2304 27.942M3.36599 11.6071L15.2304 27.942M15.2304 27.942L15.242 27.9493C16.4723 28.7296 17.6347 29.4669 18.7104 30.2207L15.2304 27.942ZM23.0054 41.123C22.8677 41.3487 22.7274 41.5861 22.679 41.6982L23.0054 41.123Z" fill="#7D7B7B" stroke="#7D7B7B"/>
</svg>
