<svg width="50" height="49" viewBox="0 0 50 49" fill="none" xmlns="http://www.w3.org/2000/svg">
<path d="M32.1661 37.5724L32.1662 37.5724C32.7524 37.9202 32.9694 38.7523 32.7071 39.4244L32.5208 39.3517L32.7071 39.4244C31.0412 43.6918 27.6041 46.6396 22.7894 47.9533C20.4672 48.5869 18.3653 48.7 17.1582 48.7C16.5262 48.7 16.1377 48.6691 16.089 48.6649C16.0889 48.6649 16.0889 48.6649 16.0889 48.6649L16.1059 48.4656L32.1661 37.5724ZM32.1661 37.5724C31.8668 37.395 31.5319 37.3828 31.2383 37.5095C30.9473 37.6351 30.7079 37.8917 30.574 38.2346C28.5352 43.4572 23.5793 45.1438 20.0466 45.6662C21.6026 43.5229 22.0423 41.0505 22.1496 39.4523C22.1976 38.7373 21.7777 38.0414 21.1196 37.9458C16.0706 37.2123 11.4735 35.0379 8.17226 31.8306C4.93075 28.6814 3.15358 24.7166 3.15358 20.6691C3.15358 11.0244 12.9116 3.10841 25 3.10841C37.0884 3.10841 46.8464 11.0245 46.8464 20.6693C46.8464 25.303 44.596 29.6907 40.4871 33.0214C39.953 33.4543 39.8211 34.3088 40.1571 34.9385C40.3285 35.2598 40.597 35.4781 40.9028 35.556C41.2108 35.6344 41.5395 35.5655 41.8123 35.3443C46.5703 31.4874 49.2 26.276 49.2 20.6691C49.2 15.1224 46.6193 9.94979 41.9497 6.10328C37.4034 2.35829 31.3829 0.3 25 0.3C18.6171 0.3 12.5967 2.35829 8.0503 6.10328C3.38068 9.94979 0.8 15.1225 0.8 20.6691C0.8 30.2857 8.67621 38.4645 19.6376 40.5337L32.1661 37.5724Z" fill="#7D7B7B" stroke="#7D7B7B" stroke-width="0.4"/>
</svg>
