<svg width="43" height="42" viewBox="0 0 43 42" fill="none" xmlns="http://www.w3.org/2000/svg">
<path d="M21.5 0C27.0695 0 32.411 2.21249 36.3492 6.15076C40.2875 10.089 42.5 15.4305 42.5 21C42.5 26.5695 40.2875 31.911 36.3492 35.8492C32.411 39.7875 27.0695 42 21.5 42C15.9305 42 10.589 39.7875 6.65076 35.8492C2.71249 31.911 0.5 26.5695 0.5 21C0.5 15.4305 2.71249 10.089 6.65076 6.15076C10.589 2.21249 15.9305 0 21.5 0ZM21.5 18.453L16.622 13.575C16.2842 13.2372 15.8262 13.0475 15.3485 13.0475C14.8708 13.0475 14.4128 13.2372 14.075 13.575C13.7372 13.9128 13.5475 14.3708 13.5475 14.8485C13.5475 15.3262 13.7372 15.7842 14.075 16.122L18.953 21L14.075 25.878C13.9078 26.0452 13.7751 26.2438 13.6846 26.4623C13.5941 26.6808 13.5475 26.915 13.5475 27.1515C13.5475 27.388 13.5941 27.6222 13.6846 27.8407C13.7751 28.0592 13.9078 28.2578 14.075 28.425C14.2422 28.5922 14.4408 28.7249 14.6593 28.8154C14.8778 28.9059 15.112 28.9525 15.3485 28.9525C15.585 28.9525 15.8192 28.9059 16.0377 28.8154C16.2562 28.7249 16.4548 28.5922 16.622 28.425L21.5 23.547L26.378 28.425C26.5452 28.5922 26.7438 28.7249 26.9623 28.8154C27.1808 28.9059 27.415 28.9525 27.6515 28.9525C27.888 28.9525 28.1222 28.9059 28.3407 28.8154C28.5592 28.7249 28.7578 28.5922 28.925 28.425C29.0922 28.2578 29.2249 28.0592 29.3154 27.8407C29.4059 27.6222 29.4525 27.388 29.4525 27.1515C29.4525 26.915 29.4059 26.6808 29.3154 26.4623C29.2249 26.2438 29.0922 26.0452 28.925 25.878L24.047 21L28.925 16.122C29.0922 15.9548 29.2249 15.7562 29.3154 15.5377C29.4059 15.3192 29.4525 15.085 29.4525 14.8485C29.4525 14.612 29.4059 14.3778 29.3154 14.1593C29.2249 13.9408 29.0922 13.7422 28.925 13.575C28.7578 13.4078 28.5592 13.2751 28.3407 13.1846C28.1222 13.0941 27.888 13.0475 27.6515 13.0475C27.415 13.0475 27.1808 13.0941 26.9623 13.1846C26.7438 13.2751 26.5452 13.4078 26.378 13.575L21.5 18.453Z" fill="#394A6D"/>
</svg>
