<svg width="49" height="50" viewBox="0 0 49 50" fill="none" xmlns="http://www.w3.org/2000/svg">
<path d="M24.5 0.5C30.9978 0.5 37.2295 3.08124 41.8241 7.67588C46.4188 12.2705 49 18.5022 49 25C49 31.4978 46.4188 37.7295 41.8241 42.3241C37.2295 46.9188 30.9978 49.5 24.5 49.5C18.0022 49.5 11.7705 46.9188 7.17588 42.3241C2.58124 37.7295 0 31.4978 0 25C0 18.5022 2.58124 12.2705 7.17588 7.67588C11.7705 3.08124 18.0022 0.5 24.5 0.5ZM21.448 29.8335L16.0055 24.3875C15.8104 24.1924 15.5788 24.0376 15.3238 23.932C15.0689 23.8264 14.7957 23.7721 14.5197 23.7721C14.2438 23.7721 13.9706 23.8264 13.7157 23.932C13.4607 24.0376 13.2291 24.1924 13.034 24.3875C12.64 24.7815 12.4186 25.316 12.4186 25.8733C12.4186 26.4305 12.64 26.965 13.034 27.359L19.964 34.289C20.1586 34.4851 20.39 34.6407 20.645 34.7469C20.9 34.8531 21.1735 34.9078 21.4497 34.9078C21.726 34.9078 21.9995 34.8531 22.2545 34.7469C22.5095 34.6407 22.7409 34.4851 22.9355 34.289L37.2855 19.9355C37.4832 19.7412 37.6405 19.5097 37.7483 19.2543C37.8561 18.9989 37.9123 18.7247 37.9135 18.4475C37.9148 18.1703 37.8612 17.8955 37.7558 17.6391C37.6504 17.3828 37.4953 17.1498 37.2994 16.9536C37.1035 16.7575 36.8707 16.6021 36.6144 16.4964C36.3581 16.3907 36.0835 16.3367 35.8063 16.3377C35.5291 16.3387 35.2548 16.3945 34.9993 16.502C34.7437 16.6095 34.512 16.7665 34.3175 16.964L21.448 29.8335Z" fill="#394A6D"/>
</svg>
