<svg width="817" height="553" viewBox="0 0 817 553" fill="none" xmlns="http://www.w3.org/2000/svg">
<path d="M-122.812 16.5018C-72.5776 23.4293 -21.7911 -8.08245 27.4044 2.83261C66.7565 11.5511 91.28 44.4822 127.768 59.5537C190.838 85.608 272.873 52.7952 334.754 80.7249C364.899 94.3265 383.971 119.823 407.879 140.285C461.784 186.395 539.406 206.299 613.656 224.31C632.091 228.788 650.865 233.384 666.691 242.305C682.516 251.226 695.542 265.335 696.539 281.285C697.281 293.315 691.342 304.94 691.066 317.021C690.493 344.528 718.199 365.649 739.158 386.904C770.959 419.481 838.93 435.505 809.665 499.806C780.401 564.107 611.496 470.459 485.496 514.664C368.388 591.826 182.571 527.038 99.5037 527.038C-77.4059 527.038 -111.336 499.806 -111.336 499.806L-122.812 16.5018Z" fill="#FCEDC0"/>
</svg>
