<svg width="161" height="57" viewBox="0 0 161 57" fill="none" xmlns="http://www.w3.org/2000/svg">
<rect x="0.601562" y="0.996094" width="160" height="56" rx="16" fill="white"/>
<path fill-rule="evenodd" clip-rule="evenodd" d="M101.262 28.8636V31.9816C101.262 32.389 101.198 32.7698 101.071 33.1215C100.953 33.459 100.771 33.7711 100.534 34.0411C100.303 34.3013 100.02 34.5059 99.6861 34.6547C99.3519 34.8019 98.9762 34.8709 98.5627 34.8626L97.6865 34.8492L97.489 33.7634H98.1676C98.826 33.7634 99.3181 33.6287 99.6447 33.3593C99.9689 33.0907 100.132 32.7191 100.132 32.2451V28.8636H101.262ZM133.102 28.8636V31.9816C133.102 32.389 133.037 32.7698 132.91 33.1215C132.792 33.4589 132.61 33.7711 132.373 34.0411C132.143 34.3013 131.859 34.5034 131.525 34.648C131.191 34.791 130.816 34.8626 130.403 34.8626L129.921 34.8492L129.738 33.7634H130.007C130.666 33.7634 131.158 33.6287 131.484 33.3593C131.807 33.0907 131.972 32.7191 131.972 32.2451V28.8636H133.102ZM126.317 33.3177C126.411 33.3157 126.504 33.3326 126.59 33.3674C126.677 33.4022 126.755 33.454 126.82 33.5198C126.955 33.6536 127.025 33.8149 127.025 33.9987C127.026 34.0915 127.009 34.1838 126.974 34.27C126.939 34.3562 126.886 34.4347 126.82 34.5009C126.756 34.5684 126.678 34.6218 126.591 34.6576C126.505 34.6934 126.411 34.7108 126.317 34.7087C126.223 34.7107 126.13 34.6932 126.044 34.6574C125.957 34.6216 125.879 34.5683 125.815 34.5009C125.749 34.4347 125.697 34.3562 125.662 34.27C125.627 34.1838 125.609 34.0915 125.611 33.9987C125.611 33.8158 125.681 33.6536 125.815 33.5198C125.88 33.4541 125.959 33.4023 126.045 33.3676C126.131 33.3328 126.224 33.3159 126.317 33.3177ZM128.14 33.3177C128.328 33.3177 128.492 33.3851 128.629 33.5198C128.764 33.6536 128.833 33.8149 128.833 33.9987C128.835 34.0916 128.818 34.1839 128.783 34.2701C128.748 34.3563 128.695 34.4348 128.629 34.5009C128.567 34.5672 128.491 34.62 128.407 34.6558C128.323 34.6916 128.232 34.7096 128.14 34.7087C128.045 34.7117 127.949 34.6948 127.86 34.659C127.772 34.6231 127.692 34.5693 127.626 34.5009C127.559 34.4352 127.506 34.3568 127.47 34.2705C127.435 34.1842 127.418 34.0917 127.42 33.9987C127.42 33.8158 127.487 33.6536 127.626 33.5198C127.693 33.4531 127.773 33.4008 127.862 33.366C127.95 33.3313 128.045 33.3148 128.14 33.3177ZM103.99 25.3965V32.1761H102.958V25.3965H103.99ZM120.424 26.9978C120.745 26.9978 121.027 27.0627 121.272 27.1932C121.517 27.3221 121.722 27.4917 121.888 27.7004C122.052 27.9099 122.177 28.1461 122.262 28.4105C122.347 28.6749 122.389 28.9459 122.389 29.2253V30.0177C122.389 30.3062 122.355 30.5806 122.29 30.8392C122.224 31.1002 122.122 31.3289 121.986 31.5284C121.852 31.7331 121.666 31.9002 121.447 32.0136C121.228 32.1271 120.983 32.183 120.735 32.1761H117.514C117.241 32.1761 116.98 32.1512 116.73 32.0988C116.484 32.0498 116.253 31.9428 116.058 31.787C115.785 32.0448 115.441 32.1761 115.026 32.1761H109.345C108.827 32.1761 108.442 32.0281 108.187 31.7313C107.931 31.4336 107.805 31.0113 107.805 30.4625V28.8636H108.879V30.2962C108.879 30.5939 108.941 30.8001 109.07 30.9156C109.196 31.032 109.4 31.0894 109.684 31.0894H114.799C115.093 31.0894 115.28 31.0254 115.365 30.8949C115.451 30.766 115.491 30.5664 115.491 30.2962V28.8636H116.595V30.3519C116.595 30.6404 116.692 30.835 116.885 30.9364C117.078 31.0395 117.287 31.0894 117.514 31.0894H120.567C120.906 31.0894 121.125 31.0229 121.222 30.8882C121.323 30.7486 121.371 30.5785 121.358 30.4076L119.973 30.3661C119.492 30.3478 119.144 30.1906 118.927 29.8938C118.711 29.5961 118.602 29.2153 118.602 28.7514C118.602 28.5019 118.645 28.2691 118.735 28.0563C118.821 27.8479 118.949 27.6586 119.11 27.4992C119.271 27.3412 119.462 27.2182 119.684 27.13C119.904 27.0419 120.151 26.997 120.425 26.997L120.424 26.9978ZM125.159 25.3965V30.2546C125.159 30.6072 125.232 30.835 125.379 30.9364C125.525 31.0395 125.725 31.0894 125.98 31.0894H127.661C127.838 31.0894 127.982 31.0695 128.091 31.0279C128.187 30.9944 128.273 30.9371 128.34 30.8616C128.397 30.7882 128.433 30.7013 128.444 30.6097C128.459 30.5116 128.466 30.4076 128.466 30.2962V28.8636H129.569V30.4625C129.569 30.9838 129.439 31.3996 129.18 31.7097C128.92 32.0215 128.522 32.1753 127.985 32.1753H125.867C125.318 32.1753 124.886 32.0389 124.565 31.7646C124.246 31.4927 124.084 31.0478 124.084 30.4359V25.3965H125.159ZM136.662 27.0677L139.064 29.587C139.244 29.7732 139.378 29.9719 139.467 30.1865C139.557 30.3993 139.602 30.6072 139.602 30.8117C139.602 31.1834 139.467 31.5035 139.199 31.772C138.932 32.0414 138.532 32.1761 138.006 32.1761H134.655L134.515 31.1044H138.033C138.203 31.1044 138.329 31.0653 138.414 30.9855C138.454 30.9519 138.486 30.9104 138.508 30.8636C138.53 30.8169 138.542 30.766 138.543 30.7144C138.543 30.5756 138.48 30.4409 138.357 30.3103L135.942 27.7919L136.662 27.0677ZM120.311 28.0845C120.01 28.0845 119.801 28.1527 119.683 28.2924C119.562 28.4373 119.499 28.6206 119.506 28.8079C119.506 29.0025 119.584 29.1297 119.739 29.1904C119.895 29.2502 120.048 29.2852 120.199 29.2943L121.358 29.3359C121.358 29.1887 121.331 29.0366 121.28 28.8844C121.233 28.7389 121.161 28.6023 121.068 28.4803C120.98 28.3653 120.869 28.2685 120.743 28.1951C120.612 28.1197 120.463 28.0814 120.311 28.0845ZM111.097 26.5938C111.286 26.5938 111.448 26.6636 111.585 26.8033C111.651 26.869 111.704 26.9471 111.739 27.0331C111.774 27.1191 111.792 27.2111 111.79 27.3038C111.79 27.4892 111.722 27.6505 111.585 27.7836C111.522 27.8484 111.446 27.8999 111.362 27.9348C111.278 27.9696 111.188 27.9872 111.097 27.9864C111.004 27.9886 110.912 27.9727 110.825 27.9396C110.739 27.9065 110.66 27.8568 110.593 27.7934C110.525 27.73 110.472 27.6542 110.435 27.5703C110.398 27.4864 110.378 27.3961 110.376 27.3046C110.375 27.211 110.393 27.1181 110.429 27.0313C110.464 26.9446 110.517 26.8658 110.585 26.7995C110.652 26.7333 110.732 26.6809 110.82 26.6456C110.908 26.6103 111.002 26.5926 111.097 26.5938ZM113.005 26.5938C113.203 26.5938 113.37 26.6636 113.507 26.8033C113.573 26.8689 113.626 26.9471 113.661 27.0331C113.696 27.1191 113.713 27.2111 113.711 27.3038C113.713 27.3933 113.695 27.4822 113.66 27.5647C113.625 27.6473 113.573 27.7218 113.507 27.7836C113.442 27.8493 113.364 27.9012 113.277 27.9361C113.191 27.971 113.099 27.9881 113.005 27.9864C112.912 27.9881 112.82 27.971 112.733 27.9361C112.647 27.9012 112.569 27.8493 112.504 27.7836C112.438 27.7217 112.386 27.6473 112.351 27.5647C112.315 27.4822 112.297 27.3934 112.298 27.3038C112.298 27.1093 112.367 26.9421 112.504 26.8033C112.568 26.7357 112.646 26.6822 112.732 26.6461C112.819 26.61 112.912 26.5922 113.005 26.5938H113.005ZM100.74 26.1065C100.965 26.1065 101.157 26.1855 101.319 26.3435C101.396 26.4175 101.457 26.5062 101.498 26.6043C101.54 26.7023 101.56 26.8077 101.559 26.9139C101.559 27.1367 101.478 27.3296 101.319 27.4917C101.245 27.5698 101.155 27.6318 101.055 27.6737C100.955 27.7157 100.848 27.7367 100.74 27.7353C100.629 27.738 100.519 27.7177 100.416 27.6757C100.314 27.6338 100.222 27.5711 100.146 27.4917C100.068 27.4165 100.007 27.3265 99.9652 27.2272C99.9237 27.1279 99.9031 27.0213 99.9047 26.9139C99.9047 26.691 99.9841 26.5006 100.146 26.3435C100.223 26.266 100.316 26.2049 100.418 26.1641C100.52 26.1234 100.629 26.1038 100.74 26.1065ZM120.311 24.812C120.539 24.812 120.73 24.8918 120.891 25.0489C121.051 25.2069 121.13 25.3965 121.13 25.6201C121.13 25.8421 121.05 26.035 120.891 26.1972C120.817 26.2753 120.727 26.3373 120.627 26.3792C120.527 26.4212 120.419 26.4421 120.311 26.4408C120.2 26.4428 120.09 26.4222 119.988 26.3803C119.886 26.3384 119.794 26.276 119.717 26.1972C119.64 26.1216 119.58 26.0316 119.538 25.9325C119.497 25.8334 119.477 25.7272 119.478 25.6201C119.478 25.3956 119.558 25.2069 119.717 25.0489C119.795 24.9718 119.887 24.911 119.989 24.8703C120.091 24.8295 120.201 24.8097 120.311 24.812ZM82.7736 37.031C83.0534 37.031 83.3305 37.0854 83.589 37.1909C83.8475 37.2964 84.0823 37.4511 84.2802 37.6461C84.478 37.841 84.6349 38.0724 84.7419 38.3271C84.849 38.5818 84.904 38.8548 84.904 39.1304C84.9039 39.406 84.8487 39.679 84.7416 39.9336C84.6345 40.1883 84.4775 40.4196 84.2796 40.6145C84.0817 40.8094 83.8467 40.9639 83.5882 41.0694C83.3296 41.1748 83.0525 41.229 82.7727 41.229C82.2076 41.2289 81.6656 41.0076 81.2661 40.6139C80.8666 40.2202 80.6422 39.6863 80.6423 39.1296C80.6424 38.5729 80.867 38.039 81.2667 37.6455C81.6664 37.2519 82.2084 37.0309 82.7736 37.031ZM76.3823 26.538C76.9473 26.538 77.4892 26.7591 77.8887 27.1527C78.2883 27.5463 78.5127 28.0801 78.5127 28.6366V35.9725C78.5118 36.8096 78.1739 37.6121 77.573 38.2039C76.9722 38.7958 76.1575 39.1287 75.3078 39.1296H69.9927C69.4277 39.1296 68.8858 38.9085 68.4863 38.5149C68.0867 38.1213 67.8623 37.5876 67.8623 37.031C67.8623 36.4744 68.0867 35.9406 68.4863 35.5471C68.8858 35.1535 69.4277 34.9324 69.9927 34.9324H74.2527V28.6366C74.2529 28.0803 74.4774 27.5469 74.8767 27.1535C75.276 26.7602 75.8176 26.5391 76.3823 26.5389V26.538ZM63.6014 22.3434C64.1663 22.3434 64.7081 22.5644 65.1076 22.9577C65.5071 23.3511 65.7316 23.8847 65.7319 24.4411V31.7853C65.731 32.6199 65.394 33.4201 64.7949 34.0103C64.1958 34.6004 63.3835 34.9323 62.5362 34.9332H57.2102C56.658 34.9145 56.1347 34.6852 55.7508 34.2938C55.3669 33.9023 55.1523 33.3793 55.1523 32.8351C55.1523 32.2908 55.3669 31.7678 55.7508 31.3763C56.1347 30.9849 56.658 30.7556 57.2102 30.7369H61.471V24.4411C61.471 24.1656 61.5261 23.8927 61.6332 23.6382C61.7403 23.3836 61.8972 23.1523 62.095 22.9575C62.2929 22.7627 62.5277 22.6082 62.7862 22.5028C63.0447 22.3974 63.3217 22.3433 63.6014 22.3434ZM82.7727 20.2448C83.0526 20.2447 83.3297 20.2989 83.5882 20.4043C83.8468 20.5097 84.0818 20.6643 84.2797 20.8591C84.4776 21.054 84.6346 21.2854 84.7417 21.5401C84.8488 21.7947 84.904 22.0677 84.904 22.3434V30.7369H89.164C89.7289 30.7369 90.2707 30.9579 90.6701 31.3514C91.0696 31.7449 91.294 32.2786 91.294 32.8351C91.294 33.3915 91.0696 33.9252 90.6701 34.3187C90.2707 34.7122 89.7289 34.9332 89.164 34.9332H83.8658C83.0113 34.9317 82.1924 34.5965 81.5885 34.0011C80.9845 33.4057 80.6449 32.5987 80.644 31.7571V22.3434C80.6439 22.0679 80.6988 21.7951 80.8058 21.5405C80.9127 21.286 81.0694 21.0547 81.2671 20.8598C81.4648 20.6649 81.6995 20.5103 81.9578 20.4048C82.2162 20.2993 82.493 20.2449 82.7727 20.2448ZM69.9927 18.1445C70.5577 18.145 71.0993 18.3664 71.4986 18.76C71.898 19.1537 72.1223 19.6874 72.1223 20.2439V30.7369C72.1223 31.2934 71.8979 31.827 71.4984 32.2205C71.099 32.614 70.5572 32.8351 69.9923 32.8351C69.4274 32.8351 68.8856 32.614 68.4861 32.2205C68.0867 31.827 67.8623 31.2934 67.8623 30.7369V20.2439C67.8622 19.9683 67.9172 19.6953 68.0242 19.4406C68.1312 19.1859 68.2881 18.9544 68.486 18.7595C68.6838 18.5645 68.9187 18.4099 69.1772 18.3044C69.4358 18.1988 69.7129 18.1445 69.9927 18.1445ZM76.3823 20.2439C76.6621 20.2438 76.9391 20.298 77.1976 20.4034C77.4561 20.5087 77.6911 20.6632 77.889 20.858C78.0869 21.0528 78.2439 21.2841 78.3511 21.5387C78.4582 21.7932 78.5134 22.0661 78.5136 22.3417C78.5137 22.6173 78.4587 22.8902 78.3517 23.1449C78.2447 23.3995 78.0879 23.6309 77.8902 23.8259C77.6924 24.0208 77.4576 24.1755 77.1992 24.2811C76.9408 24.3866 76.6637 24.441 76.384 24.4411C76.1042 24.4412 75.8272 24.3871 75.5686 24.2817C75.3101 24.1763 75.0752 24.0218 74.8773 23.827C74.4776 23.4336 74.2529 22.8999 74.2527 22.3434C74.2525 21.7868 74.4767 21.2529 74.8761 20.8592C75.2755 20.4655 75.8173 20.2442 76.3823 20.2439Z" fill="#323133"/>
<path fill-rule="evenodd" clip-rule="evenodd" d="M35.2748 14.9961C36.5409 14.9961 37.7412 15.6114 38.6579 16.7255C39.4825 17.7299 39.9594 18.8623 40.4127 19.964L40.4574 20.0721C40.5807 20.3714 40.6963 20.655 40.8187 20.936C41.0483 21.4598 41.266 21.9587 41.4754 22.4459L41.6189 22.4584C42.6528 22.5482 43.5467 22.6588 44.3182 22.7818C44.931 22.8783 45.4661 22.983 45.9354 23.0928C47.5003 23.4561 48.3157 23.861 48.736 24.157L48.7394 24.1595C48.813 24.2122 48.8707 24.2836 48.9063 24.366C48.942 24.4484 48.9543 24.5389 48.942 24.6276L48.7445 26.1018C48.3908 28.6901 47.9603 31.9469 46.847 34.9002C46.69 35.3151 46.5212 35.7234 46.3355 36.1225C45.5436 37.755 44.3898 39.1915 42.9592 40.3262C41.5286 41.4609 39.8576 42.2647 38.0696 42.6785C37.1723 42.8863 36.2354 42.9961 35.2732 42.9961C34.3067 42.9961 33.3673 42.8863 32.4641 42.6776C30.7096 42.2688 29.0681 41.4844 27.656 40.3802C26.2439 39.2761 25.0959 37.8792 24.2935 36.2888C24.0547 35.7858 23.8395 35.2722 23.6487 34.7497C23.1574 33.4161 22.8029 32.0259 22.5294 30.664C22.1665 28.8631 21.947 27.1145 21.7411 25.6254L21.606 24.631C21.5938 24.5406 21.6069 24.4486 21.6439 24.3651C21.681 24.2815 21.7406 24.2096 21.8162 24.157C22.2357 23.861 23.0511 23.4561 24.616 23.0928C25.1492 22.9694 25.687 22.866 26.2281 22.7826C27.1728 22.635 28.1228 22.5227 29.076 22.4459C29.2862 21.9587 29.5014 21.4598 29.7319 20.936C29.8543 20.655 29.9707 20.3723 30.0948 20.0713L30.1387 19.9615C30.592 18.8607 31.0697 17.7291 31.8935 16.7255C32.8085 15.6114 34.0104 14.9961 35.2748 14.9961ZM35.2748 17.3973C34.5802 17.3973 34.0459 17.9228 33.7884 18.2354C33.5909 18.4766 33.4154 18.7385 33.2558 19.017C32.9123 19.6115 32.6388 20.2791 32.3544 20.9726C32.2303 21.2711 32.1037 21.5812 31.9703 21.8872C31.9112 22.0202 31.8538 22.1516 31.7973 22.2829C32.9559 22.2391 34.1154 22.2178 35.2748 22.2189C36.5477 22.2189 37.7032 22.2414 38.7532 22.2829C38.6967 22.1516 38.6401 22.0202 38.5811 21.8863C38.4477 21.5812 38.3194 21.2711 38.197 20.9726C37.9126 20.2791 37.6382 19.6123 37.2955 19.0187C37.14 18.7435 36.9616 18.4815 36.7621 18.2354C36.5047 17.9228 35.9704 17.3973 35.2748 17.3973Z" fill="url(#paint0_linear_1333_2971)"/>
<defs>
<linearGradient id="paint0_linear_1333_2971" x1="35.2741" y1="14.9961" x2="35.2741" y2="42.9961" gradientUnits="userSpaceOnUse">
<stop stop-color="#98DC02"/>
<stop offset="1" stop-color="#00A15A"/>
</linearGradient>
</defs>
</svg>
