<svg width="161" height="57" viewBox="0 0 161 57" fill="none" xmlns="http://www.w3.org/2000/svg">
<rect x="0.601562" y="0.996094" width="160" height="56" rx="16" fill="white"/>
<path d="M25.8949 17.3756C25.5522 17.7389 25.3772 18.2061 25.4058 18.6814V39.3069C25.3705 39.7824 25.5453 40.2522 25.894 40.6126L25.9675 40.6877L38.8427 29.1339V28.8535L25.9675 17.3105L25.894 17.3756H25.8949Z" fill="#246ACA"/>
<path d="M43.1041 32.9868L38.8428 29.1355V28.8552L43.1041 25.0039L43.1971 25.0606L48.3 27.6529C49.7551 28.3896 49.7551 29.6011 48.3 30.3478L43.2185 32.9401L43.1041 32.9868Z" fill="#FAD81A"/>
<path d="M43.2292 32.9288L38.8432 28.9941L25.8955 40.613C26.1892 40.8477 26.5652 40.9828 26.9582 40.9946C27.3512 41.0065 27.7365 40.8945 28.0471 40.6781L43.2301 32.9288" fill="#FF0000"/>
<path d="M43.2291 25.06L28.0452 17.32C27.7366 17.1009 27.3518 16.9865 26.9585 16.9967C26.5652 17.0069 26.1885 17.1412 25.8945 17.3759L38.8432 28.9948L43.2291 25.06Z" fill="url(#paint0_linear_1333_2955)"/>
<path opacity="0.2" d="M43.1045 32.8477L28.0461 40.5402C27.4306 40.9574 26.5826 40.9574 25.968 40.5402L25.8945 40.6061L25.968 40.6812C26.5826 41.0967 27.4306 41.0967 28.0461 40.6812L43.2291 32.9311L43.1045 32.8477Z" fill="black"/>
<path opacity="0.12" d="M25.8951 40.4829C25.5611 40.113 25.3975 39.6426 25.4376 39.168V39.3073C25.4023 39.7829 25.5771 40.2526 25.9258 40.613L25.9983 40.548L25.8941 40.482L25.8951 40.4829ZM48.3 30.2064L43.1042 32.8454L43.1971 32.9288L48.3 30.3366C48.601 30.2222 48.8621 30.0372 49.0558 29.801C49.2496 29.5647 49.3688 29.286 49.4009 28.9941C49.3359 29.2595 49.2023 29.5075 49.0109 29.7181C48.8195 29.9286 48.5757 30.0959 48.2991 30.2064H48.3Z" fill="black"/>
<path opacity="0.25" d="M28.046 17.4513L48.3002 27.7828C48.5767 27.8934 48.8204 28.0608 49.0116 28.2713C49.2028 28.4819 49.3362 28.7298 49.4012 28.9951C49.3691 28.703 49.2498 28.424 49.0559 28.1876C48.862 27.9512 48.6006 27.7661 48.2993 27.6518L28.046 17.3211C26.6011 16.5752 25.4062 17.191 25.4062 18.6828V18.8221C25.4379 17.3303 26.6011 16.7154 28.046 17.4521V17.4513Z" fill="#323133"/>
<path d="M88.0263 25.1388C87.3299 25.1421 86.6502 25.3289 86.073 25.6756C85.4957 26.0224 85.0468 26.5135 84.7828 27.0871C84.5189 27.6607 84.4517 28.291 84.5898 28.8985C84.728 29.5061 85.0652 30.0635 85.5589 30.5007C86.0526 30.9378 86.6808 31.235 87.3641 31.3547C88.0474 31.4744 88.7552 31.4113 89.3983 31.1734C90.0414 30.9354 90.5908 30.5333 90.9773 30.0177C91.3639 29.5021 91.5702 28.8962 91.5702 28.2763C91.5766 27.8613 91.4892 27.4494 91.3132 27.065C91.1371 26.6807 90.876 26.3318 90.5454 26.0391C90.2148 25.7464 89.8214 25.5158 89.3886 25.3612C88.9559 25.2065 88.4926 25.1309 88.0263 25.1388ZM88.0263 30.199C87.5972 30.2261 87.1688 30.1376 86.797 29.9449C86.4252 29.7522 86.1272 29.4643 85.9419 29.1188C85.7566 28.7732 85.6925 28.3859 85.758 28.0075C85.8235 27.629 86.0156 27.2769 86.3092 26.997C86.6028 26.7171 86.9843 26.5224 87.404 26.4383C87.8237 26.3541 88.2622 26.3844 88.6623 26.5253C89.0623 26.6661 89.4055 26.911 89.647 27.2279C89.8885 27.5448 90.0171 27.9191 90.0161 28.302C90.0248 28.5414 89.9801 28.78 89.8846 29.004C89.7891 29.228 89.6447 29.4329 89.4596 29.6069C89.2746 29.7809 89.0527 29.9206 88.8067 30.0178C88.5607 30.115 88.2955 30.1679 88.0263 30.1733V30.199ZM80.3139 25.1388C79.6175 25.1421 78.9377 25.3289 78.3605 25.6756C77.7832 26.0224 77.3343 26.5135 77.0704 27.0871C76.8064 27.6607 76.7392 28.291 76.8774 28.8985C77.0155 29.5061 77.3527 30.0635 77.8464 30.5007C78.3402 30.9378 78.9683 31.235 79.6516 31.3547C80.3349 31.4744 81.0428 31.4113 81.6858 31.1734C82.3289 30.9354 82.8783 30.5333 83.2649 30.0177C83.6514 29.5021 83.8577 28.8962 83.8577 28.2763C83.8641 27.8613 83.7767 27.4494 83.6007 27.065C83.4247 26.6807 83.1636 26.3318 82.8329 26.0391C82.5023 25.7464 82.1089 25.5158 81.6762 25.3612C81.2434 25.2065 80.7801 25.1309 80.3139 25.1388ZM80.3139 30.199C79.8847 30.2261 79.4563 30.1376 79.0845 29.9449C78.7127 29.7522 78.4147 29.4643 78.2294 29.1188C78.0441 28.7732 77.98 28.3859 78.0455 28.0075C78.111 27.629 78.3031 27.2769 78.5967 26.997C78.8903 26.7171 79.2718 26.5224 79.6915 26.4383C80.1112 26.3541 80.5497 26.3844 80.9498 26.5253C81.3499 26.6661 81.693 26.911 81.9345 27.2279C82.176 27.5448 82.3046 27.9191 82.3037 28.302C82.3124 28.5414 82.2676 28.78 82.1721 29.004C82.0766 29.228 81.9322 29.4329 81.7471 29.6069C81.5621 29.7809 81.3402 29.9206 81.0942 30.0178C80.8482 30.115 80.583 30.1679 80.3139 30.1733V30.199ZM71.1406 26.1002V27.4327H74.7133C74.6719 28.0625 74.3839 28.6595 73.8994 29.1199C73.5431 29.4468 73.1132 29.7029 72.6379 29.8714C72.1626 30.0399 71.6526 30.1171 71.1414 30.0979C70.1205 30.0538 69.1578 29.6619 68.4527 29.0032C67.7477 28.3446 67.3544 27.4698 67.3544 26.5601C67.3544 25.6504 67.7477 24.7755 68.4527 24.1169C69.1578 23.4582 70.1205 23.0663 71.1414 23.0223C72.1435 23.0081 73.111 23.3478 73.8324 23.967L74.8938 23.0313C74.395 22.5936 73.8026 22.2493 73.1517 22.0188C72.5008 21.7884 71.8045 21.6765 71.1041 21.6897C70.3665 21.6626 69.6304 21.7685 68.9399 22.001C68.2494 22.2336 67.6189 22.588 67.0862 23.0429C66.5535 23.4978 66.1297 24.0439 65.8402 24.6483C65.5506 25.2527 65.4014 25.903 65.4014 26.5601C65.4014 27.2171 65.5506 27.8674 65.8402 28.4718C66.1297 29.0762 66.5535 29.6223 67.0862 30.0772C67.6189 30.5322 68.2494 30.8866 68.9399 31.1191C69.6304 31.3516 70.3665 31.4575 71.1041 31.4304C71.808 31.4515 72.5091 31.3408 73.1619 31.1056C73.8147 30.8703 74.4047 30.5157 74.8938 30.0647C75.7621 29.2159 76.2244 28.0993 76.1825 26.9521C76.1895 26.6695 76.1639 26.3871 76.1062 26.1092L71.1414 26.1002H71.1406ZM108.664 27.1377C108.453 26.5698 108.051 26.0734 107.512 25.7159C106.973 25.3583 106.323 25.1569 105.651 25.1388C105.199 25.1417 104.751 25.2261 104.336 25.3871C103.921 25.548 103.546 25.7821 103.235 26.0753C102.925 26.3685 102.684 26.7147 102.527 27.0929C102.371 27.4712 102.302 27.8738 102.325 28.2763C102.315 28.6887 102.398 29.0987 102.57 29.4818C102.742 29.8649 102.998 30.2133 103.325 30.5061C103.651 30.799 104.04 31.0303 104.469 31.1863C104.898 31.3422 105.358 31.4196 105.822 31.4138C106.402 31.4158 106.974 31.2897 107.487 31.0469C107.999 30.8041 108.436 30.4521 108.759 30.0224L107.556 29.3056C107.373 29.5671 107.117 29.7821 106.813 29.9297C106.509 30.0774 106.168 30.1527 105.822 30.1484C105.463 30.1602 105.108 30.0755 104.804 29.9056C104.5 29.7356 104.26 29.4882 104.116 29.1954L108.854 27.4674L108.664 27.1377ZM103.86 28.1835C103.838 27.9538 103.869 27.7224 103.951 27.5037C104.034 27.2851 104.166 27.0838 104.339 26.9123C104.512 26.7408 104.723 26.6028 104.958 26.5067C105.194 26.4106 105.449 26.3585 105.708 26.3537C105.976 26.3383 106.242 26.3933 106.474 26.5118C106.707 26.6303 106.895 26.807 107.015 27.02L103.86 28.1835ZM100.07 31.2199H101.557V22.0021H100.031L100.07 31.2199ZM97.5396 25.8391H97.4828C97.2432 25.6067 96.9495 25.4236 96.6223 25.3027C96.295 25.1817 95.942 25.1258 95.5879 25.1388C94.653 25.1388 93.7564 25.4694 93.0953 26.0578C92.4342 26.6462 92.0628 27.4442 92.0628 28.2763C92.0628 29.1084 92.4342 29.9065 93.0953 30.4949C93.7564 31.0833 94.653 31.4138 95.5879 31.4138C95.9436 31.4259 96.2979 31.3679 96.6254 31.244C96.953 31.1201 97.2458 30.9333 97.4828 30.697H97.5396V31.152C97.5797 31.3886 97.5599 31.6302 97.4814 31.8591C97.4029 32.088 97.2679 32.2983 97.0862 32.4747C96.9044 32.651 96.6807 32.7889 96.4312 32.8783C96.1818 32.9676 95.9131 33.0061 95.6447 32.9909C95.2557 32.9884 94.8769 32.8793 94.5599 32.6786C94.2429 32.4779 94.003 32.1951 93.8728 31.8688L92.5273 32.3744C92.7806 32.9241 93.2127 33.3937 93.7682 33.723C94.3238 34.0524 94.9773 34.2262 95.6447 34.2223C97.4641 34.2223 98.9995 33.2776 98.9995 30.9581V25.3162H97.5023L97.5396 25.8391ZM95.7592 30.1741C95.218 30.1408 94.7112 29.926 94.3411 29.5731C93.971 29.2201 93.7651 28.7553 93.7651 28.2726C93.7651 27.7898 93.971 27.325 94.3411 26.972C94.7112 26.6191 95.218 26.4043 95.7592 26.371C96.0265 26.3816 96.2886 26.44 96.5299 26.5428C96.7712 26.6456 96.9868 26.7907 97.1636 26.9693C97.3405 27.148 97.4751 27.3565 97.5594 27.5825C97.6437 27.8085 97.6758 28.0473 97.654 28.2846C97.6762 28.5235 97.6428 28.764 97.556 28.9909C97.4692 29.2178 97.3308 29.4264 97.1494 29.6037C96.9681 29.7809 96.7477 29.923 96.5019 30.0212C96.2562 30.1193 95.9904 30.1714 95.721 30.1741H95.7583H95.7592ZM115.961 22.0021H112.256V31.2191H113.8V27.7278H115.961C116.397 27.7477 116.834 27.6884 117.243 27.5535C117.653 27.4186 118.028 27.2109 118.345 26.943C118.662 26.6752 118.914 26.3527 119.086 25.9953C119.259 25.638 119.348 25.2531 119.348 24.8642C119.348 24.4752 119.259 24.0904 119.086 23.733C118.914 23.3756 118.662 23.0532 118.345 22.7853C118.028 22.5174 117.653 22.3097 117.243 22.1748C116.834 22.0399 116.397 21.9806 115.961 22.0006V22.0021ZM115.961 26.4465H113.762V23.2841H115.961C116.205 23.2676 116.451 23.2963 116.683 23.3682C116.914 23.4402 117.126 23.5539 117.306 23.7024C117.486 23.8508 117.63 24.0306 117.728 24.2307C117.826 24.4307 117.876 24.6466 117.876 24.8649C117.876 25.0832 117.826 25.2991 117.728 25.4992C117.63 25.6992 117.486 25.8791 117.306 26.0275C117.126 26.1759 116.914 26.2896 116.683 26.3616C116.451 26.4336 116.205 26.4622 115.961 26.4457V26.4465ZM125.511 25.1222C124.948 25.0925 124.386 25.2099 123.897 25.46C123.407 25.7101 123.01 26.0821 122.754 26.5303L124.128 27.0449C124.401 26.5861 124.959 26.3205 125.54 26.3703C125.734 26.3529 125.929 26.3696 126.115 26.4196C126.302 26.4696 126.475 26.5518 126.625 26.6615C126.776 26.7712 126.901 26.9062 126.992 27.0589C127.084 27.2116 127.141 27.3789 127.16 27.5512V27.644C126.663 27.4131 126.11 27.2915 125.549 27.2894C124.072 27.2894 122.565 28.0152 122.565 29.3644C122.58 29.6491 122.658 29.9284 122.796 30.1857C122.933 30.443 123.128 30.6732 123.367 30.8626C123.606 31.052 123.886 31.1968 124.189 31.2885C124.492 31.3802 124.813 31.4169 125.132 31.3965C125.938 31.4493 126.71 31.1022 127.142 30.494V31.2199H128.629V27.6689C128.648 26.033 127.283 25.1222 125.511 25.1222ZM125.322 30.1824C124.82 30.1824 124.11 29.9545 124.11 29.3976C124.11 28.6898 124.991 28.4114 125.749 28.4114C126.232 28.3938 126.713 28.4898 127.142 28.6898C127.088 29.0899 126.874 29.4595 126.541 29.7317C126.207 30.004 125.775 30.1609 125.322 30.1741V30.1816V30.1824ZM134.087 25.3162L132.315 29.3139H132.258L130.42 25.3162H128.762L131.519 30.8992L129.984 34.0111H131.595L135.802 25.3162H134.087ZM120.168 31.2199H121.712V22.0021H120.168V31.2191V31.2199Z" fill="#323133"/>
<path d="M91.5702 28.2763L91.4702 28.2748V28.2763L91.5702 28.2763ZM88.0263 30.199L88.0327 30.2988L88.1263 30.2928V30.199H88.0263ZM90.0161 28.302L89.9161 28.3017L89.9162 28.3056L90.0161 28.302ZM88.0263 30.1733L88.0243 30.0733L87.9263 30.0753V30.1733H88.0263ZM80.3139 25.1388L80.3143 25.2388L80.3156 25.2388L80.3139 25.1388ZM83.8577 28.2763L83.7577 28.2748V28.2763L83.8577 28.2763ZM80.3139 30.199L80.3202 30.2988L80.4139 30.2928V30.199H80.3139ZM82.3037 28.302L82.2036 28.3017L82.2037 28.3056L82.3037 28.302ZM80.3139 30.1733L80.3118 30.0733L80.2139 30.0753V30.1733H80.3139ZM71.1406 26.1002V26.0002H71.0406V26.1002H71.1406ZM71.1406 27.4327H71.0406V27.5327H71.1406V27.4327ZM74.7133 27.4327L74.813 27.4393L74.82 27.3327H74.7133V27.4327ZM73.8994 29.1199L73.967 29.1936L73.9682 29.1924L73.8994 29.1199ZM71.1414 30.0979L71.1371 30.1978L71.1377 30.1978L71.1414 30.0979ZM71.1414 23.0223L71.14 22.9222L71.1371 22.9224L71.1414 23.0223ZM73.8324 23.967L73.7672 24.0429L73.8333 24.0995L73.8985 24.042L73.8324 23.967ZM74.8938 23.0313L74.96 23.1063L75.0453 23.0312L74.9598 22.9562L74.8938 23.0313ZM71.1041 21.6897L71.1005 21.7898L71.106 21.7897L71.1041 21.6897ZM65.4014 26.5601H65.5014H65.4014ZM71.1041 31.4304L71.1071 31.3302L71.1005 31.3305L71.1041 31.4304ZM74.8938 30.0647L74.9617 30.1382L74.9637 30.1362L74.8938 30.0647ZM76.1825 26.9521L76.0823 26.9496L76.0826 26.9557L76.1825 26.9521ZM76.1062 26.1092L76.2041 26.0889L76.1876 26.0094L76.1064 26.0092L76.1062 26.1092ZM71.1414 26.1002L71.1416 26.0002H71.1414V26.1002ZM105.651 25.1388L105.654 25.0388L105.651 25.0388L105.651 25.1388ZM102.325 28.2763L102.426 28.2788L102.425 28.2706L102.325 28.2763ZM105.822 31.4138L105.822 31.3138L105.821 31.3138L105.822 31.4138ZM108.759 30.0224L108.839 30.0824L108.905 29.9934L108.81 29.9365L108.759 30.0224ZM107.556 29.3056L107.607 29.2197L107.527 29.1721L107.474 29.2482L107.556 29.3056ZM105.822 30.1484L105.823 30.0483L105.819 30.0485L105.822 30.1484ZM104.116 29.1954L104.082 29.1014L103.977 29.1396L104.026 29.2396L104.116 29.1954ZM108.854 27.4674L108.888 27.5614L108.999 27.5207L108.94 27.4177L108.854 27.4674ZM105.708 26.3537L105.71 26.4537L105.714 26.4535L105.708 26.3537ZM107.015 27.02L107.05 27.1138L107.16 27.0731L107.103 26.9708L107.015 27.02ZM101.557 31.2199V31.3199H101.657V31.2199H101.557ZM101.557 22.0021H101.657V21.9021H101.557V22.0021ZM100.031 22.0021V21.9021H99.9309L99.9313 22.0025L100.031 22.0021ZM97.4828 25.8391L97.4131 25.9108L97.4422 25.9391H97.4828V25.8391ZM95.5879 25.1388V25.2389L95.5916 25.2388L95.5879 25.1388ZM95.5879 31.4138L95.5913 31.3138H95.5879V31.4138ZM97.4828 30.697V30.597H97.4414L97.4122 30.6262L97.4828 30.697ZM97.5396 30.697H97.6396V30.597H97.5396V30.697ZM97.5396 31.152H97.4396V31.1604L97.441 31.1687L97.5396 31.152ZM95.6447 32.9909L95.6504 32.8909L95.6454 32.8909L95.6447 32.9909ZM93.8728 31.8688L93.9657 31.8318L93.9294 31.7408L93.8376 31.7752L93.8728 31.8688ZM92.5273 32.3744L92.4922 32.2808L92.3915 32.3186L92.4365 32.4162L92.5273 32.3744ZM95.6447 34.2223V34.1223L95.6441 34.1223L95.6447 34.2223ZM98.9995 25.3162H99.0995V25.2162H98.9995V25.3162ZM97.5023 25.3162V25.2162H97.3949L97.4025 25.3233L97.5023 25.3162ZM95.7592 30.1741V30.2741L95.7653 30.0743L95.7592 30.1741ZM95.7592 26.371L95.7632 26.2706L95.7531 26.2712L95.7592 26.371ZM97.654 28.2846L97.5544 28.2755L97.5536 28.2847L97.5545 28.2939L97.654 28.2846ZM95.721 30.1741L95.72 30.0741L95.721 30.2741V30.1741ZM115.961 22.0021V22.1021H116.061V22.0021H115.961ZM112.256 22.0021V21.9021H112.156V22.0021H112.256ZM112.256 31.2191H112.156V31.3191H112.256V31.2191ZM113.8 31.2191V31.3191H113.9V31.2191H113.8ZM113.8 27.7278V27.6278H113.7V27.7278H113.8ZM115.961 27.7278L115.965 27.6278H115.961V27.7278ZM115.961 22.0006L115.956 21.9007L115.861 21.905V22.0006H115.961ZM115.961 26.4465V26.5465H116.061V26.4465H115.961ZM113.762 26.4465H113.662V26.5465H113.762V26.4465ZM113.762 23.2841V23.1841H113.662V23.2841H113.762ZM115.961 23.2841V23.3843L115.967 23.3839L115.961 23.2841ZM115.961 26.4457L115.967 26.346L115.861 26.3388V26.4457H115.961ZM122.754 26.5303L122.667 26.4807L122.609 26.5827L122.719 26.6239L122.754 26.5303ZM124.128 27.0449L124.093 27.1385L124.171 27.1678L124.213 27.0961L124.128 27.0449ZM125.54 26.3703L125.532 26.4699L125.54 26.4707L125.549 26.4699L125.54 26.3703ZM127.16 27.5512H127.261L127.26 27.5402L127.16 27.5512ZM127.16 27.644L127.118 27.7347L127.26 27.8007V27.644H127.16ZM125.549 27.2894L125.55 27.1894H125.549V27.2894ZM122.565 29.3644H122.465L122.465 29.3695L122.565 29.3644ZM125.132 31.3965L125.139 31.2958L125.126 31.2967L125.132 31.3965ZM127.142 30.494H127.242V30.1803L127.06 30.4361L127.142 30.494ZM127.142 31.2199H127.042V31.3199H127.142V31.2199ZM128.629 31.2199V31.3199H128.729V31.2199H128.629ZM128.629 27.6689L128.529 27.6677V27.6689H128.629ZM125.322 30.1824V30.2824H125.422V30.1824H125.322ZM125.749 28.4114V28.5115L125.752 28.5113L125.749 28.4114ZM127.142 28.6898L127.241 28.7032L127.251 28.6303L127.184 28.5992L127.142 28.6898ZM125.322 30.1741L125.319 30.0741L125.222 30.0769V30.1741H125.322ZM134.087 25.3162V25.2162H134.022L133.995 25.2756L134.087 25.3162ZM132.315 29.3139V29.4139H132.38L132.406 29.3544L132.315 29.3139ZM132.258 29.3139L132.167 29.3556L132.194 29.4139H132.258V29.3139ZM130.42 25.3162L130.511 25.2744L130.484 25.2162H130.42V25.3162ZM128.762 25.3162V25.2162H128.601L128.672 25.3604L128.762 25.3162ZM131.519 30.8992L131.608 30.9434L131.63 30.8992L131.608 30.8549L131.519 30.8992ZM129.984 34.0111L129.895 33.9668L129.823 34.1111H129.984V34.0111ZM131.595 34.0111V34.1111H131.658L131.685 34.0546L131.595 34.0111ZM135.802 25.3162L135.892 25.3597L135.961 25.2162H135.802V25.3162ZM120.168 31.2199H120.068V31.3199H120.168V31.2199ZM121.712 31.2199V31.3199H121.812V31.2199H121.712ZM121.712 22.0021H121.812V21.9021H121.712V22.0021ZM120.168 22.0021V21.9021H120.068V22.0021H120.168ZM88.0259 25.0388C87.3121 25.0422 86.6147 25.2336 86.0215 25.5899L86.1245 25.7614C86.6858 25.4242 87.3477 25.242 88.0268 25.2388L88.0259 25.0388ZM86.0215 25.5899C85.4282 25.9463 84.9649 26.4522 84.692 27.0453L84.8737 27.1289C85.1287 26.5748 85.5632 26.0985 86.1245 25.7614L86.0215 25.5899ZM84.692 27.0453C84.419 27.6386 84.3493 28.2914 84.4923 28.9207L84.6874 28.8764C84.5542 28.2906 84.6188 27.6828 84.8737 27.1289L84.692 27.0453ZM84.4923 28.9207C84.6354 29.5499 84.9842 30.1254 85.4926 30.5756L85.6252 30.4258C85.1461 30.0017 84.8206 29.4623 84.6874 28.8764L84.4923 28.9207ZM85.4926 30.5756C86.0009 31.0256 86.6463 31.3305 87.3468 31.4532L87.3814 31.2562C86.7153 31.1395 86.1044 30.85 85.6252 30.4258L85.4926 30.5756ZM87.3468 31.4532C88.0474 31.5759 88.7731 31.5113 89.433 31.2672L89.3636 31.0796C88.7373 31.3113 88.0474 31.3729 87.3814 31.2562L87.3468 31.4532ZM89.433 31.2672C90.0929 31.023 90.6585 30.6097 91.0574 30.0777L90.8973 29.9577C90.5231 30.4569 89.9898 30.8479 89.3636 31.0796L89.433 31.2672ZM91.0574 30.0777C91.4563 29.5455 91.6702 28.9187 91.6702 28.2763L91.4702 28.2763C91.4702 28.8736 91.2714 29.4587 90.8973 29.9577L91.0574 30.0777ZM91.6702 28.2779C91.6769 27.8477 91.5862 27.421 91.4041 27.0234L91.2223 27.1067C91.3922 27.4777 91.4764 27.8749 91.4702 28.2748L91.6702 28.2779ZM91.4041 27.0234C91.222 26.6258 90.9523 26.2657 90.6117 25.9642L90.4791 26.1139C90.7998 26.3978 91.0523 26.7356 91.2223 27.1067L91.4041 27.0234ZM90.6117 25.9642C90.2711 25.6627 89.8666 25.4258 89.4223 25.267L89.355 25.4553C89.7762 25.6059 90.1584 25.83 90.4791 26.1139L90.6117 25.9642ZM89.4223 25.267C88.978 25.1082 88.5028 25.0307 88.0246 25.0388L88.028 25.2388C88.4824 25.2311 88.9337 25.3048 89.355 25.4553L89.4223 25.267ZM88.02 30.0992C87.6085 30.1252 87.1983 30.0402 86.843 29.8561L86.751 30.0337C87.1394 30.2349 87.5859 30.327 88.0327 30.2988L88.02 30.0992ZM86.843 29.8561C86.4878 29.672 86.2052 29.3981 86.03 29.0715L85.8538 29.166C86.0493 29.5306 86.3626 29.8324 86.751 30.0337L86.843 29.8561ZM86.03 29.0715C85.855 28.7452 85.7949 28.3805 85.8565 28.0245L85.6595 27.9904C85.5901 28.3914 85.6581 28.8012 85.8538 29.166L86.03 29.0715ZM85.8565 28.0245C85.9182 27.6685 86.0992 27.3354 86.3782 27.0694L86.2402 26.9246C85.932 27.2185 85.7289 27.5896 85.6595 27.9904L85.8565 28.0245ZM86.3782 27.0694C86.6573 26.8033 87.0214 26.617 87.4237 26.5363L87.3844 26.3402C86.9472 26.4279 86.5482 26.6309 86.2402 26.9246L86.3782 27.0694ZM87.4237 26.5363C87.8259 26.4557 88.2461 26.4848 88.6291 26.6196L88.6955 26.431C88.2783 26.2841 87.8215 26.2526 87.3844 26.3402L87.4237 26.5363ZM88.6291 26.6196C89.012 26.7544 89.3385 26.9881 89.5674 27.2885L89.7265 27.1672C89.4724 26.8338 89.1127 26.5778 88.6955 26.431L88.6291 26.6196ZM89.5674 27.2885C89.7962 27.5887 89.9171 27.9417 89.9161 28.3017L90.1161 28.3022C90.1172 27.8964 89.9807 27.5009 89.7265 27.1672L89.5674 27.2885ZM89.9162 28.3056C89.9244 28.5301 89.8825 28.7541 89.7926 28.9648L89.9766 29.0432C90.0778 28.806 90.1253 28.5527 90.1161 28.2984L89.9162 28.3056ZM89.7926 28.9648C89.7028 29.1755 89.5665 29.3691 89.3911 29.5341L89.5281 29.6797C89.7228 29.4967 89.8754 29.2805 89.9766 29.0432L89.7926 28.9648ZM89.3911 29.5341C89.2157 29.699 89.0047 29.832 88.7699 29.9248L88.8434 30.1108C89.1007 30.0091 89.3335 29.8628 89.5281 29.6797L89.3911 29.5341ZM88.7699 29.9248C88.5352 30.0175 88.2817 30.0681 88.0243 30.0733L88.0284 30.2733C88.3092 30.2676 88.5862 30.2124 88.8434 30.1108L88.7699 29.9248ZM87.9263 30.1733V30.199H88.1263V30.1733H87.9263ZM80.3134 25.0388C79.5996 25.0422 78.9022 25.2336 78.309 25.5899L78.412 25.7614C78.9733 25.4242 79.6353 25.242 80.3143 25.2388L80.3134 25.0388ZM78.309 25.5899C77.7157 25.9463 77.2524 26.4522 76.9795 27.0453L77.1612 27.1289C77.4162 26.5748 77.8507 26.0985 78.412 25.7614L78.309 25.5899ZM76.9795 27.0453C76.7065 27.6386 76.6368 28.2914 76.7798 28.9207L76.9749 28.8764C76.8417 28.2906 76.9063 27.6828 77.1612 27.1289L76.9795 27.0453ZM76.7798 28.9207C76.9229 29.5499 77.2717 30.1254 77.7801 30.5756L77.9127 30.4258C77.4337 30.0017 77.1081 29.4623 76.9749 28.8764L76.7798 28.9207ZM77.7801 30.5756C78.2884 31.0256 78.9338 31.3305 79.6344 31.4532L79.6689 31.2562C79.0028 31.1395 78.3919 30.85 77.9127 30.4258L77.7801 30.5756ZM79.6344 31.4532C80.3349 31.5759 81.0607 31.5113 81.7205 31.2672L81.6511 31.0796C81.0248 31.3113 80.335 31.3729 79.6689 31.2562L79.6344 31.4532ZM81.7205 31.2672C82.3804 31.023 82.9461 30.6097 83.3449 30.0777L83.1848 29.9577C82.8106 30.4569 82.2773 30.8479 81.6511 31.0796L81.7205 31.2672ZM83.3449 30.0777C83.7438 29.5455 83.9577 28.9187 83.9577 28.2763L83.7577 28.2763C83.7577 28.8736 83.559 29.4587 83.1848 29.9577L83.3449 30.0777ZM83.9577 28.2779C83.9644 27.8477 83.8737 27.421 83.6916 27.0234L83.5098 27.1067C83.6797 27.4777 83.7639 27.8749 83.7577 28.2748L83.9577 28.2779ZM83.6916 27.0234C83.5095 26.6258 83.2398 26.2657 82.8992 25.9642L82.7666 26.1139C83.0873 26.3978 83.3398 26.7356 83.5098 27.1067L83.6916 27.0234ZM82.8992 25.9642C82.5587 25.6627 82.1541 25.4258 81.7098 25.267L81.6425 25.4553C82.0637 25.6059 82.446 25.83 82.7666 26.1139L82.8992 25.9642ZM81.7098 25.267C81.2655 25.1082 80.7903 25.0307 80.3122 25.0388L80.3156 25.2388C80.77 25.2311 81.2213 25.3048 81.6425 25.4553L81.7098 25.267ZM80.3075 30.0992C79.896 30.1252 79.4858 30.0402 79.1305 29.8561L79.0385 30.0337C79.4269 30.2349 79.8734 30.327 80.3202 30.2988L80.3075 30.0992ZM79.1305 29.8561C78.7754 29.672 78.4927 29.3981 78.3175 29.0715L78.1413 29.166C78.3368 29.5306 78.6501 29.8324 79.0385 30.0337L79.1305 29.8561ZM78.3175 29.0715C78.1425 28.7452 78.0824 28.3805 78.1441 28.0245L77.947 27.9904C77.8776 28.3914 77.9457 28.8012 78.1413 29.166L78.3175 29.0715ZM78.1441 28.0245C78.2057 27.6685 78.3867 27.3354 78.6657 27.0694L78.5277 26.9246C78.2195 27.2185 78.0164 27.5896 77.947 27.9904L78.1441 28.0245ZM78.6657 27.0694C78.9448 26.8033 79.3089 26.617 79.7112 26.5363L79.6719 26.3402C79.2347 26.4279 78.8358 26.6309 78.5277 26.9246L78.6657 27.0694ZM79.7112 26.5363C80.1134 26.4557 80.5336 26.4848 80.9166 26.6196L80.983 26.431C80.5658 26.2841 80.109 26.2526 79.6719 26.3402L79.7112 26.5363ZM80.9166 26.6196C81.2995 26.7544 81.6261 26.9881 81.8549 27.2885L82.014 27.1672C81.7599 26.8338 81.4002 26.5778 80.983 26.431L80.9166 26.6196ZM81.8549 27.2885C82.0837 27.5887 82.2046 27.9417 82.2037 28.3017L82.4037 28.3022C82.4047 27.8964 82.2683 27.5009 82.014 27.1672L81.8549 27.2885ZM82.2037 28.3056C82.2119 28.5301 82.17 28.7541 82.0801 28.9648L82.2641 29.0432C82.3653 28.806 82.4128 28.5527 82.4036 28.2984L82.2037 28.3056ZM82.0801 28.9648C81.9903 29.1755 81.854 29.3691 81.6786 29.5341L81.8157 29.6797C82.0103 29.4967 82.1629 29.2805 82.2641 29.0432L82.0801 28.9648ZM81.6786 29.5341C81.5032 29.699 81.2922 29.832 81.0574 29.9248L81.1309 30.1108C81.3882 30.0091 81.621 29.8628 81.8157 29.6797L81.6786 29.5341ZM81.0574 29.9248C80.8227 30.0175 80.5692 30.0681 80.3118 30.0733L80.3159 30.2733C80.5967 30.2676 80.8737 30.2124 81.1309 30.1108L81.0574 29.9248ZM80.2139 30.1733V30.199H80.4139V30.1733H80.2139ZM71.0406 26.1002V27.4327H71.2406V26.1002H71.0406ZM71.1406 27.5327H74.7133V27.3327H71.1406V27.5327ZM74.6135 27.4262C74.5739 28.0293 74.298 28.6032 73.8305 29.0474L73.9682 29.1924C74.4698 28.7158 74.7699 28.0957 74.813 27.4393L74.6135 27.4262ZM73.8318 29.0463C73.4858 29.3636 73.0677 29.6129 72.6045 29.7772L72.6713 29.9657C73.1587 29.7928 73.6004 29.5299 73.967 29.1936L73.8318 29.0463ZM72.6045 29.7772C72.1413 29.9414 71.6439 30.0167 71.1452 29.9979L71.1377 30.1978C71.6613 30.2175 72.1839 30.1385 72.6713 29.9657L72.6045 29.7772ZM71.1458 29.998C70.1471 29.9549 69.2075 29.5715 68.521 28.9302L68.3845 29.0763C69.108 29.7523 70.0939 30.1528 71.1371 30.1978L71.1458 29.998ZM68.521 28.9302C67.8348 28.2892 67.4544 27.4402 67.4544 26.5601H67.2544C67.2544 27.4993 67.6606 28.4 68.3845 29.0763L68.521 28.9302ZM67.4544 26.5601C67.4544 25.6799 67.8348 24.831 68.521 24.19L68.3845 24.0438C67.6606 24.7201 67.2544 25.6208 67.2544 26.5601H67.4544ZM68.521 24.19C69.2075 23.5486 70.1471 23.1652 71.1458 23.1222L71.1371 22.9224C70.0939 22.9673 69.108 23.3679 68.3845 24.0438L68.521 24.19ZM71.1429 23.1223C72.122 23.1084 73.0655 23.4405 73.7672 24.0429L73.8975 23.8911C73.1566 23.2551 72.165 22.9078 71.14 22.9223L71.1429 23.1223ZM73.8985 24.042L74.96 23.1063L74.8277 22.9563L73.7663 23.892L73.8985 24.042ZM74.9598 22.9562C74.451 22.5097 73.8475 22.1591 73.1851 21.9246L73.1183 22.1131C73.7578 22.3395 74.339 22.6774 74.8279 23.1065L74.9598 22.9562ZM73.1851 21.9246C72.5226 21.6901 71.8145 21.5763 71.1023 21.5897L71.106 21.7897C71.7946 21.7767 72.4789 21.8867 73.1183 22.1131L73.1851 21.9246ZM71.1078 21.5898C70.3583 21.5622 69.61 21.6698 68.908 21.9063L68.9718 22.0958C69.6507 21.8672 70.3748 21.763 71.1005 21.7896L71.1078 21.5898ZM68.908 21.9063C68.2059 22.1427 67.5641 22.5033 67.0213 22.9668L67.1512 23.1189C67.6737 22.6726 68.2929 22.3244 68.9718 22.0958L68.908 21.9063ZM67.0213 22.9668C66.4785 23.4304 66.0458 23.9875 65.75 24.6051L65.9303 24.6915C66.2136 24.1002 66.6286 23.5652 67.1512 23.1189L67.0213 22.9668ZM65.75 24.6051C65.4541 25.2227 65.3014 25.8877 65.3014 26.5601H65.5014C65.5014 25.9183 65.6471 25.2827 65.9303 24.6915L65.75 24.6051ZM65.3014 26.5601C65.3014 27.2324 65.4541 27.8974 65.75 28.515L65.9303 28.4286C65.6471 27.8374 65.5014 27.2019 65.5014 26.5601H65.3014ZM65.75 28.515C66.0458 29.1326 66.4785 29.6897 67.0213 30.1533L67.1512 30.0012C66.6286 29.5549 66.2136 29.0199 65.9303 28.4286L65.75 28.515ZM67.0213 30.1533C67.5641 30.6168 68.2059 30.9774 68.908 31.2139L68.9718 31.0243C68.2929 30.7957 67.6737 30.4475 67.1512 30.0012L67.0213 30.1533ZM68.908 31.2139C69.61 31.4503 70.3583 31.5579 71.1078 31.5304L71.1005 31.3305C70.3748 31.3572 69.6507 31.253 68.9718 31.0243L68.908 31.2139ZM71.1012 31.5304C71.8174 31.5518 72.531 31.4392 73.1958 31.1996L73.128 31.0115C72.4872 31.2424 71.7987 31.3512 71.1071 31.3305L71.1012 31.5304ZM73.1958 31.1996C73.8606 30.9601 74.4623 30.5986 74.9616 30.1382L74.826 29.9911C74.3472 30.4327 73.7688 30.7806 73.128 31.0115L73.1958 31.1996ZM74.9637 30.1362C75.8509 29.269 76.3254 28.1256 76.2824 26.9484L76.0826 26.9557C76.1234 28.073 75.6734 29.1628 74.8239 29.9931L74.9637 30.1362ZM76.2825 26.9545C76.2897 26.6643 76.2634 26.3742 76.2041 26.0889L76.0083 26.1296C76.0645 26.4 76.0894 26.6747 76.0825 26.9496L76.2825 26.9545ZM76.1064 26.0092L71.1416 26.0002L71.1413 26.2002L76.106 26.2092L76.1064 26.0092ZM71.1414 26.0002H71.1406V26.2002H71.1414V26.0002ZM108.758 27.1028C108.539 26.5137 108.122 26.0009 107.567 25.6326L107.456 25.7992C107.979 26.1459 108.367 26.6258 108.571 27.1726L108.758 27.1028ZM107.567 25.6326C107.012 25.2642 106.344 25.0574 105.654 25.0389L105.649 25.2388C106.303 25.2564 106.934 25.4525 107.456 25.7992L107.567 25.6326ZM105.651 25.0388C105.186 25.0417 104.726 25.1284 104.3 25.2938L104.372 25.4803C104.776 25.3238 105.211 25.2416 105.652 25.2388L105.651 25.0388ZM104.3 25.2938C103.873 25.4592 103.487 25.7001 103.167 26.0026L103.304 26.1481C103.605 25.8641 103.968 25.6368 104.372 25.4803L104.3 25.2938ZM103.167 26.0026C102.846 26.305 102.597 26.6628 102.435 27.0547L102.62 27.1312C102.771 26.7665 103.003 26.432 103.304 26.1481L103.167 26.0026ZM102.435 27.0547C102.273 27.4467 102.202 27.8643 102.226 28.2821L102.425 28.2706C102.403 27.8833 102.469 27.4957 102.62 27.1312L102.435 27.0547ZM102.225 28.2738C102.215 28.7014 102.301 29.1262 102.479 29.5227L102.661 29.4409C102.496 29.0712 102.415 28.676 102.425 28.2788L102.225 28.2738ZM102.479 29.5227C102.656 29.9191 102.922 30.2788 103.258 30.5806L103.392 30.4317C103.075 30.1478 102.827 29.8107 102.661 29.4409L102.479 29.5227ZM103.258 30.5806C103.594 30.8823 103.995 31.1201 104.435 31.2802L104.504 31.0923C104.086 30.9405 103.708 30.7157 103.392 30.4317L103.258 30.5806ZM104.435 31.2802C104.876 31.4404 105.348 31.5197 105.823 31.5138L105.821 31.3138C105.369 31.3195 104.921 31.244 104.504 31.0923L104.435 31.2802ZM105.821 31.5138C106.417 31.5158 107.003 31.3867 107.53 31.1373L107.444 30.9566C106.945 31.1928 106.388 31.3157 105.822 31.3138L105.821 31.5138ZM107.53 31.1373C108.056 30.888 108.506 30.5259 108.839 30.0824L108.679 29.9624C108.367 30.3784 107.943 30.7203 107.444 30.9566L107.53 31.1373ZM108.81 29.9365L107.607 29.2197L107.504 29.3915L108.707 30.1083L108.81 29.9365ZM107.474 29.2482C107.301 29.495 107.059 29.6991 106.769 29.8398L106.857 30.0197C107.175 29.865 107.444 29.6391 107.637 29.3629L107.474 29.2482ZM106.769 29.8398C106.48 29.9805 106.154 30.0525 105.823 30.0484L105.821 30.2484C106.182 30.2529 106.539 30.1743 106.857 30.0197L106.769 29.8398ZM105.819 30.0485C105.477 30.0596 105.141 29.9791 104.853 29.8183L104.755 29.9929C105.076 30.172 105.449 30.2607 105.825 30.2484L105.819 30.0485ZM104.853 29.8183C104.565 29.6575 104.34 29.4246 104.206 29.1512L104.026 29.2396C104.18 29.5518 104.435 29.8137 104.755 29.9929L104.853 29.8183ZM104.15 29.2893L108.888 27.5614L108.819 27.3735L104.082 29.1014L104.15 29.2893ZM108.94 27.4177L108.751 27.0879L108.578 27.1874L108.767 27.5172L108.94 27.4177ZM103.96 28.174C103.939 27.9596 103.968 27.7435 104.045 27.539L103.858 27.4685C103.77 27.7013 103.737 27.9479 103.76 28.1931L103.96 28.174ZM104.045 27.539C104.122 27.3344 104.246 27.1452 104.409 26.9834L104.268 26.8412C104.085 27.0224 103.945 27.2358 103.858 27.4685L104.045 27.539ZM104.409 26.9834C104.573 26.8215 104.772 26.6906 104.996 26.5993L104.921 26.4141C104.673 26.5149 104.451 26.6601 104.268 26.8412L104.409 26.9834ZM104.996 26.5993C105.22 26.5079 105.463 26.4583 105.71 26.4537L105.706 26.2537C105.435 26.2588 105.168 26.3133 104.921 26.4141L104.996 26.5993ZM105.714 26.4535C105.964 26.4391 106.213 26.4907 106.429 26.6009L106.52 26.4227C106.271 26.2959 105.987 26.2375 105.702 26.2539L105.714 26.4535ZM106.429 26.6009C106.645 26.7111 106.818 26.8745 106.928 27.0692L107.103 26.9708C106.972 26.7395 106.769 26.5495 106.52 26.4227L106.429 26.6009ZM106.981 26.9261L103.825 28.0897L103.895 28.2773L107.05 27.1138L106.981 26.9261ZM100.07 31.3199H101.557V31.1199H100.07V31.3199ZM101.657 31.2199V22.0021H101.457V31.2199H101.657ZM101.557 21.9021H100.031V22.1021H101.557V21.9021ZM99.9313 22.0025L99.9703 31.2203L100.17 31.2195L100.131 22.0017L99.9313 22.0025ZM97.5396 25.7391H97.4828V25.9391H97.5396V25.7391ZM97.5524 25.7673C97.3024 25.5248 96.9967 25.3344 96.6569 25.2089L96.5876 25.3965C96.9024 25.5128 97.184 25.6886 97.4131 25.9108L97.5524 25.7673ZM96.6569 25.2089C96.3172 25.0833 95.9512 25.0254 95.5842 25.0389L95.5916 25.2388C95.9328 25.2262 96.2728 25.2801 96.5876 25.3965L96.6569 25.2089ZM95.5879 25.0388C94.63 25.0388 93.7093 25.3774 93.0288 25.9831L93.1617 26.1325C93.8034 25.5614 94.676 25.2388 95.5879 25.2388V25.0388ZM93.0288 25.9831C92.3479 26.5891 91.9628 27.4137 91.9628 28.2763H92.1628C92.1628 27.4747 92.5204 26.7033 93.1617 26.1325L93.0288 25.9831ZM91.9628 28.2763C91.9628 29.139 92.3479 29.9636 93.0288 30.5696L93.1617 30.4202C92.5204 29.8494 92.1628 29.0779 92.1628 28.2763H91.9628ZM93.0288 30.5696C93.7093 31.1752 94.63 31.5138 95.5879 31.5138V31.3138C94.676 31.3138 93.8034 30.9913 93.1617 30.4202L93.0288 30.5696ZM95.5845 31.5138C95.9532 31.5263 96.3207 31.4662 96.6608 31.3376L96.59 31.1505C96.2751 31.2697 95.934 31.3255 95.5913 31.3139L95.5845 31.5138ZM96.6608 31.3376C97.001 31.2089 97.3059 31.0146 97.5534 30.7678L97.4122 30.6262C97.1856 30.8521 96.905 31.0313 96.59 31.1505L96.6608 31.3376ZM97.4828 30.797H97.5396V30.597H97.4828V30.797ZM97.4396 30.697V31.152H97.6396V30.697H97.4396ZM97.441 31.1687C97.4783 31.3887 97.4599 31.6135 97.3868 31.8267L97.576 31.8915C97.6598 31.647 97.6811 31.3885 97.6382 31.1353L97.441 31.1687ZM97.3868 31.8267C97.3137 32.04 97.1875 32.237 97.0165 32.4029L97.1558 32.5464C97.3483 32.3596 97.4922 32.136 97.576 31.8915L97.3868 31.8267ZM97.0165 32.4029C96.8455 32.5689 96.6341 32.6994 96.3975 32.7841L96.4649 32.9724C96.7272 32.8785 96.9634 32.7332 97.1558 32.5464L97.0165 32.4029ZM96.3975 32.7841C96.1609 32.8689 95.9055 32.9055 95.6504 32.891L95.6391 33.0907C95.9206 33.1067 96.2027 33.0663 96.4649 32.9724L96.3975 32.7841ZM95.6454 32.8909C95.2743 32.8885 94.914 32.7845 94.6134 32.5941L94.5064 32.7631C94.8399 32.9742 95.237 33.0883 95.6441 33.0909L95.6454 32.8909ZM94.6134 32.5941C94.3129 32.4038 94.0875 32.1372 93.9657 31.8318L93.7799 31.9059C93.9185 32.2531 94.1729 32.5519 94.5064 32.7631L94.6134 32.5941ZM93.8376 31.7752L92.4922 32.2808L92.5625 32.468L93.908 31.9624L93.8376 31.7752ZM92.4365 32.4162C92.6988 32.9856 93.1455 33.4701 93.7172 33.8091L93.8192 33.637C93.2799 33.3173 92.8623 32.8625 92.6182 32.3326L92.4365 32.4162ZM93.7172 33.8091C94.2889 34.148 94.9604 34.3263 95.6453 34.3223L95.6441 34.1223C94.9942 34.1261 94.3586 33.9568 93.8192 33.637L93.7172 33.8091ZM95.6447 34.3223C96.5703 34.3223 97.4349 34.0821 98.0696 33.5358C98.7068 32.9874 99.0995 32.1414 99.0995 30.9581H98.8995C98.8995 32.0942 98.5245 32.8804 97.9392 33.3842C97.3513 33.8902 96.5385 34.1223 95.6447 34.1223V34.3223ZM99.0995 30.9581V25.3162H98.8995V30.9581H99.0995ZM98.9995 25.2162H97.5023V25.4162H98.9995V25.2162ZM97.4025 25.3233L97.4398 25.8462L97.6393 25.832L97.602 25.309L97.4025 25.3233ZM95.7653 30.0743C95.2462 30.0424 94.7621 29.8364 94.4101 29.5007L94.2721 29.6455C94.6604 30.0157 95.1899 30.2393 95.7531 30.2739L95.7653 30.0743ZM94.4101 29.5007C94.0585 29.1654 93.8651 28.7262 93.8651 28.2726H93.6651C93.6651 28.7845 93.8835 29.2749 94.2721 29.6455L94.4101 29.5007ZM93.8651 28.2726C93.8651 27.8189 94.0585 27.3797 94.4101 27.0444L94.2721 26.8997C93.8835 27.2702 93.6651 27.7607 93.6651 28.2726H93.8651ZM94.4101 27.0444C94.7621 26.7088 95.2462 26.5028 95.7653 26.4709L95.7531 26.2712C95.1899 26.3058 94.6604 26.5294 94.2721 26.8997L94.4101 27.0444ZM95.7552 26.471C96.0106 26.4811 96.2608 26.5369 96.4907 26.6348L96.5691 26.4508C96.3164 26.3432 96.0423 26.2822 95.7631 26.2711L95.7552 26.471ZM96.4907 26.6348C96.7206 26.7328 96.9252 26.8707 97.0926 27.0397L97.2347 26.899C97.0483 26.7107 96.8218 26.5585 96.5691 26.4508L96.4907 26.6348ZM97.0926 27.0397C97.2599 27.2087 97.3866 27.4053 97.4657 27.6175L97.6531 27.5476C97.5637 27.3077 97.4211 27.0872 97.2347 26.899L97.0926 27.0397ZM97.4657 27.6175C97.5448 27.8296 97.5749 28.0533 97.5544 28.2755L97.7536 28.2938C97.7768 28.0413 97.7425 27.7875 97.6531 27.5476L97.4657 27.6175ZM97.5545 28.2939C97.5752 28.5173 97.544 28.7424 97.4626 28.9552L97.6494 29.0266C97.7416 28.7856 97.7772 28.5298 97.7536 28.2754L97.5545 28.2939ZM97.4626 28.9552C97.3811 29.168 97.251 29.3645 97.0795 29.5322L97.2193 29.6752C97.4105 29.4883 97.5572 29.2676 97.6494 29.0266L97.4626 28.9552ZM97.0795 29.5322C96.908 29.6998 96.6989 29.8348 96.4648 29.9283L96.539 30.114C96.7965 30.0112 97.0282 29.8621 97.2193 29.6752L97.0795 29.5322ZM96.4648 29.9283C96.2308 30.0218 95.9772 30.0715 95.72 30.0741L95.722 30.2741C96.0035 30.2712 96.2816 30.2169 96.539 30.114L96.4648 29.9283ZM95.721 30.2741H95.7583V30.0741H95.721V30.2741ZM95.7583 30.2741H95.7592V30.0741H95.7583V30.2741ZM115.961 21.9021H112.256V22.1021H115.961V21.9021ZM112.156 22.0021V31.2191H112.356V22.0021H112.156ZM112.256 31.3191H113.8V31.1191H112.256V31.3191ZM113.9 31.2191V27.7278H113.7V31.2191H113.9ZM113.8 27.8278H115.961V27.6278H113.8V27.8278ZM115.956 27.8277C116.405 27.8481 116.853 27.7873 117.275 27.6485L117.212 27.4585C116.814 27.5896 116.39 27.6473 115.965 27.6279L115.956 27.8277ZM117.275 27.6485C117.696 27.5098 118.082 27.2959 118.409 27.0194L118.28 26.8667C117.974 27.1259 117.61 27.3275 117.212 27.4585L117.275 27.6485ZM118.409 27.0194C118.736 26.7429 118.998 26.4094 119.176 26.0388L118.996 25.9519C118.83 26.2961 118.587 26.6074 118.28 26.8667L118.409 27.0194ZM119.176 26.0388C119.355 25.6681 119.448 25.2685 119.448 24.8642H119.248C119.248 25.2377 119.162 25.6078 118.996 25.9519L119.176 26.0388ZM119.448 24.8642C119.448 24.4599 119.355 24.0602 119.176 23.6895L118.996 23.7764C119.162 24.1206 119.248 24.4906 119.248 24.8642H119.448ZM119.176 23.6895C118.998 23.3189 118.736 22.9854 118.409 22.7089L118.28 22.8617C118.587 23.1209 118.83 23.4323 118.996 23.7764L119.176 23.6895ZM118.409 22.7089C118.082 22.4324 117.696 22.2186 117.275 22.0798L117.212 22.2698C117.61 22.4009 117.974 22.6024 118.28 22.8617L118.409 22.7089ZM117.275 22.0798C116.853 21.9411 116.405 21.8802 115.956 21.9007L115.965 22.1005C116.39 22.0811 116.814 22.1388 117.212 22.2698L117.275 22.0798ZM115.861 22.0006V22.0021H116.061V22.0006H115.861ZM115.961 26.3465H113.762V26.5465H115.961V26.3465ZM113.862 26.4465V23.2841H113.662V26.4465H113.862ZM113.762 23.3841H115.961V23.1841H113.762V23.3841ZM115.967 23.3839C116.2 23.3682 116.433 23.3954 116.653 23.4637L116.712 23.2727C116.469 23.1971 116.211 23.167 115.954 23.1843L115.967 23.3839ZM116.653 23.4637C116.872 23.532 117.073 23.6397 117.243 23.7795L117.37 23.6252C117.18 23.4682 116.956 23.3484 116.712 23.2727L116.653 23.4637ZM117.243 23.7795C117.412 23.9193 117.546 24.088 117.638 24.2747L117.817 24.1866C117.713 23.9732 117.56 23.7822 117.37 23.6252L117.243 23.7795ZM117.638 24.2747C117.729 24.4613 117.776 24.6622 117.776 24.8649H117.976C117.976 24.6311 117.922 24.4001 117.817 24.1866L117.638 24.2747ZM117.776 24.8649C117.776 25.0676 117.729 25.2685 117.638 25.4551L117.817 25.5432C117.922 25.3298 117.976 25.0988 117.976 24.8649H117.776ZM117.638 25.4551C117.546 25.6418 117.412 25.8106 117.243 25.9504L117.37 26.1046C117.56 25.9476 117.713 25.7566 117.817 25.5432L117.638 25.4551ZM117.243 25.9504C117.073 26.0902 116.872 26.1979 116.653 26.2661L116.712 26.4571C116.956 26.3814 117.18 26.2616 117.37 26.1046L117.243 25.9504ZM116.653 26.2661C116.433 26.3344 116.2 26.3616 115.967 26.346L115.954 26.5455C116.211 26.5628 116.469 26.5328 116.712 26.4571L116.653 26.2661ZM115.861 26.4457V26.4465H116.061V26.4457H115.861ZM125.516 25.0224C124.936 24.9917 124.357 25.1126 123.851 25.371L123.942 25.5491C124.416 25.3072 124.959 25.1933 125.506 25.2221L125.516 25.0224ZM123.851 25.371C123.345 25.6293 122.933 26.0145 122.667 26.4807L122.841 26.5798C123.086 26.1497 123.468 25.791 123.942 25.5491L123.851 25.371ZM122.719 26.6239L124.093 27.1385L124.163 26.9512L122.789 26.4366L122.719 26.6239ZM124.213 27.0961C124.465 26.674 124.984 26.423 125.532 26.4699L125.549 26.2707C124.934 26.218 124.337 26.4982 124.042 26.9936L124.213 27.0961ZM125.549 26.4699C125.731 26.4535 125.915 26.4693 126.089 26.5162L126.141 26.323C125.944 26.27 125.736 26.2522 125.531 26.2707L125.549 26.4699ZM126.089 26.5162C126.264 26.5631 126.426 26.6401 126.567 26.7423L126.684 26.5807C126.524 26.4635 126.339 26.3761 126.141 26.323L126.089 26.5162ZM126.567 26.7423C126.707 26.8445 126.822 26.9697 126.907 27.1104L127.078 27.0074C126.979 26.8427 126.845 26.6979 126.684 26.5807L126.567 26.7423ZM126.907 27.1104C126.991 27.2511 127.043 27.4046 127.061 27.5621L127.26 27.5402C127.239 27.3532 127.177 27.1721 127.078 27.0074L126.907 27.1104ZM127.06 27.5512V27.644H127.26V27.5512H127.06ZM127.202 27.5533C126.691 27.3161 126.125 27.1915 125.55 27.1894L125.549 27.3894C126.096 27.3914 126.634 27.51 127.118 27.7347L127.202 27.5533ZM125.549 27.1894C124.796 27.1894 124.031 27.3741 123.45 27.7361C122.868 28.0993 122.465 28.6465 122.465 29.3644H122.665C122.665 28.7331 123.016 28.2428 123.556 27.9058C124.098 27.5676 124.825 27.3894 125.549 27.3894V27.1894ZM122.465 29.3695C122.48 29.6693 122.563 29.9629 122.708 30.2329L122.884 30.1385C122.753 29.8939 122.679 29.629 122.665 29.3593L122.465 29.3695ZM122.708 30.2329C122.852 30.5028 123.055 30.7435 123.305 30.941L123.429 30.7842C123.2 30.6029 123.015 30.3832 122.884 30.1385L122.708 30.2329ZM123.305 30.941C123.554 31.1385 123.845 31.289 124.16 31.3842L124.218 31.1928C123.926 31.1046 123.658 30.9655 123.429 30.7842L123.305 30.941ZM124.16 31.3842C124.475 31.4794 124.807 31.5175 125.139 31.4963L125.126 31.2967C124.818 31.3164 124.509 31.281 124.218 31.1928L124.16 31.3842ZM125.126 31.4963C125.962 31.5511 126.77 31.1911 127.223 30.5519L127.06 30.4361C126.65 31.0133 125.913 31.3475 125.139 31.2967L125.126 31.4963ZM127.042 30.494V31.2199H127.242V30.494H127.042ZM127.142 31.3199H128.629V31.1199H127.142V31.3199ZM128.729 31.2199V27.6689H128.529V31.2199H128.729ZM128.729 27.6701C128.739 26.8207 128.388 26.1542 127.803 25.7029C127.221 25.2538 126.413 25.0222 125.511 25.0222V25.2222C126.381 25.2222 127.142 25.446 127.681 25.8613C128.216 26.2743 128.538 26.8812 128.529 27.6677L128.729 27.6701ZM125.322 30.0824C125.084 30.0824 124.797 30.0277 124.574 29.9103C124.352 29.7933 124.21 29.6249 124.21 29.3976H124.01C124.01 29.7272 124.223 29.9511 124.481 30.0873C124.739 30.2231 125.059 30.2824 125.322 30.2824V30.0824ZM124.21 29.3976C124.21 29.0948 124.395 28.8765 124.69 28.7285C124.987 28.5795 125.38 28.5114 125.749 28.5114V28.3114C125.36 28.3114 124.933 28.3825 124.6 28.5497C124.265 28.7178 124.01 28.9926 124.01 29.3976H124.21ZM125.752 28.5113C126.221 28.4942 126.685 28.5873 127.099 28.7805L127.184 28.5992C126.74 28.3923 126.244 28.2933 125.745 28.3115L125.752 28.5113ZM127.042 28.6764C126.992 29.0496 126.793 29.3969 126.477 29.6543L126.604 29.8092C126.956 29.5221 127.183 29.1302 127.241 28.7032L127.042 28.6764ZM126.477 29.6543C126.162 29.9118 125.751 30.0616 125.319 30.0741L125.325 30.274C125.798 30.2603 126.252 30.0962 126.604 29.8092L126.477 29.6543ZM125.222 30.1741V30.1816H125.422V30.1741H125.222ZM125.222 30.1816V30.1824H125.422V30.1816H125.222ZM133.995 25.2756L132.223 29.2733L132.406 29.3544L134.178 25.3567L133.995 25.2756ZM132.315 29.2139H132.258V29.4139H132.315V29.2139ZM132.349 29.2721L130.511 25.2744L130.329 25.3579L132.167 29.3556L132.349 29.2721ZM130.42 25.2162H128.762V25.4162H130.42V25.2162ZM128.672 25.3604L131.429 30.9435L131.608 30.8549L128.851 25.2719L128.672 25.3604ZM131.429 30.855L129.895 33.9668L130.074 34.0553L131.608 30.9434L131.429 30.855ZM129.984 34.1111H131.595V33.9111H129.984V34.1111ZM131.685 34.0546L135.892 25.3597L135.712 25.2726L131.505 33.9675L131.685 34.0546ZM135.802 25.2162H134.087V25.4162H135.802V25.2162ZM120.168 31.3199H121.712V31.1199H120.168V31.3199ZM121.812 31.2199V22.0021H121.612V31.2199H121.812ZM121.712 21.9021H120.168V22.1021H121.712V21.9021ZM120.068 22.0021V31.2191H120.268V22.0021H120.068ZM120.068 31.2191V31.2199H120.268V31.2191H120.068Z" fill="#323133"/>
<defs>
<linearGradient id="paint0_linear_1333_2955" x1="22.6313" y1="15.5671" x2="30.1431" y2="23.939" gradientUnits="userSpaceOnUse">
<stop stop-color="#32A071"/>
<stop offset="0.07" stop-color="#2DA771"/>
<stop offset="0.48" stop-color="#15CF74"/>
<stop offset="0.8" stop-color="#06E775"/>
<stop offset="1" stop-color="#00F076"/>
</linearGradient>
</defs>
</svg>
