<svg width="41" height="41" viewBox="0 0 41 41" fill="none" xmlns="http://www.w3.org/2000/svg">
<path d="M20.6016 0.996094C9.55756 0.996094 0.601562 9.95209 0.601562 20.9961C0.601562 32.0401 9.55756 40.9961 20.6016 40.9961C31.6456 40.9961 40.6016 32.0401 40.6016 20.9961C40.6016 9.95209 31.6456 0.996094 20.6016 0.996094ZM29.7333 16.59C29.7422 16.7868 29.7465 16.9846 29.7465 17.1832C29.7465 23.2492 25.1292 30.2441 16.6852 30.2444H16.6855H16.6852C14.0928 30.2444 11.6804 29.4846 9.6488 28.1824C10.008 28.2248 10.3736 28.2458 10.7438 28.2458C12.8947 28.2458 14.874 27.5122 16.4454 26.2808C14.4358 26.2436 12.7415 24.9164 12.1567 23.0923C12.4366 23.1461 12.7244 23.1754 13.0195 23.1754C13.4385 23.1754 13.8444 23.1189 14.2301 23.0136C12.1296 22.5931 10.5472 20.7367 10.5472 18.5138C10.5472 18.493 10.5472 18.4744 10.5479 18.4552C11.1664 18.7991 11.8738 19.006 12.627 19.0292C11.3944 18.2068 10.5842 16.8008 10.5842 15.2081C10.5842 14.3671 10.8115 13.5791 11.2058 12.9007C13.4696 15.6784 16.8528 17.5052 20.6681 17.6971C20.5894 17.3608 20.5488 17.0105 20.5488 16.6504C20.5488 14.1162 22.6047 12.0602 25.1398 12.0602C26.4603 12.0602 27.653 12.6184 28.4907 13.5107C29.5365 13.3044 30.5186 12.9224 31.4057 12.3965C31.0624 13.468 30.3348 14.3671 29.387 14.9356C30.3156 14.8245 31.2006 14.5782 32.0231 14.2126C31.4088 15.1334 30.6296 15.9421 29.7333 16.59Z" fill="#323133"/>
</svg>
