<svg width="41" height="41" viewBox="0 0 41 41" fill="none" xmlns="http://www.w3.org/2000/svg">
<g clip-path="url(#clip0_1333_2935)">
<path d="M18.1104 24.7429L24.6161 20.996L18.1104 17.249V24.7429Z" fill="#323133"/>
<path d="M20.6016 0.996094C9.55756 0.996094 0.601562 9.95209 0.601562 20.9961C0.601562 32.0401 9.55756 40.9961 20.6016 40.9961C31.6456 40.9961 40.6016 32.0401 40.6016 20.9961C40.6016 9.95209 31.6456 0.996094 20.6016 0.996094ZM33.0985 21.0165C33.0985 21.0165 33.0985 25.0726 32.584 27.0285C32.2956 28.0991 31.4515 28.9432 30.3809 29.2313C28.425 29.7461 20.6016 29.7461 20.6016 29.7461C20.6016 29.7461 12.7985 29.7461 10.8222 29.2108C9.75165 28.9227 8.90753 28.0783 8.61914 27.0078C8.10431 25.0726 8.10431 20.9961 8.10431 20.9961C8.10431 20.9961 8.10431 16.9403 8.61914 14.9844C8.90723 13.9139 9.77209 13.049 10.8222 12.7609C12.7781 12.2461 20.6016 12.2461 20.6016 12.2461C20.6016 12.2461 28.425 12.2461 30.3809 12.7814C31.4515 13.0695 32.2956 13.9139 32.584 14.9844C33.1193 16.9403 33.0985 21.0165 33.0985 21.0165Z" fill="#323133"/>
</g>
<defs>
<clipPath id="clip0_1333_2935">
<rect width="40" height="40" fill="white" transform="translate(0.601562 0.996094)"/>
</clipPath>
</defs>
</svg>
