<svg width="22" height="22" viewBox="0 0 22 22" fill="none" xmlns="http://www.w3.org/2000/svg">
<path d="M9.01449 1.75163C10.4486 1.75034 11.851 2.17443 13.0441 2.97025C14.2372 3.7661 15.1675 4.89793 15.7172 6.22258C16.267 7.54723 16.4115 9.00517 16.1325 10.412C15.8535 11.8188 15.1635 13.1112 14.1499 14.1258C13.1362 15.1404 11.8444 15.8316 10.4378 16.1118C9.03129 16.3921 7.57322 16.2489 6.24807 15.7004C4.92292 15.1518 3.79023 14.2226 2.9933 13.0302C2.19639 11.8378 1.77102 10.4359 1.77099 9.00175C1.77972 7.08273 2.54546 5.2447 3.90181 3.88711C5.25815 2.52953 7.09548 1.7621 9.01449 1.75163ZM9.01433 0.284961C7.29033 0.284961 5.60505 0.796185 4.17161 1.75398C2.73816 2.71178 1.62092 4.07314 0.961177 5.6659C0.301433 7.25867 0.128814 9.0113 0.465148 10.7022C0.801483 12.393 1.63166 13.9462 2.85071 15.1652C4.06976 16.3843 5.62292 17.2145 7.31379 17.5508C9.00466 17.8871 10.7573 17.7145 12.3501 17.0548C13.9428 16.395 15.3042 15.2778 16.262 13.8443C17.2198 12.4109 17.731 10.7256 17.731 9.00163C17.731 6.68982 16.8126 4.47271 15.1779 2.83801C13.5432 1.20332 11.3261 0.284961 9.01433 0.284961Z" fill="#323133" stroke="#323133" stroke-width="0.1"/>
<path d="M20.4794 21.5039C20.5458 21.5707 20.6246 21.6238 20.7115 21.6602C20.7984 21.6965 20.8915 21.7154 20.9857 21.7157C21.0799 21.7161 21.1732 21.6979 21.2603 21.6621C21.3474 21.6264 21.4266 21.5739 21.4935 21.5075C21.5603 21.4412 21.6134 21.3623 21.6497 21.2754C21.6861 21.1886 21.7049 21.0954 21.7053 21.0012C21.7056 20.9071 21.6874 20.8138 21.6517 20.7266C21.6159 20.6395 21.5634 20.5603 21.497 20.4935L21.497 20.4935L16.5837 15.5468L16.5485 15.5113L16.513 15.5466L15.5663 16.4866L15.5308 16.5218L15.5661 16.5573L20.4794 21.5039ZM20.4794 21.5039L20.5149 21.4687M20.4794 21.5039L20.4794 21.5039L20.5149 21.4687M20.5149 21.4687L15.6368 16.5575L15.6368 16.5575L15.6016 16.522L15.637 16.4868L15.637 16.4868L16.5482 15.582L21.4616 20.5287C21.5233 20.5909 21.5722 20.6646 21.6054 20.7456C21.6386 20.8267 21.6556 20.9135 21.6553 21.0011C21.655 21.0887 21.6374 21.1753 21.6036 21.2561C21.5698 21.337 21.5204 21.4103 21.4582 21.472C21.3961 21.5338 21.3224 21.5826 21.2413 21.6159C21.1603 21.6491 21.0735 21.666 20.9859 21.6657C20.8983 21.6654 20.8116 21.6479 20.7308 21.6141C20.65 21.5803 20.5766 21.5309 20.5149 21.4687Z" fill="#323133" stroke="#323133" stroke-width="0.1"/>
</svg>
