<svg width="950" height="661" viewBox="0 0 950 661" fill="none" xmlns="http://www.w3.org/2000/svg">
<path opacity="0.6" d="M50.6604 166.273C212.669 19.8659 372.437 -10.3715 407.376 2.77253C435.324 13.2715 452.741 52.9275 478.655 71.0769C523.448 102.452 581.71 62.9382 625.659 96.5715C647.068 112.951 681.33 78.5314 741.899 71.0769C907.01 50.7556 771.005 247.789 823.738 269.479C836.83 274.871 850.165 280.405 861.404 291.149C872.644 301.892 881.895 318.881 882.603 338.089C883.13 352.576 878.911 366.574 878.716 381.122C878.309 414.247 897.986 439.681 912.872 465.277C935.457 504.506 972.795 488.959 928.553 565.925C884.311 642.891 822.204 565.895 732.717 619.127C649.546 712.046 553.488 619.127 458.582 634.028C363.675 648.928 456.616 557.931 308.841 601.234C161.066 644.538 -111.348 312.681 50.6604 166.273Z" fill="#FCEDC0"/>
</svg>
