<svg width="41" height="41" viewBox="0 0 41 41" fill="none" xmlns="http://www.w3.org/2000/svg">
<g clip-path="url(#clip0_1333_2932)">
<path d="M20.6016 0.996094C9.55756 0.996094 0.601562 9.95209 0.601562 20.9961C0.601562 32.0401 9.55756 40.9961 20.6016 40.9961C31.6456 40.9961 40.6016 32.0401 40.6016 20.9961C40.6016 9.95209 31.6456 0.996094 20.6016 0.996094ZM21.0255 32.6407C21.0251 32.6407 21.0258 32.6407 21.0255 32.6407H21.0206C19.0171 32.6398 17.0484 32.1375 15.3 31.1841L8.95453 32.8482L10.6528 26.647C9.60516 24.8325 9.05402 22.7737 9.05493 20.6647C9.05768 14.0668 14.4276 8.69904 21.0255 8.69904C24.2274 8.70026 27.233 9.94659 29.4929 12.2083C31.753 14.4702 32.9969 17.4768 32.9957 20.6741C32.9929 27.2723 27.6224 32.6407 21.0255 32.6407Z" fill="#323133"/>
<path d="M21.0298 10.7207C15.5418 10.7207 11.0786 15.1821 11.0762 20.6661C11.0756 22.5453 11.6017 24.3755 12.5975 25.959L12.834 26.3353L11.8287 30.0057L15.5943 29.0181L15.9578 29.2336C17.4852 30.14 19.2363 30.6194 21.0215 30.62H21.0255C26.5092 30.62 30.9724 26.1583 30.9749 20.674C30.9758 18.0162 29.9418 15.5175 28.0635 13.6376C26.1851 11.7577 23.6869 10.7216 21.0298 10.7207ZM26.8818 24.9422C26.6325 25.6404 25.4377 26.278 24.8631 26.364C24.3477 26.4409 23.6958 26.473 22.9792 26.2456C22.5447 26.1077 21.9877 25.9236 21.2739 25.6157C18.2737 24.3206 16.3142 21.3005 16.1647 21.101C16.0151 20.9014 14.9434 19.4796 14.9434 18.0077C14.9434 16.5361 15.7161 15.8126 15.9901 15.5135C16.2645 15.2141 16.5886 15.1393 16.7878 15.1393C16.9871 15.1393 17.1867 15.1412 17.361 15.1497C17.5447 15.1589 17.7913 15.0798 18.0339 15.663C18.2832 16.2618 18.8813 17.7333 18.9561 17.8829C19.0309 18.0327 19.0806 18.2073 18.9811 18.4069C18.8813 18.6064 18.5499 19.037 18.2335 19.4295C18.1007 19.594 17.9277 19.7405 18.1022 20.0399C18.2765 20.3389 18.8771 21.3182 19.7661 22.1111C20.9086 23.1298 21.8724 23.4453 22.1714 23.5952C22.4702 23.7447 22.6448 23.7197 22.8193 23.5204C22.9936 23.3208 23.567 22.6473 23.7663 22.3479C23.9656 22.0485 24.1652 22.0986 24.4392 22.1984C24.7136 22.2979 26.1839 23.0214 26.483 23.171C26.782 23.3208 26.9813 23.3956 27.0561 23.5204C27.1312 23.6452 27.1312 24.2437 26.8818 24.9422Z" fill="#323133"/>
</g>
<defs>
<clipPath id="clip0_1333_2932">
<rect width="40" height="40" fill="white" transform="translate(0.601562 0.996094)"/>
</clipPath>
</defs>
</svg>
