<svg width="47" height="46" viewBox="0 0 47 46" fill="none" xmlns="http://www.w3.org/2000/svg">
<g clip-path="url(#clip0_1708_6878)">
<path d="M40.144 4.06579H37.9034L37.281 1.05356C37.1439 0.390962 36.5524 -0.0898438 35.8748 -0.0898438H10.5445C9.86652 -0.0898438 9.27507 0.390962 9.13828 1.05356L8.51553 4.06579H6.27488C5.28537 4.06579 4.48047 4.86912 4.48047 5.8567V8.81769C4.48047 9.80527 5.28537 10.609 6.27488 10.609H7.15539L7.65436 14.1083C7.50316 14.1953 7.36531 14.3066 7.24822 14.441C6.94862 14.786 6.81359 15.2429 6.87794 15.6953L10.209 39.0537C10.3008 39.698 10.7857 40.209 11.3983 40.3599L11.8723 43.6856C12.0534 44.9539 13.1575 45.9102 14.441 45.9102H31.9783C33.2618 45.9102 34.3659 44.9539 34.547 43.6856L35.021 40.3599C35.6336 40.209 36.1185 39.698 36.2103 39.0537L39.5413 15.6953C39.6057 15.2429 39.4707 14.786 39.1711 14.441C39.054 14.3066 38.9161 14.1953 38.7646 14.1083L39.2639 10.609H40.1444C41.1339 10.609 41.9388 9.80527 41.9388 8.81769V5.8567C41.9385 4.86912 41.1336 4.06579 40.144 4.06579ZM38.203 15.5051L34.8719 38.8635C34.8561 38.9744 34.7598 39.0575 34.6479 39.0575H28.1802C27.8071 39.0575 27.5047 39.3594 27.5047 39.7321C27.5047 40.1048 27.8071 40.4066 28.1802 40.4066H33.6493L33.2087 43.4957C33.1218 44.1032 32.593 44.5615 31.9779 44.5615H14.441C13.826 44.5615 13.2971 44.1032 13.2103 43.4957L12.77 40.4066H25.0355C25.409 40.4066 25.7114 40.1048 25.7114 39.7321C25.7114 39.3594 25.409 39.0575 25.0355 39.0575H11.771C11.6592 39.0575 11.5628 38.9744 11.547 38.8635L8.21593 15.5051C8.20327 15.4163 8.24371 15.3542 8.26903 15.3251C8.29329 15.2973 8.34604 15.2531 8.42832 15.2489C8.43746 15.2486 8.44625 15.2478 8.45575 15.2471H37.9632C37.9723 15.2478 37.9815 15.2486 37.9906 15.2489C38.0729 15.2531 38.1256 15.2973 38.1499 15.3251C38.1752 15.3542 38.2157 15.4163 38.203 15.5051ZM8.5208 10.609H37.8985L37.4294 13.8984H8.98989L8.5208 10.609ZM40.5871 8.81769C40.5871 9.0616 40.3884 9.25989 40.144 9.25989H6.27488C6.03085 9.25989 5.83182 9.0616 5.83182 8.81769V5.8567C5.83182 5.61279 6.03085 5.4145 6.27488 5.4145H12.322C12.6951 5.4145 12.9975 5.11268 12.9975 4.73997C12.9975 4.36761 12.6951 4.06579 12.322 4.06579H9.89571L10.4618 1.32625C10.4699 1.2873 10.5047 1.25887 10.5445 1.25887H35.8748C35.9145 1.25887 35.9493 1.2873 35.9574 1.32625L36.5236 4.06579H15.4667C15.0933 4.06579 14.7909 4.36761 14.7909 4.73997C14.7909 5.11268 15.0933 5.4145 15.4667 5.4145H40.144C40.3884 5.4145 40.5871 5.61279 40.5871 5.8567V8.81769Z" fill="#7D7B7B"/>
<path d="M28.2928 21.6007C28.2882 21.5961 28.2833 21.5919 28.2783 21.5874C26.0321 19.3686 21.94 19.8291 19.1428 22.6213C17.8058 23.9552 16.9535 25.6226 16.7425 27.3163C16.5234 29.0725 17.0139 30.6493 18.1234 31.7566C18.1234 31.7569 18.1237 31.7569 18.1241 31.7573C18.1258 31.759 18.1276 31.7608 18.1293 31.7622C19.0654 32.6933 20.3345 33.1857 21.7639 33.1857C22.028 33.1857 22.298 33.1685 22.5719 33.1348C24.2689 32.9242 25.9396 32.0731 27.2765 30.7392C30.0808 27.94 30.5383 23.8419 28.2959 21.6039C28.2949 21.6025 28.2938 21.6018 28.2928 21.6007ZM18.0836 27.4827C18.2577 26.0855 18.9733 24.6979 20.0982 23.5748C21.446 22.2296 23.1335 21.5207 24.6424 21.5207C25.3358 21.5207 25.9909 21.6712 26.5585 21.978C25.4237 22.6508 23.6617 23.9742 23.1258 25.9357C22.6595 27.641 20.1298 29.5301 18.7415 30.4061C18.1761 29.6309 17.9426 28.6131 18.0836 27.4827ZM26.3208 29.7853C25.1955 30.9083 23.8051 31.6222 22.4053 31.7959C21.4165 31.9187 20.5134 31.7569 19.7831 31.3386C21.1766 30.4205 23.8459 28.4264 24.4296 26.2905C24.9061 24.5459 26.7895 23.3713 27.6496 22.9147C28.9872 24.6919 28.4485 27.6613 26.3208 29.7853Z" fill="#7D7B7B"/>
</g>
<defs>
<clipPath id="clip0_1708_6878">
<rect width="46" height="46" fill="white" transform="translate(0.203125)"/>
</clipPath>
</defs>
</svg>
