<svg width="33" height="32" viewBox="0 0 33 32" fill="none" xmlns="http://www.w3.org/2000/svg">
<g clip-path="url(#clip0_1708_6680)">
<path d="M27.9852 2.82838H26.4265L25.9935 0.732912C25.8981 0.271973 25.4867 -0.0625 25.0153 -0.0625H7.39423C6.9226 -0.0625 6.51115 0.271973 6.416 0.732912L5.98278 2.82838H4.42407C3.73571 2.82838 3.17578 3.38721 3.17578 4.07423V6.13405C3.17578 6.82106 3.73571 7.38014 4.42407 7.38014H5.03659L5.38371 9.81447C5.27852 9.87502 5.18263 9.95241 5.10117 10.0459C4.89276 10.2859 4.79882 10.6038 4.84359 10.9185L7.16086 27.1678C7.22471 27.616 7.56203 27.9715 7.98816 28.0765L8.31791 30.39C8.44388 31.2723 9.21199 31.9376 10.1048 31.9376H22.3047C23.1976 31.9376 23.9657 31.2723 24.0916 30.39L24.4214 28.0765C24.8475 27.9715 25.1848 27.616 25.2487 27.1678L27.566 10.9185C27.6107 10.6038 27.5168 10.2859 27.3084 10.0459C27.2269 9.95241 27.131 9.87502 27.0256 9.81447L27.3729 7.38014H27.9855C28.6738 7.38014 29.2338 6.82106 29.2338 6.13405V4.07423C29.2335 3.38721 28.6736 2.82838 27.9852 2.82838ZM26.6349 10.7862L24.3177 27.0355C24.3067 27.1126 24.2396 27.1705 24.1618 27.1705H19.6626C19.403 27.1705 19.1927 27.3804 19.1927 27.6397C19.1927 27.899 19.403 28.1089 19.6626 28.1089H23.4671L23.1606 30.2579C23.1002 30.6805 22.7323 30.9993 22.3045 30.9993H10.1048C9.67701 30.9993 9.3091 30.6805 9.24868 30.2579L8.94242 28.1089H17.475C17.7347 28.1089 17.9451 27.899 17.9451 27.6397C17.9451 27.3804 17.7347 27.1705 17.475 27.1705H8.24746C8.16967 27.1705 8.10264 27.1126 8.09163 27.0355L5.77436 10.7862C5.76556 10.7244 5.79369 10.6812 5.8113 10.6609C5.82818 10.6416 5.86487 10.6109 5.92211 10.6079C5.92847 10.6077 5.93459 10.6072 5.94119 10.6067H26.4681C26.4745 10.6072 26.4808 10.6077 26.4872 10.6079C26.5444 10.6109 26.5811 10.6416 26.598 10.6609C26.6156 10.6812 26.6437 10.7244 26.6349 10.7862ZM5.98645 7.38014H26.4231L26.0968 9.66848H6.31277L5.98645 7.38014ZM28.2934 6.13405C28.2934 6.30372 28.1552 6.44166 27.9852 6.44166H4.42407C4.2543 6.44166 4.11585 6.30372 4.11585 6.13405V4.07423C4.11585 3.90455 4.2543 3.76661 4.42407 3.76661H8.63077C8.89031 3.76661 9.10068 3.55665 9.10068 3.29737C9.10068 3.03834 8.89031 2.82838 8.63077 2.82838H6.94291L7.33674 0.922609C7.34237 0.89551 7.36658 0.875734 7.39423 0.875734H25.0153C25.043 0.875734 25.0672 0.89551 25.0728 0.922609L25.4666 2.82838H10.8184C10.5586 2.82838 10.3482 3.03834 10.3482 3.29737C10.3482 3.55665 10.5586 3.76661 10.8184 3.76661H27.9852C28.1552 3.76661 28.2934 3.90455 28.2934 4.07423V6.13405Z" fill="#7D7B7B"/>
<path d="M19.7424 15.0268C19.7392 15.0237 19.7358 15.0207 19.7323 15.0176C18.1697 13.4741 15.3231 13.7944 13.3772 15.7368C12.4471 16.6648 11.8542 17.8247 11.7074 19.0029C11.555 20.2246 11.8962 21.3215 12.668 22.0918C12.668 22.092 12.6683 22.092 12.6685 22.0923C12.6697 22.0935 12.6709 22.0947 12.6722 22.0957C13.3233 22.7434 14.2062 23.0859 15.2005 23.0859C15.3843 23.0859 15.5721 23.074 15.7627 23.0505C16.9432 22.904 18.1054 22.312 19.0354 21.384C20.9863 19.4368 21.3045 16.5859 19.7446 15.029C19.7438 15.0281 19.7431 15.0276 19.7424 15.0268ZM12.6404 19.1186C12.7615 18.1467 13.2593 17.1814 14.0418 16.4001C14.9794 15.4643 16.1533 14.9712 17.203 14.9712C17.6854 14.9712 18.1411 15.0759 18.5359 15.2893C17.7465 15.7573 16.5208 16.678 16.148 18.0425C15.8236 19.2287 14.0638 20.543 13.0981 21.1523C12.7047 20.613 12.5423 19.905 12.6404 19.1186ZM18.3706 20.7204C17.5878 21.5017 16.6206 21.9983 15.6467 22.1191C14.9589 22.2046 14.3307 22.092 13.8226 21.801C14.792 21.1623 16.6489 19.7751 17.055 18.2893C17.3865 17.0757 18.6966 16.2585 19.295 15.9409C20.2255 17.1772 19.8507 19.2429 18.3706 20.7204Z" fill="#7D7B7B"/>
</g>
<defs>
<clipPath id="clip0_1708_6680">
<rect width="32" height="32" fill="white" transform="translate(0.203125)"/>
</clipPath>
</defs>
</svg>
