<svg width="61" height="60" viewBox="0 0 61 60" fill="none" xmlns="http://www.w3.org/2000/svg">
<g clip-path="url(#clip0_1708_6895)">
<path d="M52.299 5.3032H49.3764L48.5646 1.37421C48.3857 0.50995 47.6142 -0.117188 46.7304 -0.117188H13.6908C12.8065 -0.117188 12.0351 0.50995 11.8567 1.37421L11.0444 5.3032H8.12179C6.83112 5.3032 5.78125 6.35103 5.78125 7.63918V11.5013C5.78125 12.7895 6.83112 13.8378 8.12179 13.8378H9.27027L9.92111 18.4021C9.72389 18.5157 9.54409 18.6608 9.39136 18.8361C9.00058 19.2861 8.82446 19.8821 8.90839 20.4722L13.2533 50.9396C13.373 51.78 14.0055 52.4466 14.8045 52.6434L15.4227 56.9812C15.6589 58.6355 17.0991 59.8829 18.7732 59.8829H41.648C43.3221 59.8829 44.7623 58.6355 44.9985 56.9812L45.6167 52.6434C46.4157 52.4466 47.0482 51.78 47.1679 50.9396L51.5128 20.4722C51.5968 19.8821 51.4206 19.2861 51.0299 18.8361C50.8771 18.6608 50.6973 18.5157 50.4996 18.4021L51.1509 13.8378H52.2994C53.5901 13.8378 54.64 12.7895 54.64 11.5013V7.63918C54.6395 6.35103 53.5896 5.3032 52.299 5.3032ZM49.7672 20.224L45.4223 50.6915C45.4016 50.8361 45.276 50.9446 45.1301 50.9446H36.694C36.2073 50.9446 35.8129 51.3383 35.8129 51.8245C35.8129 52.3106 36.2073 52.7043 36.694 52.7043H43.8275L43.2528 56.7335C43.1395 57.5259 42.4497 58.1238 41.6475 58.1238H18.7732C17.971 58.1238 17.2812 57.5259 17.1679 56.7335L16.5937 52.7043H32.5922C33.0793 52.7043 33.4737 52.3106 33.4737 51.8245C33.4737 51.3383 33.0793 50.9446 32.5922 50.9446H15.2906C15.1448 50.9446 15.0191 50.8361 14.9985 50.6915L10.6536 20.224C10.6371 20.1082 10.6898 20.0272 10.7228 19.9892C10.7545 19.953 10.8233 19.8954 10.9306 19.8899C10.9425 19.8894 10.954 19.8885 10.9664 19.8876H49.4544C49.4663 19.8885 49.4782 19.8894 49.4901 19.8899C49.5975 19.8954 49.6663 19.953 49.6979 19.9892C49.7309 20.0272 49.7837 20.1082 49.7672 20.224ZM11.0512 13.8378H49.37L48.7581 18.1284H11.6631L11.0512 13.8378ZM52.8769 11.5013C52.8769 11.8195 52.6177 12.0781 52.299 12.0781H8.12179C7.80348 12.0781 7.54388 11.8195 7.54388 11.5013V7.63918C7.54388 7.32103 7.80348 7.06239 8.12179 7.06239H16.0094C16.496 7.06239 16.8904 6.66872 16.8904 6.18257C16.8904 5.69688 16.496 5.3032 16.0094 5.3032H12.8446L13.583 1.72989C13.5936 1.67908 13.639 1.642 13.6908 1.642H46.7304C46.7822 1.642 46.8276 1.67908 46.8382 1.72989L47.5766 5.3032H20.1111C19.6241 5.3032 19.2296 5.69688 19.2296 6.18257C19.2296 6.66872 19.6241 7.06239 20.1111 7.06239H52.299C52.6177 7.06239 52.8769 7.32103 52.8769 7.63918V11.5013Z" fill="#7D7B7B"/>
<path d="M36.8392 28.1746C36.8333 28.1686 36.8268 28.1631 36.8204 28.1572C33.8905 25.2632 28.5531 25.8638 24.9044 29.5058C23.1606 31.2457 22.0488 33.4206 21.7736 35.6297C21.4879 37.9204 22.1277 39.9771 23.5748 41.4214C23.5748 41.4218 23.5752 41.4218 23.5757 41.4223C23.578 41.4246 23.5803 41.4269 23.5826 41.4287C24.8035 42.6431 26.4588 43.2854 28.3233 43.2854C28.6677 43.2854 29.02 43.263 29.3773 43.219C31.5908 42.9444 33.7699 41.8343 35.5137 40.0943C39.1715 36.4432 39.7682 31.0979 36.8434 28.1787C36.842 28.1769 36.8406 28.1759 36.8392 28.1746ZM23.523 35.8467C23.75 34.0244 24.6834 32.2143 26.1506 30.7495C27.9087 28.9949 30.1098 28.0702 32.0779 28.0702C32.9824 28.0702 33.8368 28.2666 34.5771 28.6667C33.097 29.5442 30.7987 31.2704 30.0997 33.8289C29.4915 36.0532 26.1919 38.5173 24.3811 39.6599C23.6436 38.6487 23.339 37.3212 23.523 35.8467ZM34.2671 38.8501C32.7994 40.315 30.9858 41.246 29.1599 41.4726C27.8701 41.6329 26.6923 41.4218 25.7397 40.8762C27.5573 39.6787 31.039 37.0776 31.8004 34.2917C32.4219 32.0161 34.8785 30.484 36.0003 29.8884C37.7451 32.2066 37.0424 36.0797 34.2671 38.8501Z" fill="#7D7B7B"/>
</g>
<defs>
<clipPath id="clip0_1708_6895">
<rect width="60" height="60" fill="white" transform="translate(0.203125)"/>
</clipPath>
</defs>
</svg>
