<svg width="25" height="25" viewBox="0 0 25 25" fill="none" xmlns="http://www.w3.org/2000/svg">
<path d="M12.002 2.86133C7.85982 2.86133 4.50195 6.44305 4.50195 10.8613V11.1887C4.50195 12.8743 5.00077 14.5073 5.91418 15.8613H5.9082L5.92976 15.8843C6.11643 16.1589 6.32023 16.422 6.54045 16.6716C6.8723 17.0477 12.002 21.3613 12.002 21.3613C12.7505 20.9546 16.8526 17.3639 17.4635 16.6716C17.686 16.4194 17.8917 16.1534 18.08 15.8756L18.0957 15.8613H18.0897C19.0031 14.5073 19.502 12.8743 19.502 11.1887V10.8613C19.502 6.44305 16.1441 2.86133 12.002 2.86133Z" stroke="#56311F" stroke-width="1.5" stroke-linejoin="round"/>
<path d="M15.252 11.1113C15.252 9.3164 13.7969 7.86133 12.002 7.86133C10.207 7.86133 8.75195 9.3164 8.75195 11.1113C8.75195 12.9063 10.207 14.3613 12.002 14.3613C13.7969 14.3613 15.252 12.9063 15.252 11.1113Z" stroke="#56311F" stroke-width="1.5"/>
</svg>
