<svg width="25" height="25" viewBox="0 0 25 25" fill="none" xmlns="http://www.w3.org/2000/svg">
<path d="M21.002 17.8083C21.002 18.1323 20.9299 18.4653 20.7767 18.7893C20.6234 19.1133 20.4251 19.4193 20.1637 19.7073C19.7221 20.1933 19.2354 20.5443 18.6855 20.7693C18.1447 20.9943 17.5588 21.1113 16.9279 21.1113C16.0085 21.1113 15.026 20.8953 13.9895 20.4543C12.9529 20.0133 11.9164 19.4193 10.8888 18.6723C9.85223 17.9163 8.86975 17.0793 7.93235 16.1523C7.00395 15.2163 6.1657 14.2353 5.41757 13.2093C4.67846 12.1833 4.08357 11.1573 3.65092 10.1403C3.21827 9.11433 3.00195 8.13333 3.00195 7.19733C3.00195 6.58533 3.11011 6.00033 3.32644 5.46033C3.54276 4.91133 3.88528 4.40733 4.36299 3.95733C4.93986 3.39033 5.5708 3.11133 6.2378 3.11133C6.49018 3.11133 6.74256 3.16533 6.9679 3.27333C7.20225 3.38133 7.40956 3.54333 7.57181 3.77733L9.66294 6.72033C9.82519 6.94533 9.94236 7.15233 10.0235 7.35033C10.1047 7.53933 10.1497 7.72833 10.1497 7.89933C10.1497 8.11533 10.0866 8.33133 9.96039 8.53833C9.84321 8.74533 9.67196 8.96133 9.45563 9.17733L8.7706 9.88833C8.67145 9.98733 8.62639 10.1043 8.62639 10.2483C8.62639 10.3203 8.6354 10.3833 8.65343 10.4553C8.68047 10.5273 8.70751 10.5813 8.72554 10.6353C8.88778 10.9323 9.1672 11.3193 9.56379 11.7873C9.9694 12.2553 10.4021 12.7323 10.8708 13.2093C11.3575 13.6863 11.8262 14.1273 12.304 14.5323C12.7727 14.9283 13.1602 15.1983 13.4667 15.3603C13.5118 15.3783 13.5658 15.4053 13.6289 15.4323C13.701 15.4593 13.7732 15.4683 13.8543 15.4683C14.0075 15.4683 14.1247 15.4143 14.2238 15.3153L14.9089 14.6403C15.1342 14.4153 15.3505 14.2443 15.5578 14.1363C15.7651 14.0103 15.9725 13.9473 16.1978 13.9473C16.3691 13.9473 16.5493 13.9833 16.7476 14.0643C16.9459 14.1453 17.1532 14.2623 17.3786 14.4153L20.362 16.5303C20.5964 16.6923 20.7586 16.8813 20.8578 17.1063C20.9479 17.3313 21.002 17.5563 21.002 17.8083Z" stroke="#56311F" stroke-width="1.5" stroke-miterlimit="10"/>
</svg>
