<svg width="25" height="25" viewBox="0 0 25 25" fill="none" xmlns="http://www.w3.org/2000/svg">
<path d="M20.002 19.8613H4.00195C3.27342 19.8587 2.57548 19.5681 2.06032 19.053C1.54517 18.5378 1.25459 17.8399 1.25195 17.1113V7.11133C1.25459 6.38279 1.54517 5.68485 2.06032 5.1697C2.57548 4.65454 3.27342 4.36396 4.00195 4.36133H20.002C20.7305 4.36396 21.4284 4.65454 21.9436 5.1697C22.4587 5.68485 22.7493 6.38279 22.752 7.11133V17.1113C22.7493 17.8399 22.4587 18.5378 21.9436 19.053C21.4284 19.5681 20.7305 19.8587 20.002 19.8613ZM4.00195 5.86133C3.67043 5.86133 3.35249 5.99302 3.11807 6.22745C2.88365 6.46187 2.75195 6.77981 2.75195 7.11133V17.1113C2.75195 17.4429 2.88365 17.7608 3.11807 17.9952C3.35249 18.2296 3.67043 18.3613 4.00195 18.3613H20.002C20.3335 18.3613 20.6514 18.2296 20.8858 17.9952C21.1203 17.7608 21.252 17.4429 21.252 17.1113V7.11133C21.252 6.77981 21.1203 6.46187 20.8858 6.22745C20.6514 5.99302 20.3335 5.86133 20.002 5.86133H4.00195Z" fill="#56311F"/>
<path d="M12.0017 13.4611C11.4214 13.4611 10.8517 13.3057 10.3517 13.0111L1.62169 7.82111C1.45858 7.71945 1.34004 7.55977 1.28995 7.37423C1.23985 7.18868 1.26191 6.99104 1.35169 6.82111C1.45153 6.6559 1.61198 6.53625 1.7988 6.48768C1.98562 6.43911 2.18402 6.46546 2.35169 6.56111L11.0917 11.7411C11.3567 11.9028 11.6612 11.9883 11.9717 11.9883C12.2822 11.9883 12.5866 11.9028 12.8517 11.7411L21.5917 6.56111C21.7594 6.46546 21.9578 6.43911 22.1446 6.48768C22.3314 6.53625 22.4918 6.6559 22.5917 6.82111C22.6815 6.99104 22.7035 7.18868 22.6534 7.37423C22.6033 7.55977 22.4848 7.71945 22.3217 7.82111L13.6517 13.0111C13.1517 13.3057 12.582 13.4611 12.0017 13.4611Z" fill="#56311F"/>
</svg>
