<svg width="32" height="32" viewBox="0 0 32 32" fill="none" xmlns="http://www.w3.org/2000/svg">
<path d="M17.8799 15.9986L23.6132 10.2786C23.8643 10.0275 24.0054 9.68702 24.0054 9.33195C24.0054 8.97688 23.8643 8.63636 23.6132 8.38529C23.3622 8.13421 23.0217 7.99316 22.6666 7.99316C22.3115 7.99316 21.971 8.13421 21.7199 8.38529L15.9999 14.1186L10.2799 8.38529C10.0288 8.13421 9.68832 7.99316 9.33325 7.99316C8.97818 7.99316 8.63766 8.13421 8.38659 8.38529C8.13551 8.63636 7.99446 8.97688 7.99446 9.33195C7.99446 9.68702 8.13551 10.0275 8.38659 10.2786L14.1199 15.9986L8.38659 21.7186C8.26161 21.8426 8.16242 21.99 8.09473 22.1525C8.02704 22.315 7.99219 22.4893 7.99219 22.6653C7.99219 22.8413 8.02704 23.0156 8.09473 23.1781C8.16242 23.3405 8.26161 23.488 8.38659 23.6119C8.51054 23.7369 8.658 23.8361 8.82048 23.9038C8.98296 23.9715 9.15724 24.0063 9.33325 24.0063C9.50927 24.0063 9.68354 23.9715 9.84602 23.9038C10.0085 23.8361 10.156 23.7369 10.2799 23.6119L15.9999 17.8786L21.7199 23.6119C21.8439 23.7369 21.9913 23.8361 22.1538 23.9038C22.3163 23.9715 22.4906 24.0063 22.6666 24.0063C22.8426 24.0063 23.0169 23.9715 23.1794 23.9038C23.3418 23.8361 23.4893 23.7369 23.6132 23.6119C23.7382 23.488 23.8374 23.3405 23.9051 23.1781C23.9728 23.0156 24.0076 22.8413 24.0076 22.6653C24.0076 22.4893 23.9728 22.315 23.9051 22.1525C23.8374 21.99 23.7382 21.8426 23.6132 21.7186L17.8799 15.9986Z" fill="#9C614B"/>
</svg>
