<svg width="690" height="256" viewBox="0 0 690 256" fill="none" xmlns="http://www.w3.org/2000/svg">
<path d="M666.989 1.45173C674.327 9.84641 680.106 19.846 683.978 30.8513C687.851 41.8567 689.738 53.6413 689.527 65.4993C689.316 77.3573 687.01 89.0445 682.748 99.8608C678.487 110.677 672.356 120.4 664.725 128.447C655.179 138.006 643.71 144.004 632.284 149.418C583.419 172.534 531.906 187.019 484.921 215.695C463.756 228.619 443.339 244.469 420.444 251.37C391.804 259.977 361.52 253.808 333.5 242.347C305.479 230.886 278.869 214.573 251.104 202.21C211.108 184.338 168.582 174.982 125.632 174.607C111.408 174.607 96.907 175.363 83.2386 170.413C60.8778 162.317 43.8777 139.932 28.0309 118.473C0.587158 81.3113 7.69904 34.4603 0.459045 -15.4062" fill="#FCEDC0"/>
</svg>
