<svg width="470" height="552" viewBox="0 0 470 552" fill="none" xmlns="http://www.w3.org/2000/svg">
<path d="M-469.812 16.0125C-419.578 22.94 -368.791 -8.57171 -319.596 2.34335C-280.243 11.0619 -255.72 43.9929 -219.232 59.0645C-156.162 85.1187 -74.1275 52.3059 -12.246 80.2356C17.8992 93.8372 36.9707 119.334 60.879 139.795C114.784 185.906 192.406 205.81 266.656 223.821C285.091 228.299 303.865 232.894 319.691 241.816C335.516 250.737 348.542 264.845 349.539 280.796C350.281 292.826 344.342 304.451 344.066 316.531C343.493 344.039 371.199 365.159 392.158 386.415C423.959 418.991 491.93 435.016 462.665 499.317C433.401 563.618 264.496 469.97 138.496 514.175C21.3877 591.336 -164.429 526.549 -247.496 526.549C-424.406 526.549 -458.336 499.317 -458.336 499.317L-469.812 16.0125Z" fill="#FCEDC0"/>
</svg>
